<?xml version="1.0" encoding="utf-8"?>
<!-- Generator: Adobe Illustrator 17.0.0, SVG Export Plug-In . SVG Version: 6.00 Build 0)  -->
<!DOCTYPE svg PUBLIC "-//W3C//DTD SVG 1.1//EN" "http://www.w3.org/Graphics/SVG/1.1/DTD/svg11.dtd">
<svg version="1.1" id="Layer_1" xmlns="http://www.w3.org/2000/svg" xmlns:xlink="http://www.w3.org/1999/xlink" x="0px" y="0px"
	 width="1200px" height="700px" viewBox="0 0 1200 700" enable-background="new 0 0 1200 700" xml:space="preserve">
<g>
	<g>
		<defs>
			<rect id="SVGID_1_" width="1200" height="700"/>
		</defs>
		<clipPath id="SVGID_2_">
			<use xlink:href="#SVGID_1_"  overflow="visible"/>
		</clipPath>
		<g clip-path="url(#SVGID_2_)">
			<g>
				<path fill="#00ADBA" d="M-39.516-58l-11.753,635.738l10.343-359.569L-39.516-58z"/>
				<path fill="#00ADBA" d="M-39.516-58l-1.41,276.169L-30.114,91.82L-39.516-58z"/>
				<path fill="#00ADBA" d="M-39.516-58l9.402,149.82l5.641-72.413L-39.516-58z"/>
				<path fill="#00ADBA" d="M-39.516-58l15.044,77.407l52.183-29.465L-39.516-58z"/>
				<path fill="#00ADBA" d="M-39.516-58l67.227,47.943l108.597-8.989L-39.516-58z"/>
				<path fill="#00ADBA" d="M-39.516-58l175.824,38.953l53.593-18.977L-39.516-58z"/>
				<path fill="#00ADBA" d="M-39.516-58l229.417,19.976l49.362-4.994L-39.516-58z"/>
				<path fill="#00ADB7" d="M-39.516-58l278.78,14.982l537.344-7.99L-39.516-58z"/>
				<path fill="#00ADBA" d="M27.711-10.057l-52.183,29.465l81.8,35.957L27.711-10.057z"/>
				<path fill="#00ADBA" d="M27.711-10.057l29.617,65.422l78.98-74.411L27.711-10.057z"/>
				<path fill="#00ADBA" d="M136.308-19.047l-78.98,74.411l76.629,18.977L136.308-19.047z"/>
				<path fill="#00ADBA" d="M136.308-19.047l-2.351,93.388l67.227-47.443L136.308-19.047z"/>
				<path fill="#00ADBA" d="M136.308-19.047l64.876,45.945l-11.283-64.922L136.308-19.047z"/>
				<path fill="#00ADBA" d="M189.901-38.024l11.283,64.922l38.08-69.916L189.901-38.024z"/>
				<path fill="#00ADBA" d="M239.263-43.018l-38.08,69.916l42.311,46.944L239.263-43.018z"/>
				<path fill="#00ADBA" d="M239.263-43.018l4.231,116.86l79.45-30.963L239.263-43.018z"/>
				<path fill="#00ADB9" d="M239.263-43.018l83.681,85.897l-7.522-78.905L239.263-43.018z"/>
				<path fill="#00ADB7" d="M239.263-43.018l76.159,6.992h128.812L239.263-43.018z"/>
				<path fill="#00ADB2" d="M239.263-43.018l204.971,6.992l167.362-5.993L239.263-43.018z"/>
				<path fill="#00ADAA" d="M239.263-43.018l372.333,0.999l165.011-8.989L239.263-43.018z"/>
				<path fill="#00ADB7" d="M315.423-36.026l7.522,78.905l61.585-65.921L315.423-36.026z"/>
				<path fill="#00ADB5" d="M315.423-36.026l69.107,12.984l59.705-12.984H315.423z"/>
				<path fill="#00ADB5" d="M384.53-23.042l-61.585,65.921l92.143-24.471L384.53-23.042z"/>
				<path fill="#00ADB3" d="M384.53-23.042l30.558,41.45l29.147-54.435L384.53-23.042z"/>
				<path fill="#00ADB1" d="M444.235-36.026l-29.147,54.435l35.259,25.469L444.235-36.026z"/>
				<path fill="#00ADAF" d="M444.235-36.026l6.112,79.904l59.705-11.486L444.235-36.026z"/>
				<path fill="#00ADAD" d="M444.235-36.026l65.816,68.418l17.864-57.931L444.235-36.026z"/>
				<path fill="#00ADAA" d="M444.235-36.026l83.681,10.487l83.681-16.48L444.235-36.026z"/>
				<path fill="#00ADAA" d="M527.916-25.539l-17.864,57.931l89.322,41.95L527.916-25.539z"/>
				<path fill="#00ADA8" d="M527.916-25.539l71.458,99.88L611.597-42.02L527.916-25.539z"/>
				<path fill="#00ADA6" d="M611.596-42.019l-12.223,116.36l68.637-4.495L611.596-42.019z"/>
				<path fill="#00ADA5" d="M611.596-42.019L668.01,69.847l20.215-113.864L611.596-42.019z"/>
				<path fill="#00ADA2" d="M611.596-42.019l76.629-1.998l88.382-6.992L611.596-42.019z"/>
				<path fill="#00ADA2" d="M688.226-44.017L668.011,69.847l56.414-1.498L688.226-44.017z"/>
				<path fill="#00AD9E" d="M688.226-44.017l36.199,112.365l52.183-119.357L688.226-44.017z"/>
				<path fill="#00A89A" d="M776.608-51.008L724.425,68.349L833.492-9.558L776.608-51.008z"/>
				<path fill="#00A697" d="M776.608-51.008l56.884,41.45L907.3-37.525L776.608-51.008z"/>
				<path fill="#00A696" d="M776.608-51.008L907.3-37.525l113.768,0.999L776.608-51.008z"/>
				<path fill="#00A693" d="M776.608-51.008l244.461,14.483l73.338-1.498L776.608-51.008z"/>
				<path fill="#00A698" d="M833.492-9.558L724.425,68.349l115.179-19.976L833.492-9.558z"/>
				<path fill="#00A697" d="M833.492-9.558l6.112,57.931l74.749-18.977L833.492-9.558z"/>
				<path fill="#00A696" d="M833.492-9.558l80.86,38.953l-7.052-66.92L833.492-9.558z"/>
				<path fill="#00A695" d="M907.3-37.525l7.052,66.92l25.856-48.941L907.3-37.525z"/>
				<path fill="#00A693" d="M907.3-37.525l32.908,17.978l80.86-16.98L907.3-37.525z"/>
				<path fill="#00A694" d="M940.209-19.546l-25.856,48.941l67.697,18.478L940.209-19.546z"/>
				<path fill="#00A692" d="M940.209-19.546l41.84,67.419l39.02-84.399L940.209-19.546z"/>
				<path fill="#00A690" d="M1021.069-36.526l-39.02,84.399l75.689,11.486L1021.069-36.526z"/>
				<path fill="#00A68E" d="M1021.069-36.526l36.669,95.885l36.669-97.383L1021.069-36.526z"/>
				<path fill="#00A68D" d="M1094.407-38.024l-36.669,97.383l61.585-5.493L1094.407-38.024z"/>
				<path fill="#00A68A" d="M1094.407-38.024l24.916,91.89l72.868-53.436L1094.407-38.024z"/>
				<path fill="#00A689" d="M1094.407-38.024l97.784,38.454l26.797-0.999L1094.407-38.024z"/>
				<path fill="#00A689" d="M1192.192,0.43l-72.868,53.436l60.175,3.995L1192.192,0.43z"/>
				<path fill="#00A687" d="M1192.192,0.43l-12.693,57.431l39.49-58.43L1192.192,0.43z"/>
				<path fill="#00A686" d="M1218.988-0.569l-39.49,58.43l62.055-32.461L1218.988-0.569z"/>
				<path fill="#00ADBA" d="M-24.472,19.407l-5.641,72.413l87.442-36.456L-24.472,19.407z"/>
				<path fill="#00ADBA" d="M57.328,55.364L-30.114,91.82l96.374,47.443L57.328,55.364z"/>
				<path fill="#00ADBA" d="M57.328,55.364l8.932,83.899l67.697-64.922L57.328,55.364z"/>
				<path fill="#00ADBA" d="M133.957,74.341L66.26,139.264l74.279-11.486L133.957,74.341z"/>
				<path fill="#00ADBA" d="M133.957,74.341l6.582,53.436l63.936-11.486L133.957,74.341z"/>
				<path fill="#00ADBA" d="M133.957,74.341l70.518,41.95l-3.291-89.393L133.957,74.341z"/>
				<path fill="#00ADBA" d="M201.184,26.898l3.291,89.393l39.02-42.449L201.184,26.898z"/>
				<path fill="#00ADB9" d="M243.495,73.842l-39.02,42.449l73.338-13.484L243.495,73.842z"/>
				<path fill="#00ADB9" d="M243.495,73.842l34.319,28.965l45.131-59.928L243.495,73.842z"/>
				<path fill="#00ADB6" d="M322.944,42.879l-45.131,59.928l26.327,16.48L322.944,42.879z"/>
				<path fill="#00ADB3" d="M322.944,42.879l-18.805,76.408l68.167,20.475L322.944,42.879z"/>
				<path fill="#00ADB5" d="M322.944,42.879l49.362,96.884l42.781-121.355L322.944,42.879z"/>
				<path fill="#00ADB3" d="M415.087,18.408l-42.781,121.355l78.04-95.885L415.087,18.408z"/>
				<path fill="#00ADAD" d="M450.346,43.878l-78.04,95.885l78.51-4.495L450.346,43.878z"/>
				<path fill="#00ADAF" d="M450.346,43.878l0.47,91.39l59.235-102.877L450.346,43.878z"/>
				<path fill="#00ADAA" d="M510.051,32.392l-59.235,102.877l102.016-31.962L510.051,32.392z"/>
				<path fill="#00ADA9" d="M510.051,32.392l42.781,70.915l46.542-28.965L510.051,32.392z"/>
				<path fill="#00ADA4" d="M599.373,74.341l-46.542,28.965l42.781,26.968L599.373,74.341z"/>
				<path fill="#00ADA2" d="M599.373,74.341l-3.761,55.933l62.996-23.971L599.373,74.341z"/>
				<path fill="#00ADA5" d="M599.373,74.341l59.235,31.962l9.402-36.456L599.373,74.341z"/>
				<path fill="#00ADA2" d="M668.011,69.847l-9.402,36.456l65.816-37.954L668.011,69.847z"/>
				<path fill="#00AD9B" d="M724.425,68.349l-65.816,37.954l94.023,34.459L724.425,68.349z"/>
				<path fill="#00A695" d="M724.425,68.349l28.207,72.413l53.593-9.489L724.425,68.349z"/>
				<path fill="#00A698" d="M724.425,68.349l81.8,62.925l33.378-82.901L724.425,68.349z"/>
				<path fill="#00A393" d="M839.603,48.372l-33.378,82.901L907.3,119.287L839.603,48.372z"/>
				<path fill="#00A696" d="M839.603,48.372l67.697,70.915l7.052-89.892L839.603,48.372z"/>
				<path fill="#00A593" d="M914.352,29.395l-7.052,89.892l49.362-8.49L914.352,29.395z"/>
				<path fill="#00A693" d="M914.352,29.395l42.311,81.402l25.386-62.925L914.352,29.395z"/>
				<path fill="#00A590" d="M982.049,47.873l-25.386,62.925l97.314-7.491L982.049,47.873z"/>
				<path fill="#00A68F" d="M982.049,47.873l71.928,55.434l3.761-43.947L982.049,47.873z"/>
				<path fill="#00A68D" d="M1057.738,59.359l-3.761,43.947l65.346-49.441L1057.738,59.359z"/>
				<path fill="#00A48A" d="M1119.323,53.866l-65.346,49.441l69.577,13.484L1119.323,53.866z"/>
				<path fill="#00A488" d="M1119.323,53.866l4.231,62.925l50.773-8.49L1119.323,53.866z"/>
				<path fill="#00A689" d="M1119.323,53.866l55.004,54.435l5.171-50.44L1119.323,53.866z"/>
				<path fill="#00A383" d="M1179.498,57.861l-5.171,50.44l72.398,27.467L1179.498,57.861z"/>
				<path fill="#00A686" d="M1179.498,57.861l67.227,77.907L1241.554,25.4L1179.498,57.861z"/>
				<path fill="#00ADBA" d="M-30.114,91.82l-10.813,126.349L66.26,139.264L-30.114,91.82z"/>
				<path fill="#00ADBA" d="M66.26,139.264l-107.187,78.905l103.896,4.994L66.26,139.264z"/>
				<path fill="#00ADBA" d="M66.26,139.264l-3.291,83.899l68.637-25.469L66.26,139.264z"/>
				<path fill="#00ADBA" d="M66.26,139.264l65.346,58.43l8.932-69.916L66.26,139.264z"/>
				<path fill="#00ADB7" d="M140.539,127.777l-8.932,69.916l61.585-12.485L140.539,127.777z"/>
				<path fill="#00ADB8" d="M140.539,127.777l52.653,57.431l11.283-68.917L140.539,127.777z"/>
				<path fill="#00ADB1" d="M204.475,116.291l-11.283,68.917l39.96,18.977L204.475,116.291z"/>
				<path fill="#00ADB2" d="M204.475,116.291l28.677,87.895l44.661-101.378L204.475,116.291z"/>
				<path fill="#00ADAB" d="M277.813,102.807l-44.661,101.378l78.98-25.469L277.813,102.807z"/>
				<path fill="#00ADAE" d="M277.813,102.807l34.319,75.909l-7.992-59.429L277.813,102.807z"/>
				<path fill="#00ADAB" d="M304.14,119.287l7.992,59.429l60.175-38.953L304.14,119.287z"/>
				<path fill="#00ADA7" d="M372.307,139.763l-60.175,38.953l107.657-5.493L372.307,139.763z"/>
				<path fill="#00ADA6" d="M372.307,139.763l47.482,33.46l31.028-37.954L372.307,139.763z"/>
				<path fill="#00ADA2" d="M450.816,135.268l-31.028,37.954l52.653,14.483L450.816,135.268z"/>
				<path fill="#00AD9F" d="M450.816,135.268l21.625,52.437l56.884-7.491L450.816,135.268z"/>
				<path fill="#00ADA0" d="M450.816,135.268l78.51,44.946l23.506-76.908L450.816,135.268z"/>
				<path fill="#00AD9E" d="M552.832,103.307l-23.506,76.908l66.287-49.94L552.832,103.307z"/>
				<path fill="#00AD9A" d="M595.612,130.274l-66.287,49.94l94.023-14.483L595.612,130.274z"/>
				<path fill="#00AD9C" d="M595.612,130.274l27.737,35.457l35.259-59.429L595.612,130.274z"/>
				<path fill="#00AD97" d="M658.608,106.303l-35.259,59.429l57.354,50.939L658.608,106.303z"/>
				<path fill="#00AC94" d="M658.608,106.303l22.096,110.368l71.928-75.909L658.608,106.303z"/>
				<path fill="#009C8E" d="M752.632,140.762l-71.928,75.909l72.398-13.484L752.632,140.762z"/>
				<path fill="#009C8C" d="M752.632,140.762l0.47,62.425l53.123-71.914L752.632,140.762z"/>
				<path fill="#00958A" d="M806.225,131.273l-53.123,71.914l73.808-17.479L806.225,131.273z"/>
				<path fill="#009D8B" d="M806.225,131.273l20.685,54.435l80.39-66.42L806.225,131.273z"/>
				<path fill="#009788" d="M907.3,119.287l-80.39,66.42l77.569,2.497L907.3,119.287z"/>
				<path fill="#009686" d="M907.3,119.287l-2.821,68.917l40.43,10.987L907.3,119.287z"/>
				<path fill="#009D88" d="M907.3,119.287l37.609,79.904l11.753-88.394L907.3,119.287z"/>
				<path fill="#009683" d="M956.663,110.798l-11.753,88.394l90.263-1.998L956.663,110.798z"/>
				<path fill="#009D85" d="M956.663,110.798l78.51,86.396l18.805-93.887L956.663,110.798z"/>
				<path fill="#00957F" d="M1053.977,103.307l-18.805,93.887l66.286,16.48L1053.977,103.307z"/>
				<path fill="#009C80" d="M1053.977,103.307l47.482,110.368l22.096-96.884L1053.977,103.307z"/>
				<path fill="#00967C" d="M1123.554,116.79l-22.096,96.884l55.944-43.947L1123.554,116.79z"/>
				<path fill="#009E7F" d="M1123.554,116.79l33.848,52.937l16.924-61.426L1123.554,116.79z"/>
				<path fill="#009D7C" d="M1174.327,108.301l-16.924,61.426l89.322-33.959L1174.327,108.301z"/>
				<path fill="#009477" d="M1246.725,135.768l-89.322,33.959l81.8,48.442L1246.725,135.768z"/>
				<path fill="#008872" d="M1246.725,135.768l-7.522,82.401l0.47,60.927L1246.725,135.768z"/>
				<path fill="#005C64" d="M1246.725,135.768l-7.052,143.328l18.805,233.72L1246.725,135.768z"/>
				<path fill="#003C54" d="M1246.725,135.768l11.753,377.048l7.522,67.919L1246.725,135.768z"/>
				<path fill="#00ADB2" d="M-40.927,218.169L-51.27,577.738l13.163-293.149L-40.927,218.169z"/>
				<path fill="#00ADBA" d="M-40.927,218.169l2.821,66.42l95.434-43.448L-40.927,218.169z"/>
				<path fill="#00ADBA" d="M-40.927,218.169l98.255,22.972l5.641-17.978L-40.927,218.169z"/>
				<path fill="#00ADB4" d="M62.969,223.163l-5.641,17.978l64.876,46.444L62.969,223.163z"/>
				<path fill="#00ADB5" d="M62.969,223.163l59.235,64.423l9.402-89.892L62.969,223.163z"/>
				<path fill="#00ADAE" d="M131.607,197.693l-9.402,89.892l87.912-38.454L131.607,197.693z"/>
				<path fill="#00ADB1" d="M131.607,197.693l78.51,51.438l-16.924-63.923L131.607,197.693z"/>
				<path fill="#00ADAD" d="M193.192,185.208l16.924,63.923l23.036-44.946L193.192,185.208z"/>
				<path fill="#00ADA5" d="M233.152,204.186l-23.036,44.946l63.936,36.956L233.152,204.186z"/>
				<path fill="#00ADA2" d="M233.152,204.186l40.9,81.902l35.259-44.447L233.152,204.186z"/>
				<path fill="#00ADA7" d="M233.152,204.186l76.159,37.455l2.821-62.925L233.152,204.186z"/>
				<path fill="#00ADA2" d="M312.132,178.716l-2.821,62.925l101.545,17.479L312.132,178.716z"/>
				<path fill="#00ADA3" d="M312.132,178.716l98.725,80.404l8.932-85.897L312.132,178.716z"/>
				<path fill="#00AD9D" d="M419.789,173.223l-8.932,85.897l36.199-9.988L419.789,173.223z"/>
				<path fill="#00AD9E" d="M419.789,173.223l27.267,75.909l25.386-61.426L419.789,173.223z"/>
				<path fill="#00AD97" d="M472.442,187.705l-25.386,61.426l78.04,32.96L472.442,187.705z"/>
				<path fill="#00AD99" d="M472.442,187.705l52.653,94.387l4.231-101.878L472.442,187.705z"/>
				<path fill="#00A691" d="M529.326,180.214l-4.231,101.878l98.255-5.993L529.326,180.214z"/>
				<path fill="#00AD95" d="M529.326,180.214l94.023,95.885V165.732L529.326,180.214z"/>
				<path fill="#00A292" d="M623.349,165.732V276.1l57.354-59.429L623.349,165.732z"/>
				<path fill="#00908C" d="M680.704,216.671L623.35,276.1l80.86-25.969L680.704,216.671z"/>
				<path fill="#00938C" d="M680.704,216.671l23.506,33.46l48.892-46.944L680.704,216.671z"/>
				<path fill="#008486" d="M753.102,203.187l-48.892,46.944l38.08,32.461L753.102,203.187z"/>
				<path fill="#007A82" d="M753.102,203.187l-10.813,79.405l65.816-14.483L753.102,203.187z"/>
				<path fill="#008685" d="M753.102,203.187l55.004,64.922l18.805-82.401L753.102,203.187z"/>
				<path fill="#007C80" d="M826.91,185.708l-18.805,82.401l106.717,1.498L826.91,185.708z"/>
				<path fill="#008783" d="M826.91,185.708l87.912,83.899l-10.343-81.402L826.91,185.708z"/>
				<path fill="#008681" d="M904.48,188.205l10.343,81.402l30.088-70.416L904.48,188.205z"/>
				<path fill="#007D7E" d="M944.91,199.192l-30.088,70.416l45.601-23.971L944.91,199.192z"/>
				<path fill="#00887F" d="M944.91,199.192l15.514,46.444l74.749-48.442L944.91,199.192z"/>
				<path fill="#007C79" d="M1035.172,197.194l-74.749,48.442l89.322,27.966L1035.172,197.194z"/>
				<path fill="#008179" d="M1035.172,197.194l14.574,76.408l51.713-59.928L1035.172,197.194z"/>
				<path fill="#007273" d="M1101.459,213.674l-51.713,59.928l26.327,23.472L1101.459,213.674z"/>
				<path fill="#007672" d="M1101.459,213.674l-25.386,83.4l89.322-50.44L1101.459,213.674z"/>
				<path fill="#008877" d="M1101.459,213.674l63.936,32.96l-7.992-76.908L1101.459,213.674z"/>
				<path fill="#008875" d="M1157.403,169.727l7.992,76.908l73.808-28.466L1157.403,169.727z"/>
				<path fill="#00786E" d="M1239.203,218.169l-73.808,28.466l74.279,32.461L1239.203,218.169z"/>
				<path fill="#00ADA7" d="M-38.106,284.589l-13.163,293.149l20.215-204.255L-38.106,284.589z"/>
				<path fill="#00ADB0" d="M-38.106,284.589l7.052,88.893l88.382-7.99L-38.106,284.589z"/>
				<path fill="#00ADB2" d="M-38.106,284.589l95.434,80.903V241.141L-38.106,284.589z"/>
				<path fill="#00ADAD" d="M57.328,241.141v124.351l64.876-77.907L57.328,241.141z"/>
				<path fill="#00ADA8" d="M122.204,287.586l-64.876,77.907l64.876-18.977V287.586z"/>
				<path fill="#00ADA5" d="M122.204,287.586v58.929l47.482,23.971L122.204,287.586z"/>
				<path fill="#00ADA4" d="M122.204,287.586l47.482,82.901l40.43-121.355L122.204,287.586z"/>
				<path fill="#00AD9D" d="M210.116,249.132l-40.43,121.355l89.322-21.974L210.116,249.132z"/>
				<path fill="#00AD9C" d="M210.116,249.132l48.892,99.381l15.044-62.425L210.116,249.132z"/>
				<path fill="#00AD96" d="M274.052,286.088l-15.044,62.425l89.792,11.986L274.052,286.088z"/>
				<path fill="#00AD98" d="M274.052,286.088l74.749,74.411l-39.49-118.858L274.052,286.088z"/>
				<path fill="#00AD97" d="M309.311,241.641l39.49,118.858l62.056-101.378L309.311,241.641z"/>
				<path fill="#00A793" d="M410.856,259.12L348.8,360.498l62.526-14.982L410.856,259.12z"/>
				<path fill="#00A491" d="M410.856,259.12l0.47,86.396l35.729-11.986L410.856,259.12z"/>
				<path fill="#00AD93" d="M410.856,259.12l36.199,74.411v-84.399L410.856,259.12z"/>
				<path fill="#00A58F" d="M447.055,249.132v84.399l78.04-51.438L447.055,249.132z"/>
				<path fill="#00928B" d="M525.095,282.092l-78.04,51.438l90.733,0.999L525.095,282.092z"/>
				<path fill="#008E89" d="M525.095,282.092l12.693,52.437l85.561-58.43L525.095,282.092z"/>
				<path fill="#007F86" d="M623.349,276.099l-85.561,58.43l59.235,12.984L623.349,276.099z"/>
				<path fill="#007684" d="M623.349,276.099l-26.327,71.414l58.765-2.996L623.349,276.099z"/>
				<path fill="#007D85" d="M623.349,276.099l32.438,68.418l48.422-94.387L623.349,276.099z"/>
				<path fill="#007581" d="M704.21,250.131l-48.422,94.387l86.502-61.926L704.21,250.131z"/>
				<path fill="#00637D" d="M742.289,282.592l-86.502,61.926l114.709-6.492L742.289,282.592z"/>
				<path fill="#00657A" d="M742.289,282.592l28.207,55.434l37.609-69.916L742.289,282.592z"/>
				<path fill="#005877" d="M808.106,268.109l-37.609,69.916l21.625,15.481L808.106,268.109z"/>
				<path fill="#005375" d="M808.106,268.109l-15.984,85.398l104.836,16.98L808.106,268.109z"/>
				<path fill="#005F76" d="M808.106,268.109l88.852,102.377l17.864-100.879L808.106,268.109z"/>
				<path fill="#005171" d="M914.822,269.607l-17.864,100.879l66.757-3.995L914.822,269.607z"/>
				<path fill="#006374" d="M914.822,269.607l48.892,96.884l-3.291-120.855L914.822,269.607z"/>
				<path fill="#005970" d="M960.424,245.636l3.291,120.855l69.577-28.965L960.424,245.636z"/>
				<path fill="#006672" d="M960.424,245.636l72.868,91.89l16.454-63.923L960.424,245.636z"/>
				<path fill="#005F6E" d="M1049.746,273.602l-16.454,63.923l42.781-40.452L1049.746,273.602z"/>
				<path fill="#00546B" d="M1076.073,297.074l-42.781,40.452l81.33,12.485L1076.073,297.074z"/>
				<path fill="#00616B" d="M1076.073,297.074l38.55,52.937l50.773-103.376L1076.073,297.074z"/>
				<path fill="#005767" d="M1165.395,246.635l-50.773,103.376l80.86,13.983L1165.395,246.635z"/>
				<path fill="#005765" d="M1165.395,246.635l30.088,117.359l23.506-10.987L1165.395,246.635z"/>
				<path fill="#006367" d="M1165.395,246.635l53.593,106.372l20.685-73.911L1165.395,246.635z"/>
				<path fill="#004961" d="M1239.673,279.096l-20.685,73.911l21.625,68.917L1239.673,279.096z"/>
				<path fill="#003D56" d="M1239.673,279.096l0.94,142.829l17.865,90.891L1239.673,279.096z"/>
				<path fill="#00ADA0" d="M-31.054,373.483l-20.215,204.255l19.275-101.378L-31.054,373.483z"/>
				<path fill="#00ADA5" d="M-31.054,373.483l-0.94,102.877l9.402-82.901L-31.054,373.483z"/>
				<path fill="#00ADAB" d="M-31.054,373.483l8.462,19.976l79.92-27.966L-31.054,373.483z"/>
				<path fill="#00ADA6" d="M57.328,365.492l-79.92,27.966l56.414,31.962L57.328,365.492z"/>
				<path fill="#00ADA1" d="M57.328,365.492L33.822,425.42l99.665-33.959L57.328,365.492z"/>
				<path fill="#00ADA4" d="M57.328,365.492l76.159,25.969l-11.283-44.946L57.328,365.492z"/>
				<path fill="#00ADA0" d="M122.204,346.515l11.283,44.946l36.199-20.975L122.204,346.515z"/>
				<path fill="#00AB98" d="M169.686,370.486l-36.199,20.975l63.466,39.952L169.686,370.486z"/>
				<path fill="#00A793" d="M169.686,370.486l27.267,60.927l53.123-31.462L169.686,370.486z"/>
				<path fill="#00AA96" d="M169.686,370.486l80.39,29.465l8.932-51.438L169.686,370.486z"/>
				<path fill="#00A18E" d="M259.008,348.513l-8.932,51.438l89.792,12.984L259.008,348.513z"/>
				<path fill="#009E8F" d="M259.008,348.513l80.86,64.423l8.932-52.437L259.008,348.513z"/>
				<path fill="#009186" d="M348.801,360.498l-8.932,52.437l48.892,35.957L348.801,360.498z"/>
				<path fill="#00928A" d="M348.801,360.498l39.96,88.394l22.566-103.376L348.801,360.498z"/>
				<path fill="#008481" d="M411.326,345.516L388.76,448.892l95.434-3.995L411.326,345.516z"/>
				<path fill="#008888" d="M411.326,345.516l72.868,99.381L447.055,333.53L411.326,345.516z"/>
				<path fill="#007A80" d="M447.055,333.531l37.139,111.367l62.996-36.956L447.055,333.531z"/>
				<path fill="#007E86" d="M447.055,333.531l100.135,74.411l-9.402-73.412L447.055,333.531z"/>
				<path fill="#007283" d="M537.788,334.529l9.402,73.412l49.832-60.428L537.788,334.529z"/>
				<path fill="#006A7D" d="M597.023,347.514l-49.832,60.428l40.9-2.497L597.023,347.514z"/>
				<path fill="#006780" d="M597.023,347.514l-8.932,57.931l67.697-60.927L597.023,347.514z"/>
				<path fill="#005A78" d="M655.788,344.517l-67.697,60.927l100.605,40.951L655.788,344.517z"/>
				<path fill="#005073" d="M655.788,344.517l32.908,101.878l51.713-26.968L655.788,344.517z"/>
				<path fill="#005178" d="M655.788,344.517l84.621,74.91l30.088-81.402L655.788,344.517z"/>
				<path fill="#004773" d="M770.496,338.025l-30.088,81.402l51.713-65.921L770.496,338.025z"/>
				<path fill="#003F6B" d="M792.122,353.507l-51.713,65.921l89.792,2.996L792.122,353.507z"/>
				<path fill="#00426D" d="M792.122,353.507l38.08,68.917l66.757-51.938L792.122,353.507z"/>
				<path fill="#003E68" d="M896.958,370.486l-66.757,51.938l57.824-12.984L896.958,370.486z"/>
				<path fill="#003D67" d="M896.958,370.486l-8.932,38.953l73.808,23.472L896.958,370.486z"/>
				<path fill="#004069" d="M896.958,370.486l64.876,62.425l1.88-66.42L896.958,370.486z"/>
				<path fill="#003D63" d="M963.714,366.491l-1.88,66.42l46.542-10.987L963.714,366.491z"/>
				<path fill="#004268" d="M963.714,366.491l44.661,55.434l24.916-84.399L963.714,366.491z"/>
				<path fill="#004467" d="M1033.292,337.526l-24.916,84.399l106.247-71.914L1033.292,337.526z"/>
				<path fill="#003E5F" d="M1114.622,350.011l-106.247,71.914l117.529,6.992L1114.622,350.011z"/>
				<path fill="#003F5E" d="M1114.622,350.011l11.283,78.905l65.816-33.46L1114.622,350.011z"/>
				<path fill="#004461" d="M1114.622,350.011l77.099,45.446l3.761-31.462L1114.622,350.011z"/>
				<path fill="#00435F" d="M1195.482,363.994l-3.761,31.462l27.267-42.449L1195.482,363.994z"/>
				<path fill="#00405B" d="M1218.988,353.007l-27.267,42.449l48.892,26.468L1218.988,353.007z"/>
				<path fill="#00ADA0" d="M-22.592,393.459l-9.402,82.901l65.816-50.939L-22.592,393.459z"/>
				<path fill="#00AD9B" d="M33.822,425.421l-65.816,50.939l100.605,41.95L33.822,425.421z"/>
				<path fill="#00AD96" d="M33.822,425.421l34.789,92.889l61.115-8.989L33.822,425.421z"/>
				<path fill="#00AB97" d="M33.822,425.421l95.904,83.899l3.761-117.859L33.822,425.421z"/>
				<path fill="#00A692" d="M133.487,391.461l-3.761,117.859l67.227-77.907L133.487,391.461z"/>
				<path fill="#00A48D" d="M196.953,431.413l-67.227,77.907l71.928-25.969L196.953,431.413z"/>
				<path fill="#00A08B" d="M196.953,431.413l4.701,51.938l48.422-83.4L196.953,431.413z"/>
				<path fill="#009E88" d="M250.076,399.951l-48.422,83.4l31.968,22.473L250.076,399.951z"/>
				<path fill="#009A83" d="M250.076,399.951l-16.454,105.873l96.374-21.474L250.076,399.951z"/>
				<path fill="#009584" d="M250.076,399.951l79.92,84.399l9.872-71.414L250.076,399.951z"/>
				<path fill="#008E81" d="M339.869,412.935l-9.872,71.414l58.765-35.457L339.869,412.935z"/>
				<path fill="#008B7E" d="M388.761,448.892l-58.765,35.457l56.414,31.962L388.761,448.892z"/>
				<path fill="#00847B" d="M388.761,448.892l-2.351,67.419l74.749-9.489L388.761,448.892z"/>
				<path fill="#007D7A" d="M388.761,448.892l72.398,57.931l23.036-61.926L388.761,448.892z"/>
				<path fill="#007476" d="M484.195,444.897l-23.036,61.926l59.705,5.993L484.195,444.897z"/>
				<path fill="#006E75" d="M484.195,444.897l36.669,67.919l26.327-104.874L484.195,444.897z"/>
				<path fill="#006572" d="M547.19,407.941l-26.327,104.874l90.733-39.453L547.19,407.941z"/>
				<path fill="#006174" d="M547.19,407.941l64.406,65.422l-23.506-67.919L547.19,407.941z"/>
				<path fill="#005771" d="M588.091,405.444l23.506,67.919l77.099-26.968L588.091,405.444z"/>
				<path fill="#00516F" d="M688.696,446.395l-77.099,26.968l65.346-0.499L688.696,446.395z"/>
				<path fill="#00496A" d="M688.696,446.395l-11.753,26.468l66.287,14.982L688.696,446.395z"/>
				<path fill="#004469" d="M688.696,446.395l54.534,41.45l-2.821-68.418L688.696,446.395z"/>
				<path fill="#003C64" d="M740.409,419.428l2.821,68.418l79.45,0.999L740.409,419.428z"/>
				<path fill="#003863" d="M740.409,419.428l82.271,69.417l7.522-66.42L740.409,419.428z"/>
				<path fill="#003861" d="M830.201,422.424l-7.522,66.42l70.518-5.993L830.201,422.424z"/>
				<path fill="#003861" d="M830.201,422.424l62.996,60.428l-5.171-73.412L830.201,422.424z"/>
				<path fill="#003860" d="M888.026,409.44l5.171,73.412l68.637-49.94L888.026,409.44z"/>
				<path fill="#00385E" d="M961.834,432.912l-68.637,49.94l55.004,12.485L961.834,432.912z"/>
				<path fill="#00385B" d="M961.834,432.912l-13.633,62.425l63.936,21.974L961.834,432.912z"/>
				<path fill="#00385B" d="M961.834,432.912l50.303,84.399l-3.761-95.386L961.834,432.912z"/>
				<path fill="#003858" d="M1008.376,421.925l3.761,95.386l75.219-18.478L1008.376,421.925z"/>
				<path fill="#003858" d="M1008.376,421.925l78.98,76.908l38.55-69.916L1008.376,421.925z"/>
				<path fill="#003853" d="M1125.905,428.916l-38.55,69.916l108.127-12.485L1125.905,428.916z"/>
				<path fill="#003853" d="M1125.905,428.916l69.577,57.431l-3.761-90.891L1125.905,428.916z"/>
				<path fill="#003852" d="M1191.721,395.456l3.761,90.891l45.131-64.423L1191.721,395.456z"/>
				<path fill="#00384E" d="M1240.614,421.925l-45.131,64.423l62.996,26.468L1240.614,421.925z"/>
				<path fill="#00AA98" d="M-31.994,476.359l-19.275,101.378l95.434,10.987L-31.994,476.359z"/>
				<path fill="#00AB96" d="M-31.994,476.359l76.159,112.365l24.446-70.416L-31.994,476.359z"/>
				<path fill="#00A08F" d="M68.611,518.309l-24.446,70.416l72.868-27.966L68.611,518.309z"/>
				<path fill="#00A490" d="M68.611,518.309l48.422,42.449l12.693-51.438L68.611,518.309z"/>
				<path fill="#009D8A" d="M129.726,509.32l-12.693,51.438l74.749-10.987L129.726,509.32z"/>
				<path fill="#00A18A" d="M129.726,509.32l62.056,40.452l9.872-66.42L129.726,509.32z"/>
				<path fill="#009E87" d="M201.654,483.351l-9.872,66.42l41.84-43.947L201.654,483.351z"/>
				<path fill="#009682" d="M233.622,505.824l-41.84,43.947l71.928,1.998L233.622,505.824z"/>
				<path fill="#00967F" d="M233.622,505.824l30.088,45.945l66.287-67.419L233.622,505.824z"/>
				<path fill="#008C7B" d="M329.996,484.35l-66.287,67.419l41.84,38.953L329.996,484.35z"/>
				<path fill="#00867A" d="M329.996,484.35L305.55,590.722l75.219-35.957L329.996,484.35z"/>
				<path fill="#00887B" d="M329.996,484.35l50.773,70.416l5.641-38.454L329.996,484.35z"/>
				<path fill="#007F78" d="M386.41,516.312l-5.641,38.454l80.39-47.943L386.41,516.312z"/>
				<path fill="#007273" d="M461.159,506.823l-80.39,47.943l101.075,27.467L461.159,506.823z"/>
				<path fill="#006C71" d="M461.159,506.823l20.685,75.41l39.02-69.417L461.159,506.823z"/>
				<path fill="#00626D" d="M520.864,512.816l-39.02,69.417l42.311-2.996L520.864,512.816z"/>
				<path fill="#00596A" d="M520.864,512.816l3.291,66.42l66.287,18.977L520.864,512.816z"/>
				<path fill="#005C6D" d="M520.864,512.816l69.577,85.398l21.155-124.85L520.864,512.816z"/>
				<path fill="#004E69" d="M611.596,473.363l-21.155,124.85l75.219-31.962L611.596,473.363z"/>
				<path fill="#00526D" d="M611.596,473.363l54.064,92.889l11.283-93.388L611.596,473.363z"/>
				<path fill="#004968" d="M676.943,472.864l-11.283,93.388l77.569-78.406L676.943,472.864z"/>
				<path fill="#003C62" d="M743.229,487.846l-77.569,78.406l64.406,20.475L743.229,487.846z"/>
				<path fill="#00315D" d="M743.229,487.846l-13.163,98.881l62.996,4.495L743.229,487.846z"/>
				<path fill="#00335E" d="M743.229,487.846l49.832,103.376l29.617-102.377L743.229,487.846z"/>
				<path fill="#002858" d="M822.679,488.844l-29.617,102.377l35.729,25.469L822.679,488.844z"/>
				<path fill="#002857" d="M822.679,488.844l6.112,127.847l86.502-19.976L822.679,488.844z"/>
				<path fill="#00335B" d="M822.679,488.844l92.613,107.871l-22.096-113.863L822.679,488.844z"/>
				<path fill="#002E58" d="M893.197,482.852l22.096,113.863l31.968-46.944L893.197,482.852z"/>
				<path fill="#00365B" d="M893.197,482.852l54.064,66.92l0.94-54.435L893.197,482.852z"/>
				<path fill="#003458" d="M948.201,495.337l-0.94,54.435l64.876-32.461L948.201,495.337z"/>
				<path fill="#002D53" d="M1012.137,517.31l-64.876,32.461l106.247,21.474L1012.137,517.31z"/>
				<path fill="#003153" d="M1012.137,517.31l41.37,53.935l33.848-72.413L1012.137,517.31z"/>
				<path fill="#002E50" d="M1087.355,498.832l-33.848,72.413l39.49-20.475L1087.355,498.832z"/>
				<path fill="#002F4F" d="M1087.355,498.832l5.641,51.938l79.92,11.486L1087.355,498.832z"/>
				<path fill="#00344F" d="M1087.355,498.832l85.561,63.424l22.566-75.909L1087.355,498.832z"/>
				<path fill="#00334C" d="M1195.482,486.347l-22.566,75.909l85.561-49.441L1195.482,486.347z"/>
				<path fill="#002B47" d="M1258.478,512.816l-85.561,49.441L1266,580.734L1258.478,512.816z"/>
				<path fill="#00A58E" d="M-51.269,577.738l27.267,120.855l12.693-48.442L-51.269,577.738z"/>
				<path fill="#00A390" d="M-51.269,577.738l39.96,72.413l55.474-61.426L-51.269,577.738z"/>
				<path fill="#00A08B" d="M44.165,588.725l-55.474,61.426l58.295,1.498L44.165,588.725z"/>
				<path fill="#009D88" d="M44.165,588.725l2.821,62.925l60.645-28.965L44.165,588.725z"/>
				<path fill="#009B8A" d="M44.165,588.725l63.466,33.959l9.402-61.926L44.165,588.725z"/>
				<path fill="#009683" d="M117.033,560.758l-9.402,61.926l90.263,15.481L117.033,560.758z"/>
				<path fill="#009383" d="M117.033,560.758l80.86,77.407l-6.112-88.394L117.033,560.758z"/>
				<path fill="#008E7B" d="M191.782,549.771l6.112,88.394l55.004-3.496L191.782,549.771z"/>
				<path fill="#008C7C" d="M191.782,549.771l61.115,84.898l10.813-82.901L191.782,549.771z"/>
				<path fill="#008877" d="M263.71,551.769l-10.813,82.901l52.653-43.947L263.71,551.769z"/>
				<path fill="#008473" d="M305.55,590.722l-52.653,43.947l94.964-16.98L305.55,590.722z"/>
				<path fill="#007D74" d="M305.55,590.722l42.311,26.968l32.908-62.925L305.55,590.722z"/>
				<path fill="#007A71" d="M380.769,554.765l-32.908,62.925l38.55,39.453L380.769,554.765z"/>
				<path fill="#00726F" d="M380.769,554.765l5.641,102.377l95.434-74.91L380.769,554.765z"/>
				<path fill="#006B69" d="M481.844,582.233l-95.434,74.91l87.442,3.995L481.844,582.233z"/>
				<path fill="#006266" d="M481.844,582.233l-7.992,78.905l43.721-2.497L481.844,582.233z"/>
				<path fill="#005E67" d="M481.844,582.233l35.729,76.408l6.582-79.405L481.844,582.233z"/>
				<path fill="#005765" d="M524.155,579.236l-6.582,79.405l72.868-60.428L524.155,579.236z"/>
				<path fill="#005161" d="M590.441,598.213l-72.868,60.428l93.553-13.983L590.441,598.213z"/>
				<path fill="#004763" d="M590.441,598.213l20.685,46.444l54.534-78.406L590.441,598.213z"/>
				<path fill="#003F60" d="M665.66,566.252l-54.534,78.406l95.434-22.972L665.66,566.252z"/>
				<path fill="#00385E" d="M665.66,566.252l40.9,55.434l23.506-34.958L665.66,566.252z"/>
				<path fill="#00345A" d="M730.066,586.727l-23.506,34.958l15.044,6.992L730.066,586.727z"/>
				<path fill="#002E58" d="M730.066,586.727l-8.462,41.95l71.458-37.455L730.066,586.727z"/>
				<path fill="#002854" d="M793.062,591.222l-71.458,37.455l107.187-11.986L793.062,591.222z"/>
				<path fill="#002750" d="M915.292,596.715l-86.502,19.976l70.518,26.968L915.292,596.715z"/>
				<path fill="#00274E" d="M915.292,596.715l-15.984,46.944l63.466-4.994L915.292,596.715z"/>
				<path fill="#002751" d="M915.292,596.715l47.482,41.95l-15.514-88.893L915.292,596.715z"/>
				<path fill="#002650" d="M947.26,549.771l15.514,88.893l90.733-67.419L947.26,549.771z"/>
				<path fill="#00264A" d="M1053.507,571.246l-90.733,67.419l78.039,30.963L1053.507,571.246z"/>
				<path fill="#002646" d="M1053.507,571.246l-12.693,98.382l54.534-2.996L1053.507,571.246z"/>
				<path fill="#00264A" d="M1053.507,571.246l41.84,95.386l-2.351-115.861L1053.507,571.246z"/>
				<path fill="#002648" d="M1092.997,550.77l2.351,115.861l77.569-104.375L1092.997,550.77z"/>
				<path fill="#002643" d="M1172.917,562.256l-77.569,104.375l55.004,7.491L1172.917,562.256z"/>
				<path fill="#002640" d="M1172.917,562.256l-22.566,111.866l80.39-9.988L1172.917,562.256z"/>
				<path fill="#002642" d="M1172.917,562.256l57.824,101.878l35.259-83.4L1172.917,562.256z"/>
				<path fill="#00263B" d="M1266,580.734l-35.259,83.4l-9.402,76.408L1266,580.734z"/>
				<path fill="#00A289" d="M-11.309,650.151l-12.693,48.442l70.988-46.944L-11.309,650.151z"/>
				<path fill="#00A084" d="M46.985,651.649l-70.988,46.944l72.398,28.965L46.985,651.649z"/>
				<path fill="#009D81" d="M46.985,651.649l1.41,75.909l38.55-29.964L46.985,651.649z"/>
				<path fill="#009B83" d="M46.985,651.649l39.96,45.945l20.685-74.91L46.985,651.649z"/>
				<path fill="#00977F" d="M107.631,622.684l-20.685,74.91l110.948-59.429L107.631,622.684z"/>
				<path fill="#009478" d="M197.893,638.165L86.945,697.594l116.589,22.972L197.893,638.165z"/>
				<path fill="#008E72" d="M197.893,638.165l5.641,82.401l41.84-18.478L197.893,638.165z"/>
				<path fill="#008C74" d="M197.893,638.165l47.482,63.923l7.522-67.419L197.893,638.165z"/>
				<path fill="#00876B" d="M252.897,634.67l-7.522,67.419l88.852,38.953L252.897,634.67z"/>
				<path fill="#00826D" d="M252.897,634.67l81.33,106.372L347.86,617.69L252.897,634.67z"/>
				<path fill="#007C6A" d="M347.861,617.69l-13.633,123.352l52.183-83.899L347.861,617.69z"/>
				<path fill="#007A65" d="M386.41,657.143l-52.183,83.899l55.474,1.498L386.41,657.143z"/>
				<path fill="#007363" d="M386.41,657.143l3.291,85.398l66.287-12.984L386.41,657.143z"/>
				<path fill="#006D64" d="M386.41,657.143l69.577,72.413l17.864-68.418L386.41,657.143z"/>
				<path fill="#00635D" d="M473.852,661.138l-17.864,68.418l73.808,4.495L473.852,661.138z"/>
				<path fill="#005E5F" d="M473.852,661.138l55.944,72.913l-12.223-75.41L473.852,661.138z"/>
				<path fill="#00545B" d="M517.573,658.641l12.223,75.41l96.844-43.448L517.573,658.641z"/>
				<path fill="#004F5D" d="M517.573,658.641l109.067,31.962l-15.514-45.945L517.573,658.641z"/>
				<path fill="#00425C" d="M611.126,644.658l15.514,45.945l79.92-68.917L611.126,644.658z"/>
				<path fill="#003B57" d="M706.56,621.685l-79.92,68.917l95.434,25.469L706.56,621.685z"/>
				<path fill="#003455" d="M706.56,621.685l15.514,94.387l-0.47-87.395L706.56,621.685z"/>
				<path fill="#002C52" d="M721.604,628.677l0.47,87.395l106.717-99.381L721.604,628.677z"/>
				<path fill="#00274B" d="M828.791,616.691l-106.717,99.381l88.852,29.465L828.791,616.691z"/>
				<path fill="#00274A" d="M828.791,616.691l-17.864,128.846l96.844-43.947L828.791,616.691z"/>
				<path fill="#00274D" d="M828.791,616.691l78.98,84.898l-8.462-57.931L828.791,616.691z"/>
				<path fill="#00274A" d="M899.308,643.659l8.462,57.931l55.004-62.925L899.308,643.659z"/>
				<path fill="#002747" d="M962.774,638.665L907.77,701.59l70.988-10.987L962.774,638.665z"/>
				<path fill="#002646" d="M962.774,638.665l15.984,51.938l62.055-20.975L962.774,638.665z"/>
				<path fill="#002642" d="M1040.814,669.628l-62.055,20.975l80.39,28.965L1040.814,669.628z"/>
				<path fill="#002640" d="M1040.814,669.628l18.335,49.94l36.199-52.937L1040.814,669.628z"/>
				<path fill="#00263D" d="M1095.347,666.631l-36.199,52.937l58.765,11.986L1095.347,666.631z"/>
				<path fill="#00263D" d="M1095.347,666.631l22.566,64.922l32.438-57.431L1095.347,666.631z"/>
				<path fill="#00263A" d="M1150.351,674.122l-32.438,57.431l49.833-11.986L1150.351,674.122z"/>
				<path fill="#00263A" d="M1150.351,674.122l17.394,45.445l62.996-55.434L1150.351,674.122z"/>
				<path fill="#002637" d="M1230.741,664.134l-62.996,55.434l53.593,20.975L1230.741,664.134z"/>
				<path fill="#00906F" d="M48.396,727.558l285.831,13.484l-130.693-20.475L48.396,727.558z"/>
				<path fill="#00987A" d="M48.396,727.558l155.139-6.992l-116.59-22.972L48.396,727.558z"/>
				<path fill="#008969" d="M203.535,720.567l130.693,20.475l-88.852-38.953L203.535,720.567z"/>
				<path fill="#004652" d="M389.701,742.54l421.225,2.996l-133.984-1.498L389.701,742.54z"/>
				<path fill="#005957" d="M389.701,742.54l287.242,1.498l-147.147-9.988L389.701,742.54z"/>
				<path fill="#00695D" d="M389.701,742.54l140.095-8.49l-73.808-4.495L389.701,742.54z"/>
				<path fill="#004956" d="M529.796,734.051l147.147,9.988l-50.303-53.436L529.796,734.051z"/>
				<path fill="#003D52" d="M626.64,690.603l50.303,53.436l45.131-27.966L626.64,690.603z"/>
				<path fill="#00314B" d="M676.943,744.039l133.984,1.498l-88.852-29.465L676.943,744.039z"/>
				<path fill="#00263B" d="M810.926,745.537l410.413-4.994l-103.426-8.989L810.926,745.537z"/>
				<path fill="#00263F" d="M810.926,745.537l306.987-13.983l-58.765-11.986L810.926,745.537z"/>
				<path fill="#002743" d="M810.926,745.537l248.222-25.969L907.77,701.59L810.926,745.537z"/>
				<path fill="#002642" d="M907.771,701.589l151.378,17.978l-80.39-28.965L907.771,701.589z"/>
				<path fill="#002636" d="M1117.913,731.554l103.426,8.989l-53.593-20.975L1117.913,731.554z"/>
			</g>
			<g opacity="0.2">
				<path fill="none" stroke="#FFFFFF" stroke-miterlimit="10" d="M-39.516-58l-11.753,635.738l10.343-359.569L-39.516-58z"/>
				<path fill="none" stroke="#FFFFFF" stroke-miterlimit="10" d="M-39.516-58l-1.41,276.169L-30.114,91.82L-39.516-58z"/>
				<path fill="none" stroke="#FFFFFF" stroke-miterlimit="10" d="M-39.516-58l9.402,149.82l5.641-72.413L-39.516-58z"/>
				<path fill="none" stroke="#FFFFFF" stroke-miterlimit="10" d="M-39.516-58l15.044,77.407l52.183-29.465L-39.516-58z"/>
				<path fill="none" stroke="#FFFFFF" stroke-miterlimit="10" d="M-39.516-58l67.227,47.943l108.597-8.989L-39.516-58z"/>
				<path fill="none" stroke="#FFFFFF" stroke-miterlimit="10" d="M-39.516-58l175.824,38.953l53.593-18.977L-39.516-58z"/>
				<path fill="none" stroke="#FFFFFF" stroke-miterlimit="10" d="M-39.516-58l229.417,19.976l49.362-4.994L-39.516-58z"/>
				<path fill="none" stroke="#FFFFFF" stroke-miterlimit="10" d="M-39.516-58l278.78,14.982l537.344-7.99L-39.516-58z"/>
				<path fill="none" stroke="#FFFFFF" stroke-miterlimit="10" d="M27.711-10.057l-52.183,29.465l81.8,35.957L27.711-10.057z"/>
				<path fill="none" stroke="#FFFFFF" stroke-miterlimit="10" d="M27.711-10.057l29.617,65.422l78.98-74.411L27.711-10.057z"/>
				<path fill="none" stroke="#FFFFFF" stroke-miterlimit="10" d="M136.308-19.047l-78.98,74.411l76.629,18.977L136.308-19.047z"/>
				<path fill="none" stroke="#FFFFFF" stroke-miterlimit="10" d="M136.308-19.047l-2.351,93.388l67.227-47.443L136.308-19.047z"/>
				<path fill="none" stroke="#FFFFFF" stroke-miterlimit="10" d="M136.308-19.047l64.876,45.945l-11.283-64.922L136.308-19.047z"/>
				<path fill="none" stroke="#FFFFFF" stroke-miterlimit="10" d="M189.901-38.024l11.283,64.922l38.08-69.916L189.901-38.024z"/>
				<path fill="none" stroke="#FFFFFF" stroke-miterlimit="10" d="M239.263-43.018l-38.08,69.916l42.311,46.944L239.263-43.018z"/>
				<path fill="none" stroke="#FFFFFF" stroke-miterlimit="10" d="M239.263-43.018l4.231,116.86l79.45-30.963L239.263-43.018z"/>
				<path fill="none" stroke="#FFFFFF" stroke-miterlimit="10" d="M239.263-43.018l83.681,85.897l-7.522-78.905L239.263-43.018z"/>
				<path fill="none" stroke="#FFFFFF" stroke-miterlimit="10" d="M239.263-43.018l76.159,6.992h128.812L239.263-43.018z"/>
				<path fill="none" stroke="#FFFFFF" stroke-miterlimit="10" d="M239.263-43.018l204.971,6.992l167.362-5.993L239.263-43.018z"/>
				<path fill="none" stroke="#FFFFFF" stroke-miterlimit="10" d="M239.263-43.018l372.333,0.999l165.011-8.989L239.263-43.018z"/>
				<path fill="none" stroke="#FFFFFF" stroke-miterlimit="10" d="M315.423-36.026l7.522,78.905l61.585-65.921L315.423-36.026z"/>
				<path fill="none" stroke="#FFFFFF" stroke-miterlimit="10" d="M315.423-36.026l69.107,12.984l59.705-12.984H315.423z"/>
				<path fill="none" stroke="#FFFFFF" stroke-miterlimit="10" d="M384.53-23.042l-61.585,65.921l92.143-24.471L384.53-23.042z"/>
				<path fill="none" stroke="#FFFFFF" stroke-miterlimit="10" d="M384.53-23.042l30.558,41.45l29.147-54.435L384.53-23.042z"/>
				<path fill="none" stroke="#FFFFFF" stroke-miterlimit="10" d="M444.235-36.026l-29.147,54.435l35.259,25.469L444.235-36.026z"/>
				<path fill="none" stroke="#FFFFFF" stroke-miterlimit="10" d="M444.235-36.026l6.112,79.904l59.705-11.486L444.235-36.026z"/>
				<path fill="none" stroke="#FFFFFF" stroke-miterlimit="10" d="M444.235-36.026l65.816,68.418l17.864-57.931L444.235-36.026z"/>
				<path fill="none" stroke="#FFFFFF" stroke-miterlimit="10" d="M444.235-36.026l83.681,10.487l83.681-16.48L444.235-36.026z"/>
				<path fill="none" stroke="#FFFFFF" stroke-miterlimit="10" d="M527.916-25.539l-17.864,57.931l89.322,41.95L527.916-25.539z"/>
				<path fill="none" stroke="#FFFFFF" stroke-miterlimit="10" d="M527.916-25.539l71.458,99.88L611.597-42.02L527.916-25.539z"/>
				<path fill="none" stroke="#FFFFFF" stroke-miterlimit="10" d="M611.596-42.019l-12.223,116.36l68.637-4.495L611.596-42.019z"/>
				<path fill="none" stroke="#FFFFFF" stroke-miterlimit="10" d="M611.596-42.019L668.01,69.847l20.215-113.864L611.596-42.019z"/>
				<path fill="none" stroke="#FFFFFF" stroke-miterlimit="10" d="M611.596-42.019l76.629-1.998l88.382-6.992L611.596-42.019z"/>
				<path fill="none" stroke="#FFFFFF" stroke-miterlimit="10" d="M688.226-44.017L668.011,69.847l56.414-1.498L688.226-44.017z"/>
				<path fill="none" stroke="#FFFFFF" stroke-miterlimit="10" d="M688.226-44.017l36.199,112.365l52.183-119.357L688.226-44.017z"
					/>
				<path fill="none" stroke="#FFFFFF" stroke-miterlimit="10" d="M776.608-51.008L724.425,68.349L833.492-9.558L776.608-51.008z"/>
				<path fill="none" stroke="#FFFFFF" stroke-miterlimit="10" d="M776.608-51.008l56.884,41.45L907.3-37.525L776.608-51.008z"/>
				<path fill="none" stroke="#FFFFFF" stroke-miterlimit="10" d="M776.608-51.008L907.3-37.525l113.768,0.999L776.608-51.008z"/>
				<path fill="none" stroke="#FFFFFF" stroke-miterlimit="10" d="M776.608-51.008l244.461,14.483l73.338-1.498L776.608-51.008z"/>
				<path fill="none" stroke="#FFFFFF" stroke-miterlimit="10" d="M833.492-9.558L724.425,68.349l115.179-19.976L833.492-9.558z"/>
				<path fill="none" stroke="#FFFFFF" stroke-miterlimit="10" d="M833.492-9.558l6.112,57.931l74.749-18.977L833.492-9.558z"/>
				<path fill="none" stroke="#FFFFFF" stroke-miterlimit="10" d="M833.492-9.558l80.86,38.953l-7.052-66.92L833.492-9.558z"/>
				<path fill="none" stroke="#FFFFFF" stroke-miterlimit="10" d="M907.3-37.525l7.052,66.92l25.856-48.941L907.3-37.525z"/>
				<path fill="none" stroke="#FFFFFF" stroke-miterlimit="10" d="M907.3-37.525l32.908,17.978l80.86-16.98L907.3-37.525z"/>
				<path fill="none" stroke="#FFFFFF" stroke-miterlimit="10" d="M940.209-19.546l-25.856,48.941l67.697,18.478L940.209-19.546z"/>
				<path fill="none" stroke="#FFFFFF" stroke-miterlimit="10" d="M940.209-19.546l41.84,67.419l39.02-84.399L940.209-19.546z"/>
				<path fill="none" stroke="#FFFFFF" stroke-miterlimit="10" d="M1021.069-36.526l-39.02,84.399l75.689,11.486L1021.069-36.526z"
					/>
				<path fill="none" stroke="#FFFFFF" stroke-miterlimit="10" d="M1021.069-36.526l36.669,95.885l36.669-97.383L1021.069-36.526z"
					/>
				<path fill="none" stroke="#FFFFFF" stroke-miterlimit="10" d="M1094.407-38.024l-36.669,97.383l61.585-5.493L1094.407-38.024z"
					/>
				<path fill="none" stroke="#FFFFFF" stroke-miterlimit="10" d="M1094.407-38.024l24.916,91.89l72.868-53.436L1094.407-38.024z"/>
				<path fill="none" stroke="#FFFFFF" stroke-miterlimit="10" d="M1094.407-38.024l97.784,38.454l26.797-0.999L1094.407-38.024z"/>
				<path fill="none" stroke="#FFFFFF" stroke-miterlimit="10" d="M1192.192,0.43l-72.868,53.436l60.175,3.995L1192.192,0.43z"/>
				<path fill="none" stroke="#FFFFFF" stroke-miterlimit="10" d="M1192.192,0.43l-12.693,57.431l39.49-58.43L1192.192,0.43z"/>
				<path fill="none" stroke="#FFFFFF" stroke-miterlimit="10" d="M1218.988-0.569l-39.49,58.43l62.055-32.461L1218.988-0.569z"/>
				<path fill="none" stroke="#FFFFFF" stroke-miterlimit="10" d="M-24.472,19.407l-5.641,72.413l87.442-36.456L-24.472,19.407z"/>
				<path fill="none" stroke="#FFFFFF" stroke-miterlimit="10" d="M57.328,55.364L-30.114,91.82l96.374,47.443L57.328,55.364z"/>
				<path fill="none" stroke="#FFFFFF" stroke-miterlimit="10" d="M57.328,55.364l8.932,83.899l67.697-64.922L57.328,55.364z"/>
				<path fill="none" stroke="#FFFFFF" stroke-miterlimit="10" d="M133.957,74.341L66.26,139.264l74.279-11.486L133.957,74.341z"/>
				<path fill="none" stroke="#FFFFFF" stroke-miterlimit="10" d="M133.957,74.341l6.582,53.436l63.936-11.486L133.957,74.341z"/>
				<path fill="none" stroke="#FFFFFF" stroke-miterlimit="10" d="M133.957,74.341l70.518,41.95l-3.291-89.393L133.957,74.341z"/>
				<path fill="none" stroke="#FFFFFF" stroke-miterlimit="10" d="M201.184,26.898l3.291,89.393l39.02-42.449L201.184,26.898z"/>
				<path fill="none" stroke="#FFFFFF" stroke-miterlimit="10" d="M243.495,73.842l-39.02,42.449l73.338-13.484L243.495,73.842z"/>
				<path fill="none" stroke="#FFFFFF" stroke-miterlimit="10" d="M243.495,73.842l34.319,28.965l45.131-59.928L243.495,73.842z"/>
				<path fill="none" stroke="#FFFFFF" stroke-miterlimit="10" d="M322.944,42.879l-45.131,59.928l26.327,16.48L322.944,42.879z"/>
				<path fill="none" stroke="#FFFFFF" stroke-miterlimit="10" d="M322.944,42.879l-18.805,76.408l68.167,20.475L322.944,42.879z"/>
				<path fill="none" stroke="#FFFFFF" stroke-miterlimit="10" d="M322.944,42.879l49.362,96.884l42.781-121.355L322.944,42.879z"/>
				<path fill="none" stroke="#FFFFFF" stroke-miterlimit="10" d="M415.087,18.408l-42.781,121.355l78.04-95.885L415.087,18.408z"/>
				<path fill="none" stroke="#FFFFFF" stroke-miterlimit="10" d="M450.346,43.878l-78.04,95.885l78.51-4.495L450.346,43.878z"/>
				<path fill="none" stroke="#FFFFFF" stroke-miterlimit="10" d="M450.346,43.878l0.47,91.39l59.235-102.877L450.346,43.878z"/>
				<path fill="none" stroke="#FFFFFF" stroke-miterlimit="10" d="M510.051,32.392l-59.235,102.877l102.016-31.962L510.051,32.392z"
					/>
				<path fill="none" stroke="#FFFFFF" stroke-miterlimit="10" d="M510.051,32.392l42.781,70.915l46.542-28.965L510.051,32.392z"/>
				<path fill="none" stroke="#FFFFFF" stroke-miterlimit="10" d="M599.373,74.341l-46.542,28.965l42.781,26.968L599.373,74.341z"/>
				<path fill="none" stroke="#FFFFFF" stroke-miterlimit="10" d="M599.373,74.341l-3.761,55.933l62.996-23.971L599.373,74.341z"/>
				<path fill="none" stroke="#FFFFFF" stroke-miterlimit="10" d="M599.373,74.341l59.235,31.962l9.402-36.456L599.373,74.341z"/>
				<path fill="none" stroke="#FFFFFF" stroke-miterlimit="10" d="M668.011,69.847l-9.402,36.456l65.816-37.954L668.011,69.847z"/>
				<path fill="none" stroke="#FFFFFF" stroke-miterlimit="10" d="M724.425,68.349l-65.816,37.954l94.023,34.459L724.425,68.349z"/>
				<path fill="none" stroke="#FFFFFF" stroke-miterlimit="10" d="M724.425,68.349l28.207,72.413l53.593-9.489L724.425,68.349z"/>
				<path fill="none" stroke="#FFFFFF" stroke-miterlimit="10" d="M724.425,68.349l81.8,62.925l33.378-82.901L724.425,68.349z"/>
				<path fill="none" stroke="#FFFFFF" stroke-miterlimit="10" d="M839.603,48.372l-33.378,82.901L907.3,119.287L839.603,48.372z"/>
				<path fill="none" stroke="#FFFFFF" stroke-miterlimit="10" d="M839.603,48.372l67.697,70.915l7.052-89.892L839.603,48.372z"/>
				<path fill="none" stroke="#FFFFFF" stroke-miterlimit="10" d="M914.352,29.395l-7.052,89.892l49.362-8.49L914.352,29.395z"/>
				<path fill="none" stroke="#FFFFFF" stroke-miterlimit="10" d="M914.352,29.395l42.311,81.402l25.386-62.925L914.352,29.395z"/>
				<path fill="none" stroke="#FFFFFF" stroke-miterlimit="10" d="M982.049,47.873l-25.386,62.925l97.314-7.491L982.049,47.873z"/>
				<path fill="none" stroke="#FFFFFF" stroke-miterlimit="10" d="M982.049,47.873l71.928,55.434l3.761-43.947L982.049,47.873z"/>
				<path fill="none" stroke="#FFFFFF" stroke-miterlimit="10" d="M1057.738,59.359l-3.761,43.947l65.346-49.441L1057.738,59.359z"
					/>
				<path fill="none" stroke="#FFFFFF" stroke-miterlimit="10" d="M1119.323,53.866l-65.346,49.441l69.577,13.484L1119.323,53.866z"
					/>
				<path fill="none" stroke="#FFFFFF" stroke-miterlimit="10" d="M1119.323,53.866l4.231,62.925l50.773-8.49L1119.323,53.866z"/>
				<path fill="none" stroke="#FFFFFF" stroke-miterlimit="10" d="M1119.323,53.866l55.004,54.435l5.171-50.44L1119.323,53.866z"/>
				<path fill="none" stroke="#FFFFFF" stroke-miterlimit="10" d="M1179.498,57.861l-5.171,50.44l72.398,27.467L1179.498,57.861z"/>
				<path fill="none" stroke="#FFFFFF" stroke-miterlimit="10" d="M1179.498,57.861l67.227,77.907L1241.554,25.4L1179.498,57.861z"
					/>
				<path fill="none" stroke="#FFFFFF" stroke-miterlimit="10" d="M-30.114,91.82l-10.813,126.349L66.26,139.264L-30.114,91.82z"/>
				<path fill="none" stroke="#FFFFFF" stroke-miterlimit="10" d="M66.26,139.264l-107.187,78.905l103.896,4.994L66.26,139.264z"/>
				<path fill="none" stroke="#FFFFFF" stroke-miterlimit="10" d="M66.26,139.264l-3.291,83.899l68.637-25.469L66.26,139.264z"/>
				<path fill="none" stroke="#FFFFFF" stroke-miterlimit="10" d="M66.26,139.264l65.346,58.43l8.932-69.916L66.26,139.264z"/>
				<path fill="none" stroke="#FFFFFF" stroke-miterlimit="10" d="M140.539,127.777l-8.932,69.916l61.585-12.485L140.539,127.777z"
					/>
				<path fill="none" stroke="#FFFFFF" stroke-miterlimit="10" d="M140.539,127.777l52.653,57.431l11.283-68.917L140.539,127.777z"
					/>
				<path fill="none" stroke="#FFFFFF" stroke-miterlimit="10" d="M204.475,116.291l-11.283,68.917l39.96,18.977L204.475,116.291z"
					/>
				<path fill="none" stroke="#FFFFFF" stroke-miterlimit="10" d="M204.475,116.291l28.677,87.895l44.661-101.378L204.475,116.291z"
					/>
				<path fill="none" stroke="#FFFFFF" stroke-miterlimit="10" d="M277.813,102.807l-44.661,101.378l78.98-25.469L277.813,102.807z"
					/>
				<path fill="none" stroke="#FFFFFF" stroke-miterlimit="10" d="M277.813,102.807l34.319,75.909l-7.992-59.429L277.813,102.807z"
					/>
				<path fill="none" stroke="#FFFFFF" stroke-miterlimit="10" d="M304.14,119.287l7.992,59.429l60.175-38.953L304.14,119.287z"/>
				<path fill="none" stroke="#FFFFFF" stroke-miterlimit="10" d="M372.307,139.763l-60.175,38.953l107.657-5.493L372.307,139.763z"
					/>
				<path fill="none" stroke="#FFFFFF" stroke-miterlimit="10" d="M372.307,139.763l47.482,33.46l31.028-37.954L372.307,139.763z"/>
				<path fill="none" stroke="#FFFFFF" stroke-miterlimit="10" d="M450.816,135.268l-31.028,37.954l52.653,14.483L450.816,135.268z"
					/>
				<path fill="none" stroke="#FFFFFF" stroke-miterlimit="10" d="M450.816,135.268l21.625,52.437l56.884-7.491L450.816,135.268z"/>
				<path fill="none" stroke="#FFFFFF" stroke-miterlimit="10" d="M450.816,135.268l78.51,44.946l23.506-76.908L450.816,135.268z"/>
				<path fill="none" stroke="#FFFFFF" stroke-miterlimit="10" d="M552.832,103.307l-23.506,76.908l66.287-49.94L552.832,103.307z"
					/>
				<path fill="none" stroke="#FFFFFF" stroke-miterlimit="10" d="M595.612,130.274l-66.287,49.94l94.023-14.483L595.612,130.274z"
					/>
				<path fill="none" stroke="#FFFFFF" stroke-miterlimit="10" d="M595.612,130.274l27.737,35.457l35.259-59.429L595.612,130.274z"
					/>
				<path fill="none" stroke="#FFFFFF" stroke-miterlimit="10" d="M658.608,106.303l-35.259,59.429l57.354,50.939L658.608,106.303z"
					/>
				<path fill="none" stroke="#FFFFFF" stroke-miterlimit="10" d="M658.608,106.303l22.096,110.368l71.928-75.909L658.608,106.303z"
					/>
				<path fill="none" stroke="#FFFFFF" stroke-miterlimit="10" d="M752.632,140.762l-71.928,75.909l72.398-13.484L752.632,140.762z"
					/>
				<path fill="none" stroke="#FFFFFF" stroke-miterlimit="10" d="M752.632,140.762l0.47,62.425l53.123-71.914L752.632,140.762z"/>
				<path fill="none" stroke="#FFFFFF" stroke-miterlimit="10" d="M806.225,131.273l-53.123,71.914l73.808-17.479L806.225,131.273z"
					/>
				<path fill="none" stroke="#FFFFFF" stroke-miterlimit="10" d="M806.225,131.273l20.685,54.435l80.39-66.42L806.225,131.273z"/>
				<path fill="none" stroke="#FFFFFF" stroke-miterlimit="10" d="M907.3,119.287l-80.39,66.42l77.569,2.497L907.3,119.287z"/>
				<path fill="none" stroke="#FFFFFF" stroke-miterlimit="10" d="M907.3,119.287l-2.821,68.917l40.43,10.987L907.3,119.287z"/>
				<path fill="none" stroke="#FFFFFF" stroke-miterlimit="10" d="M907.3,119.287l37.609,79.904l11.753-88.394L907.3,119.287z"/>
				<path fill="none" stroke="#FFFFFF" stroke-miterlimit="10" d="M956.663,110.798l-11.753,88.394l90.263-1.998L956.663,110.798z"
					/>
				<path fill="none" stroke="#FFFFFF" stroke-miterlimit="10" d="M956.663,110.798l78.51,86.396l18.805-93.887L956.663,110.798z"/>
				<path fill="none" stroke="#FFFFFF" stroke-miterlimit="10" d="M1053.977,103.307l-18.805,93.887l66.286,16.48L1053.977,103.307z
					"/>
				<path fill="none" stroke="#FFFFFF" stroke-miterlimit="10" d="M1053.977,103.307l47.482,110.368l22.096-96.884L1053.977,103.307
					z"/>
				<path fill="none" stroke="#FFFFFF" stroke-miterlimit="10" d="M1123.554,116.79l-22.096,96.884l55.944-43.947L1123.554,116.79z"
					/>
				<path fill="none" stroke="#FFFFFF" stroke-miterlimit="10" d="M1123.554,116.79l33.848,52.937l16.924-61.426L1123.554,116.79z"
					/>
				<path fill="none" stroke="#FFFFFF" stroke-miterlimit="10" d="M1174.327,108.301l-16.924,61.426l89.322-33.959L1174.327,108.301
					z"/>
				<path fill="none" stroke="#FFFFFF" stroke-miterlimit="10" d="M1246.725,135.768l-89.322,33.959l81.8,48.442L1246.725,135.768z"
					/>
				<path fill="none" stroke="#FFFFFF" stroke-miterlimit="10" d="M1246.725,135.768l-7.522,82.401l0.47,60.927L1246.725,135.768z"
					/>
				<path fill="none" stroke="#FFFFFF" stroke-miterlimit="10" d="M1246.725,135.768l-7.052,143.328l18.805,233.72L1246.725,135.768
					z"/>
				<path fill="none" stroke="#FFFFFF" stroke-miterlimit="10" d="M1246.725,135.768l11.753,377.048l7.522,67.919L1246.725,135.768z
					"/>
				<path fill="none" stroke="#FFFFFF" stroke-miterlimit="10" d="M-40.927,218.169L-51.27,577.738l13.163-293.149L-40.927,218.169z
					"/>
				<path fill="none" stroke="#FFFFFF" stroke-miterlimit="10" d="M-40.927,218.169l2.821,66.42l95.434-43.448L-40.927,218.169z"/>
				<path fill="none" stroke="#FFFFFF" stroke-miterlimit="10" d="M-40.927,218.169l98.255,22.972l5.641-17.978L-40.927,218.169z"/>
				<path fill="none" stroke="#FFFFFF" stroke-miterlimit="10" d="M62.969,223.163l-5.641,17.978l64.876,46.444L62.969,223.163z"/>
				<path fill="none" stroke="#FFFFFF" stroke-miterlimit="10" d="M62.969,223.163l59.235,64.423l9.402-89.892L62.969,223.163z"/>
				<path fill="none" stroke="#FFFFFF" stroke-miterlimit="10" d="M131.607,197.693l-9.402,89.892l87.912-38.454L131.607,197.693z"
					/>
				<path fill="none" stroke="#FFFFFF" stroke-miterlimit="10" d="M131.607,197.693l78.51,51.438l-16.924-63.923L131.607,197.693z"
					/>
				<path fill="none" stroke="#FFFFFF" stroke-miterlimit="10" d="M193.192,185.208l16.924,63.923l23.036-44.946L193.192,185.208z"
					/>
				<path fill="none" stroke="#FFFFFF" stroke-miterlimit="10" d="M233.152,204.186l-23.036,44.946l63.936,36.956L233.152,204.186z"
					/>
				<path fill="none" stroke="#FFFFFF" stroke-miterlimit="10" d="M233.152,204.186l40.9,81.902l35.259-44.447L233.152,204.186z"/>
				<path fill="none" stroke="#FFFFFF" stroke-miterlimit="10" d="M233.152,204.186l76.159,37.455l2.821-62.925L233.152,204.186z"/>
				<path fill="none" stroke="#FFFFFF" stroke-miterlimit="10" d="M312.132,178.716l-2.821,62.925l101.545,17.479L312.132,178.716z"
					/>
				<path fill="none" stroke="#FFFFFF" stroke-miterlimit="10" d="M312.132,178.716l98.725,80.404l8.932-85.897L312.132,178.716z"/>
				<path fill="none" stroke="#FFFFFF" stroke-miterlimit="10" d="M419.789,173.223l-8.932,85.897l36.199-9.988L419.789,173.223z"/>
				<path fill="none" stroke="#FFFFFF" stroke-miterlimit="10" d="M419.789,173.223l27.267,75.909l25.386-61.426L419.789,173.223z"
					/>
				<path fill="none" stroke="#FFFFFF" stroke-miterlimit="10" d="M472.442,187.705l-25.386,61.426l78.04,32.96L472.442,187.705z"/>
				<path fill="none" stroke="#FFFFFF" stroke-miterlimit="10" d="M472.442,187.705l52.653,94.387l4.231-101.878L472.442,187.705z"
					/>
				<path fill="none" stroke="#FFFFFF" stroke-miterlimit="10" d="M529.326,180.214l-4.231,101.878l98.255-5.993L529.326,180.214z"
					/>
				<path fill="none" stroke="#FFFFFF" stroke-miterlimit="10" d="M529.326,180.214l94.023,95.885V165.732L529.326,180.214z"/>
				<path fill="none" stroke="#FFFFFF" stroke-miterlimit="10" d="M623.349,165.732V276.1l57.354-59.429L623.349,165.732z"/>
				<path fill="none" stroke="#FFFFFF" stroke-miterlimit="10" d="M680.704,216.671L623.35,276.1l80.86-25.969L680.704,216.671z"/>
				<path fill="none" stroke="#FFFFFF" stroke-miterlimit="10" d="M680.704,216.671l23.506,33.46l48.892-46.944L680.704,216.671z"/>
				<path fill="none" stroke="#FFFFFF" stroke-miterlimit="10" d="M753.102,203.187l-48.892,46.944l38.08,32.461L753.102,203.187z"
					/>
				<path fill="none" stroke="#FFFFFF" stroke-miterlimit="10" d="M753.102,203.187l-10.813,79.405l65.816-14.483L753.102,203.187z"
					/>
				<path fill="none" stroke="#FFFFFF" stroke-miterlimit="10" d="M753.102,203.187l55.004,64.922l18.805-82.401L753.102,203.187z"
					/>
				<path fill="none" stroke="#FFFFFF" stroke-miterlimit="10" d="M826.91,185.708l-18.805,82.401l106.717,1.498L826.91,185.708z"/>
				<path fill="none" stroke="#FFFFFF" stroke-miterlimit="10" d="M826.91,185.708l87.912,83.899l-10.343-81.402L826.91,185.708z"/>
				<path fill="none" stroke="#FFFFFF" stroke-miterlimit="10" d="M904.48,188.205l10.343,81.402l30.088-70.416L904.48,188.205z"/>
				<path fill="none" stroke="#FFFFFF" stroke-miterlimit="10" d="M944.91,199.192l-30.088,70.416l45.601-23.971L944.91,199.192z"/>
				<path fill="none" stroke="#FFFFFF" stroke-miterlimit="10" d="M944.91,199.192l15.514,46.444l74.749-48.442L944.91,199.192z"/>
				<path fill="none" stroke="#FFFFFF" stroke-miterlimit="10" d="M1035.172,197.194l-74.749,48.442l89.322,27.966L1035.172,197.194
					z"/>
				<path fill="none" stroke="#FFFFFF" stroke-miterlimit="10" d="M1035.172,197.194l14.574,76.408l51.713-59.928L1035.172,197.194z
					"/>
				<path fill="none" stroke="#FFFFFF" stroke-miterlimit="10" d="M1101.459,213.674l-51.713,59.928l26.327,23.472L1101.459,213.674
					z"/>
				<path fill="none" stroke="#FFFFFF" stroke-miterlimit="10" d="M1101.459,213.674l-25.386,83.4l89.322-50.44L1101.459,213.674z"
					/>
				<path fill="none" stroke="#FFFFFF" stroke-miterlimit="10" d="M1101.459,213.674l63.936,32.96l-7.992-76.908L1101.459,213.674z"
					/>
				<path fill="none" stroke="#FFFFFF" stroke-miterlimit="10" d="M1157.403,169.727l7.992,76.908l73.808-28.466L1157.403,169.727z"
					/>
				<path fill="none" stroke="#FFFFFF" stroke-miterlimit="10" d="M1239.203,218.169l-73.808,28.466l74.279,32.461L1239.203,218.169
					z"/>
				<path fill="none" stroke="#FFFFFF" stroke-miterlimit="10" d="M-38.106,284.589l-13.163,293.149l20.215-204.255L-38.106,284.589
					z"/>
				<path fill="none" stroke="#FFFFFF" stroke-miterlimit="10" d="M-38.106,284.589l7.052,88.893l88.382-7.99L-38.106,284.589z"/>
				<path fill="none" stroke="#FFFFFF" stroke-miterlimit="10" d="M-38.106,284.589l95.434,80.903V241.141L-38.106,284.589z"/>
				<path fill="none" stroke="#FFFFFF" stroke-miterlimit="10" d="M57.328,241.141v124.351l64.876-77.907L57.328,241.141z"/>
				<path fill="none" stroke="#FFFFFF" stroke-miterlimit="10" d="M122.204,287.586l-64.876,77.907l64.876-18.977V287.586z"/>
				<path fill="none" stroke="#FFFFFF" stroke-miterlimit="10" d="M122.204,287.586v58.929l47.482,23.971L122.204,287.586z"/>
				<path fill="none" stroke="#FFFFFF" stroke-miterlimit="10" d="M122.204,287.586l47.482,82.901l40.43-121.355L122.204,287.586z"
					/>
				<path fill="none" stroke="#FFFFFF" stroke-miterlimit="10" d="M210.116,249.132l-40.43,121.355l89.322-21.974L210.116,249.132z"
					/>
				<path fill="none" stroke="#FFFFFF" stroke-miterlimit="10" d="M210.116,249.132l48.892,99.381l15.044-62.425L210.116,249.132z"
					/>
				<path fill="none" stroke="#FFFFFF" stroke-miterlimit="10" d="M274.052,286.088l-15.044,62.425l89.792,11.986L274.052,286.088z"
					/>
				<path fill="none" stroke="#FFFFFF" stroke-miterlimit="10" d="M274.052,286.088l74.749,74.411l-39.49-118.858L274.052,286.088z"
					/>
				<path fill="none" stroke="#FFFFFF" stroke-miterlimit="10" d="M309.311,241.641l39.49,118.858l62.056-101.378L309.311,241.641z"
					/>
				<path fill="none" stroke="#FFFFFF" stroke-miterlimit="10" d="M410.856,259.12L348.8,360.498l62.526-14.982L410.856,259.12z"/>
				<path fill="none" stroke="#FFFFFF" stroke-miterlimit="10" d="M410.856,259.12l0.47,86.396l35.729-11.986L410.856,259.12z"/>
				<path fill="none" stroke="#FFFFFF" stroke-miterlimit="10" d="M410.856,259.12l36.199,74.411v-84.399L410.856,259.12z"/>
				<path fill="none" stroke="#FFFFFF" stroke-miterlimit="10" d="M447.055,249.132v84.399l78.04-51.438L447.055,249.132z"/>
				<path fill="none" stroke="#FFFFFF" stroke-miterlimit="10" d="M525.095,282.092l-78.04,51.438l90.733,0.999L525.095,282.092z"/>
				<path fill="none" stroke="#FFFFFF" stroke-miterlimit="10" d="M525.095,282.092l12.693,52.437l85.561-58.43L525.095,282.092z"/>
				<path fill="none" stroke="#FFFFFF" stroke-miterlimit="10" d="M623.349,276.099l-85.561,58.43l59.235,12.984L623.349,276.099z"
					/>
				<path fill="none" stroke="#FFFFFF" stroke-miterlimit="10" d="M623.349,276.099l-26.327,71.414l58.765-2.996L623.349,276.099z"
					/>
				<path fill="none" stroke="#FFFFFF" stroke-miterlimit="10" d="M623.349,276.099l32.438,68.418l48.422-94.387L623.349,276.099z"
					/>
				<path fill="none" stroke="#FFFFFF" stroke-miterlimit="10" d="M704.21,250.131l-48.422,94.387l86.502-61.926L704.21,250.131z"/>
				<path fill="none" stroke="#FFFFFF" stroke-miterlimit="10" d="M742.289,282.592l-86.502,61.926l114.709-6.492L742.289,282.592z"
					/>
				<path fill="none" stroke="#FFFFFF" stroke-miterlimit="10" d="M742.289,282.592l28.207,55.434l37.609-69.916L742.289,282.592z"
					/>
				<path fill="none" stroke="#FFFFFF" stroke-miterlimit="10" d="M808.106,268.109l-37.609,69.916l21.625,15.481L808.106,268.109z"
					/>
				<path fill="none" stroke="#FFFFFF" stroke-miterlimit="10" d="M808.106,268.109l-15.984,85.398l104.836,16.98L808.106,268.109z"
					/>
				<path fill="none" stroke="#FFFFFF" stroke-miterlimit="10" d="M808.106,268.109l88.852,102.377l17.864-100.879L808.106,268.109z
					"/>
				<path fill="none" stroke="#FFFFFF" stroke-miterlimit="10" d="M914.822,269.607l-17.864,100.879l66.757-3.995L914.822,269.607z"
					/>
				<path fill="none" stroke="#FFFFFF" stroke-miterlimit="10" d="M914.822,269.607l48.892,96.884l-3.291-120.855L914.822,269.607z"
					/>
				<path fill="none" stroke="#FFFFFF" stroke-miterlimit="10" d="M960.424,245.636l3.291,120.855l69.577-28.965L960.424,245.636z"
					/>
				<path fill="none" stroke="#FFFFFF" stroke-miterlimit="10" d="M960.424,245.636l72.868,91.89l16.454-63.923L960.424,245.636z"/>
				<path fill="none" stroke="#FFFFFF" stroke-miterlimit="10" d="M1049.746,273.602l-16.454,63.923l42.781-40.452L1049.746,273.602
					z"/>
				<path fill="none" stroke="#FFFFFF" stroke-miterlimit="10" d="M1076.073,297.074l-42.781,40.452l81.33,12.485L1076.073,297.074z
					"/>
				<path fill="none" stroke="#FFFFFF" stroke-miterlimit="10" d="M1076.073,297.074l38.55,52.937l50.773-103.376L1076.073,297.074z
					"/>
				<path fill="none" stroke="#FFFFFF" stroke-miterlimit="10" d="M1165.395,246.635l-50.773,103.376l80.86,13.983L1165.395,246.635
					z"/>
				<path fill="none" stroke="#FFFFFF" stroke-miterlimit="10" d="M1165.395,246.635l30.088,117.359l23.506-10.987L1165.395,246.635
					z"/>
				<path fill="none" stroke="#FFFFFF" stroke-miterlimit="10" d="M1165.395,246.635l53.593,106.372l20.685-73.911L1165.395,246.635
					z"/>
				<path fill="none" stroke="#FFFFFF" stroke-miterlimit="10" d="M1239.673,279.096l-20.685,73.911l21.625,68.917L1239.673,279.096
					z"/>
				<path fill="none" stroke="#FFFFFF" stroke-miterlimit="10" d="M1239.673,279.096l0.94,142.829l17.865,90.891L1239.673,279.096z"
					/>
				<path fill="none" stroke="#FFFFFF" stroke-miterlimit="10" d="M-31.054,373.483l-20.215,204.255l19.275-101.378L-31.054,373.483
					z"/>
				<path fill="none" stroke="#FFFFFF" stroke-miterlimit="10" d="M-31.054,373.483l-0.94,102.877l9.402-82.901L-31.054,373.483z"/>
				<path fill="none" stroke="#FFFFFF" stroke-miterlimit="10" d="M-31.054,373.483l8.462,19.976l79.92-27.966L-31.054,373.483z"/>
				<path fill="none" stroke="#FFFFFF" stroke-miterlimit="10" d="M57.328,365.492l-79.92,27.966l56.414,31.962L57.328,365.492z"/>
				<path fill="none" stroke="#FFFFFF" stroke-miterlimit="10" d="M57.328,365.492L33.822,425.42l99.665-33.959L57.328,365.492z"/>
				<path fill="none" stroke="#FFFFFF" stroke-miterlimit="10" d="M57.328,365.492l76.159,25.969l-11.283-44.946L57.328,365.492z"/>
				<path fill="none" stroke="#FFFFFF" stroke-miterlimit="10" d="M122.204,346.515l11.283,44.946l36.199-20.975L122.204,346.515z"
					/>
				<path fill="none" stroke="#FFFFFF" stroke-miterlimit="10" d="M169.686,370.486l-36.199,20.975l63.466,39.952L169.686,370.486z"
					/>
				<path fill="none" stroke="#FFFFFF" stroke-miterlimit="10" d="M169.686,370.486l27.267,60.927l53.123-31.462L169.686,370.486z"
					/>
				<path fill="none" stroke="#FFFFFF" stroke-miterlimit="10" d="M169.686,370.486l80.39,29.465l8.932-51.438L169.686,370.486z"/>
				<path fill="none" stroke="#FFFFFF" stroke-miterlimit="10" d="M259.008,348.513l-8.932,51.438l89.792,12.984L259.008,348.513z"
					/>
				<path fill="none" stroke="#FFFFFF" stroke-miterlimit="10" d="M259.008,348.513l80.86,64.423l8.932-52.437L259.008,348.513z"/>
				<path fill="none" stroke="#FFFFFF" stroke-miterlimit="10" d="M348.801,360.498l-8.932,52.437l48.892,35.957L348.801,360.498z"
					/>
				<path fill="none" stroke="#FFFFFF" stroke-miterlimit="10" d="M348.801,360.498l39.96,88.394l22.566-103.376L348.801,360.498z"
					/>
				<path fill="none" stroke="#FFFFFF" stroke-miterlimit="10" d="M411.326,345.516L388.76,448.892l95.434-3.995L411.326,345.516z"
					/>
				<path fill="none" stroke="#FFFFFF" stroke-miterlimit="10" d="M411.326,345.516l72.868,99.381L447.055,333.53L411.326,345.516z"
					/>
				<path fill="none" stroke="#FFFFFF" stroke-miterlimit="10" d="M447.055,333.531l37.139,111.367l62.996-36.956L447.055,333.531z"
					/>
				<path fill="none" stroke="#FFFFFF" stroke-miterlimit="10" d="M447.055,333.531l100.135,74.411l-9.402-73.412L447.055,333.531z"
					/>
				<path fill="none" stroke="#FFFFFF" stroke-miterlimit="10" d="M537.788,334.529l9.402,73.412l49.832-60.428L537.788,334.529z"/>
				<path fill="none" stroke="#FFFFFF" stroke-miterlimit="10" d="M597.023,347.514l-49.832,60.428l40.9-2.497L597.023,347.514z"/>
				<path fill="none" stroke="#FFFFFF" stroke-miterlimit="10" d="M597.023,347.514l-8.932,57.931l67.697-60.927L597.023,347.514z"
					/>
				<path fill="none" stroke="#FFFFFF" stroke-miterlimit="10" d="M655.788,344.517l-67.697,60.927l100.605,40.951L655.788,344.517z
					"/>
				<path fill="none" stroke="#FFFFFF" stroke-miterlimit="10" d="M655.788,344.517l32.908,101.878l51.713-26.968L655.788,344.517z"
					/>
				<path fill="none" stroke="#FFFFFF" stroke-miterlimit="10" d="M655.788,344.517l84.621,74.91l30.088-81.402L655.788,344.517z"/>
				<path fill="none" stroke="#FFFFFF" stroke-miterlimit="10" d="M770.496,338.025l-30.088,81.402l51.713-65.921L770.496,338.025z"
					/>
				<path fill="none" stroke="#FFFFFF" stroke-miterlimit="10" d="M792.122,353.507l-51.713,65.921l89.792,2.996L792.122,353.507z"
					/>
				<path fill="none" stroke="#FFFFFF" stroke-miterlimit="10" d="M792.122,353.507l38.08,68.917l66.757-51.938L792.122,353.507z"/>
				<path fill="none" stroke="#FFFFFF" stroke-miterlimit="10" d="M896.958,370.486l-66.757,51.938l57.824-12.984L896.958,370.486z"
					/>
				<path fill="none" stroke="#FFFFFF" stroke-miterlimit="10" d="M896.958,370.486l-8.932,38.953l73.808,23.472L896.958,370.486z"
					/>
				<path fill="none" stroke="#FFFFFF" stroke-miterlimit="10" d="M896.958,370.486l64.876,62.425l1.88-66.42L896.958,370.486z"/>
				<path fill="none" stroke="#FFFFFF" stroke-miterlimit="10" d="M963.714,366.491l-1.88,66.42l46.542-10.987L963.714,366.491z"/>
				<path fill="none" stroke="#FFFFFF" stroke-miterlimit="10" d="M963.714,366.491l44.661,55.434l24.916-84.399L963.714,366.491z"
					/>
				<path fill="none" stroke="#FFFFFF" stroke-miterlimit="10" d="M1033.292,337.526l-24.916,84.399l106.247-71.914
					L1033.292,337.526z"/>
				<path fill="none" stroke="#FFFFFF" stroke-miterlimit="10" d="M1114.622,350.011l-106.247,71.914l117.529,6.992
					L1114.622,350.011z"/>
				<path fill="none" stroke="#FFFFFF" stroke-miterlimit="10" d="M1114.622,350.011l11.283,78.905l65.816-33.46L1114.622,350.011z"
					/>
				<path fill="none" stroke="#FFFFFF" stroke-miterlimit="10" d="M1114.622,350.011l77.099,45.446l3.761-31.462L1114.622,350.011z"
					/>
				<path fill="none" stroke="#FFFFFF" stroke-miterlimit="10" d="M1195.482,363.994l-3.761,31.462l27.267-42.449L1195.482,363.994z
					"/>
				<path fill="none" stroke="#FFFFFF" stroke-miterlimit="10" d="M1218.988,353.007l-27.267,42.449l48.892,26.468L1218.988,353.007
					z"/>
				<path fill="none" stroke="#FFFFFF" stroke-miterlimit="10" d="M-22.592,393.459l-9.402,82.901l65.816-50.939L-22.592,393.459z"
					/>
				<path fill="none" stroke="#FFFFFF" stroke-miterlimit="10" d="M33.822,425.421l-65.816,50.939l100.605,41.95L33.822,425.421z"/>
				<path fill="none" stroke="#FFFFFF" stroke-miterlimit="10" d="M33.822,425.421l34.789,92.889l61.115-8.989L33.822,425.421z"/>
				<path fill="none" stroke="#FFFFFF" stroke-miterlimit="10" d="M33.822,425.421l95.904,83.899l3.761-117.859L33.822,425.421z"/>
				<path fill="none" stroke="#FFFFFF" stroke-miterlimit="10" d="M133.487,391.461l-3.761,117.859l67.227-77.907L133.487,391.461z"
					/>
				<path fill="none" stroke="#FFFFFF" stroke-miterlimit="10" d="M196.953,431.413l-67.227,77.907l71.928-25.969L196.953,431.413z"
					/>
				<path fill="none" stroke="#FFFFFF" stroke-miterlimit="10" d="M196.953,431.413l4.701,51.938l48.422-83.4L196.953,431.413z"/>
				<path fill="none" stroke="#FFFFFF" stroke-miterlimit="10" d="M250.076,399.951l-48.422,83.4l31.968,22.473L250.076,399.951z"/>
				<path fill="none" stroke="#FFFFFF" stroke-miterlimit="10" d="M250.076,399.951l-16.454,105.873l96.374-21.474L250.076,399.951z
					"/>
				<path fill="none" stroke="#FFFFFF" stroke-miterlimit="10" d="M250.076,399.951l79.92,84.399l9.872-71.414L250.076,399.951z"/>
				<path fill="none" stroke="#FFFFFF" stroke-miterlimit="10" d="M339.869,412.935l-9.872,71.414l58.765-35.457L339.869,412.935z"
					/>
				<path fill="none" stroke="#FFFFFF" stroke-miterlimit="10" d="M388.761,448.892l-58.765,35.457l56.414,31.962L388.761,448.892z"
					/>
				<path fill="none" stroke="#FFFFFF" stroke-miterlimit="10" d="M388.761,448.892l-2.351,67.419l74.749-9.489L388.761,448.892z"/>
				<path fill="none" stroke="#FFFFFF" stroke-miterlimit="10" d="M388.761,448.892l72.398,57.931l23.036-61.926L388.761,448.892z"
					/>
				<path fill="none" stroke="#FFFFFF" stroke-miterlimit="10" d="M484.195,444.897l-23.036,61.926l59.705,5.993L484.195,444.897z"
					/>
				<path fill="none" stroke="#FFFFFF" stroke-miterlimit="10" d="M484.195,444.897l36.669,67.919l26.327-104.874L484.195,444.897z"
					/>
				<path fill="none" stroke="#FFFFFF" stroke-miterlimit="10" d="M547.19,407.941l-26.327,104.874l90.733-39.453L547.19,407.941z"
					/>
				<path fill="none" stroke="#FFFFFF" stroke-miterlimit="10" d="M547.19,407.941l64.406,65.422l-23.506-67.919L547.19,407.941z"/>
				<path fill="none" stroke="#FFFFFF" stroke-miterlimit="10" d="M588.091,405.444l23.506,67.919l77.099-26.968L588.091,405.444z"
					/>
				<path fill="none" stroke="#FFFFFF" stroke-miterlimit="10" d="M688.696,446.395l-77.099,26.968l65.346-0.499L688.696,446.395z"
					/>
				<path fill="none" stroke="#FFFFFF" stroke-miterlimit="10" d="M688.696,446.395l-11.753,26.468l66.287,14.982L688.696,446.395z"
					/>
				<path fill="none" stroke="#FFFFFF" stroke-miterlimit="10" d="M688.696,446.395l54.534,41.45l-2.821-68.418L688.696,446.395z"/>
				<path fill="none" stroke="#FFFFFF" stroke-miterlimit="10" d="M740.409,419.428l2.821,68.418l79.45,0.999L740.409,419.428z"/>
				<path fill="none" stroke="#FFFFFF" stroke-miterlimit="10" d="M740.409,419.428l82.271,69.417l7.522-66.42L740.409,419.428z"/>
				<path fill="none" stroke="#FFFFFF" stroke-miterlimit="10" d="M830.201,422.424l-7.522,66.42l70.518-5.993L830.201,422.424z"/>
				<path fill="none" stroke="#FFFFFF" stroke-miterlimit="10" d="M830.201,422.424l62.996,60.428l-5.171-73.412L830.201,422.424z"
					/>
				<path fill="none" stroke="#FFFFFF" stroke-miterlimit="10" d="M888.026,409.44l5.171,73.412l68.637-49.94L888.026,409.44z"/>
				<path fill="none" stroke="#FFFFFF" stroke-miterlimit="10" d="M961.834,432.912l-68.637,49.94l55.004,12.485L961.834,432.912z"
					/>
				<path fill="none" stroke="#FFFFFF" stroke-miterlimit="10" d="M961.834,432.912l-13.633,62.425l63.936,21.974L961.834,432.912z"
					/>
				<path fill="none" stroke="#FFFFFF" stroke-miterlimit="10" d="M961.834,432.912l50.303,84.399l-3.761-95.386L961.834,432.912z"
					/>
				<path fill="none" stroke="#FFFFFF" stroke-miterlimit="10" d="M1008.376,421.925l3.761,95.386l75.219-18.478L1008.376,421.925z"
					/>
				<path fill="none" stroke="#FFFFFF" stroke-miterlimit="10" d="M1008.376,421.925l78.98,76.908l38.55-69.916L1008.376,421.925z"
					/>
				<path fill="none" stroke="#FFFFFF" stroke-miterlimit="10" d="M1125.905,428.916l-38.55,69.916l108.127-12.485L1125.905,428.916
					z"/>
				<path fill="none" stroke="#FFFFFF" stroke-miterlimit="10" d="M1125.905,428.916l69.577,57.431l-3.761-90.891L1125.905,428.916z
					"/>
				<path fill="none" stroke="#FFFFFF" stroke-miterlimit="10" d="M1191.721,395.456l3.761,90.891l45.131-64.423L1191.721,395.456z"
					/>
				<path fill="none" stroke="#FFFFFF" stroke-miterlimit="10" d="M1240.614,421.925l-45.131,64.423l62.996,26.468L1240.614,421.925
					z"/>
				<path fill="none" stroke="#FFFFFF" stroke-miterlimit="10" d="M-31.994,476.359l-19.275,101.378l95.434,10.987L-31.994,476.359z
					"/>
				<path fill="none" stroke="#FFFFFF" stroke-miterlimit="10" d="M-31.994,476.359l76.159,112.365l24.446-70.416L-31.994,476.359z"
					/>
				<path fill="none" stroke="#FFFFFF" stroke-miterlimit="10" d="M68.611,518.309l-24.446,70.416l72.868-27.966L68.611,518.309z"/>
				<path fill="none" stroke="#FFFFFF" stroke-miterlimit="10" d="M68.611,518.309l48.422,42.449l12.693-51.438L68.611,518.309z"/>
				<path fill="none" stroke="#FFFFFF" stroke-miterlimit="10" d="M129.726,509.32l-12.693,51.438l74.749-10.987L129.726,509.32z"/>
				<path fill="none" stroke="#FFFFFF" stroke-miterlimit="10" d="M129.726,509.32l62.056,40.452l9.872-66.42L129.726,509.32z"/>
				<path fill="none" stroke="#FFFFFF" stroke-miterlimit="10" d="M201.654,483.351l-9.872,66.42l41.84-43.947L201.654,483.351z"/>
				<path fill="none" stroke="#FFFFFF" stroke-miterlimit="10" d="M233.622,505.824l-41.84,43.947l71.928,1.998L233.622,505.824z"/>
				<path fill="none" stroke="#FFFFFF" stroke-miterlimit="10" d="M233.622,505.824l30.088,45.945l66.287-67.419L233.622,505.824z"
					/>
				<path fill="none" stroke="#FFFFFF" stroke-miterlimit="10" d="M329.996,484.35l-66.287,67.419l41.84,38.953L329.996,484.35z"/>
				<path fill="none" stroke="#FFFFFF" stroke-miterlimit="10" d="M329.996,484.35L305.55,590.722l75.219-35.957L329.996,484.35z"/>
				<path fill="none" stroke="#FFFFFF" stroke-miterlimit="10" d="M329.996,484.35l50.773,70.416l5.641-38.454L329.996,484.35z"/>
				<path fill="none" stroke="#FFFFFF" stroke-miterlimit="10" d="M386.41,516.312l-5.641,38.454l80.39-47.943L386.41,516.312z"/>
				<path fill="none" stroke="#FFFFFF" stroke-miterlimit="10" d="M461.159,506.823l-80.39,47.943l101.075,27.467L461.159,506.823z"
					/>
				<path fill="none" stroke="#FFFFFF" stroke-miterlimit="10" d="M461.159,506.823l20.685,75.41l39.02-69.417L461.159,506.823z"/>
				<path fill="none" stroke="#FFFFFF" stroke-miterlimit="10" d="M520.864,512.816l-39.02,69.417l42.311-2.996L520.864,512.816z"/>
				<path fill="none" stroke="#FFFFFF" stroke-miterlimit="10" d="M520.864,512.816l3.291,66.42l66.287,18.977L520.864,512.816z"/>
				<path fill="none" stroke="#FFFFFF" stroke-miterlimit="10" d="M520.864,512.816l69.577,85.398l21.155-124.85L520.864,512.816z"
					/>
				<path fill="none" stroke="#FFFFFF" stroke-miterlimit="10" d="M611.596,473.363l-21.155,124.85l75.219-31.962L611.596,473.363z"
					/>
				<path fill="none" stroke="#FFFFFF" stroke-miterlimit="10" d="M611.596,473.363l54.064,92.889l11.283-93.388L611.596,473.363z"
					/>
				<path fill="none" stroke="#FFFFFF" stroke-miterlimit="10" d="M676.943,472.864l-11.283,93.388l77.569-78.406L676.943,472.864z"
					/>
				<path fill="none" stroke="#FFFFFF" stroke-miterlimit="10" d="M743.229,487.846l-77.569,78.406l64.406,20.475L743.229,487.846z"
					/>
				<path fill="none" stroke="#FFFFFF" stroke-miterlimit="10" d="M743.229,487.846l-13.163,98.881l62.996,4.495L743.229,487.846z"
					/>
				<path fill="none" stroke="#FFFFFF" stroke-miterlimit="10" d="M743.229,487.846l49.832,103.376l29.617-102.377L743.229,487.846z
					"/>
				<path fill="none" stroke="#FFFFFF" stroke-miterlimit="10" d="M822.679,488.844l-29.617,102.377l35.729,25.469L822.679,488.844z
					"/>
				<path fill="none" stroke="#FFFFFF" stroke-miterlimit="10" d="M822.679,488.844l6.112,127.847l86.502-19.976L822.679,488.844z"
					/>
				<path fill="none" stroke="#FFFFFF" stroke-miterlimit="10" d="M822.679,488.844l92.613,107.871l-22.096-113.863L822.679,488.844
					z"/>
				<path fill="none" stroke="#FFFFFF" stroke-miterlimit="10" d="M893.197,482.852l22.096,113.863l31.968-46.944L893.197,482.852z"
					/>
				<path fill="none" stroke="#FFFFFF" stroke-miterlimit="10" d="M893.197,482.852l54.064,66.92l0.94-54.435L893.197,482.852z"/>
				<path fill="none" stroke="#FFFFFF" stroke-miterlimit="10" d="M948.201,495.337l-0.94,54.435l64.876-32.461L948.201,495.337z"/>
				<path fill="none" stroke="#FFFFFF" stroke-miterlimit="10" d="M1012.137,517.31l-64.876,32.461l106.247,21.474L1012.137,517.31z
					"/>
				<path fill="none" stroke="#FFFFFF" stroke-miterlimit="10" d="M1012.137,517.31l41.37,53.935l33.848-72.413L1012.137,517.31z"/>
				<path fill="none" stroke="#FFFFFF" stroke-miterlimit="10" d="M1087.355,498.832l-33.848,72.413l39.49-20.475L1087.355,498.832z
					"/>
				<path fill="none" stroke="#FFFFFF" stroke-miterlimit="10" d="M1087.355,498.832l5.641,51.938l79.92,11.486L1087.355,498.832z"
					/>
				<path fill="none" stroke="#FFFFFF" stroke-miterlimit="10" d="M1087.355,498.832l85.561,63.424l22.566-75.909L1087.355,498.832z
					"/>
				<path fill="none" stroke="#FFFFFF" stroke-miterlimit="10" d="M1195.482,486.347l-22.566,75.909l85.561-49.441L1195.482,486.347
					z"/>
				<path fill="none" stroke="#FFFFFF" stroke-miterlimit="10" d="M1258.478,512.816l-85.561,49.441L1266,580.734L1258.478,512.816z
					"/>
				<path fill="none" stroke="#FFFFFF" stroke-miterlimit="10" d="M-51.269,577.738l27.267,120.855l12.693-48.442L-51.269,577.738z"
					/>
				<path fill="none" stroke="#FFFFFF" stroke-miterlimit="10" d="M-51.269,577.738l39.96,72.413l55.474-61.426L-51.269,577.738z"/>
				<path fill="none" stroke="#FFFFFF" stroke-miterlimit="10" d="M44.165,588.725l-55.474,61.426l58.295,1.498L44.165,588.725z"/>
				<path fill="none" stroke="#FFFFFF" stroke-miterlimit="10" d="M44.165,588.725l2.821,62.925l60.645-28.965L44.165,588.725z"/>
				<path fill="none" stroke="#FFFFFF" stroke-miterlimit="10" d="M44.165,588.725l63.466,33.959l9.402-61.926L44.165,588.725z"/>
				<path fill="none" stroke="#FFFFFF" stroke-miterlimit="10" d="M117.033,560.758l-9.402,61.926l90.263,15.481L117.033,560.758z"
					/>
				<path fill="none" stroke="#FFFFFF" stroke-miterlimit="10" d="M117.033,560.758l80.86,77.407l-6.112-88.394L117.033,560.758z"/>
				<path fill="none" stroke="#FFFFFF" stroke-miterlimit="10" d="M191.782,549.771l6.112,88.394l55.004-3.496L191.782,549.771z"/>
				<path fill="none" stroke="#FFFFFF" stroke-miterlimit="10" d="M191.782,549.771l61.115,84.898l10.813-82.901L191.782,549.771z"
					/>
				<path fill="none" stroke="#FFFFFF" stroke-miterlimit="10" d="M263.71,551.769l-10.813,82.901l52.653-43.947L263.71,551.769z"/>
				<path fill="none" stroke="#FFFFFF" stroke-miterlimit="10" d="M305.55,590.722l-52.653,43.947l94.964-16.98L305.55,590.722z"/>
				<path fill="none" stroke="#FFFFFF" stroke-miterlimit="10" d="M305.55,590.722l42.311,26.968l32.908-62.925L305.55,590.722z"/>
				<path fill="none" stroke="#FFFFFF" stroke-miterlimit="10" d="M380.769,554.765l-32.908,62.925l38.55,39.453L380.769,554.765z"
					/>
				<path fill="none" stroke="#FFFFFF" stroke-miterlimit="10" d="M380.769,554.765l5.641,102.377l95.434-74.91L380.769,554.765z"/>
				<path fill="none" stroke="#FFFFFF" stroke-miterlimit="10" d="M481.844,582.233l-95.434,74.91l87.442,3.995L481.844,582.233z"/>
				<path fill="none" stroke="#FFFFFF" stroke-miterlimit="10" d="M481.844,582.233l-7.992,78.905l43.721-2.497L481.844,582.233z"/>
				<path fill="none" stroke="#FFFFFF" stroke-miterlimit="10" d="M481.844,582.233l35.729,76.408l6.582-79.405L481.844,582.233z"/>
				<path fill="none" stroke="#FFFFFF" stroke-miterlimit="10" d="M524.155,579.236l-6.582,79.405l72.868-60.428L524.155,579.236z"
					/>
				<path fill="none" stroke="#FFFFFF" stroke-miterlimit="10" d="M590.441,598.213l-72.868,60.428l93.553-13.983L590.441,598.213z"
					/>
				<path fill="none" stroke="#FFFFFF" stroke-miterlimit="10" d="M590.441,598.213l20.685,46.444l54.534-78.406L590.441,598.213z"
					/>
				<path fill="none" stroke="#FFFFFF" stroke-miterlimit="10" d="M665.66,566.252l-54.534,78.406l95.434-22.972L665.66,566.252z"/>
				<path fill="none" stroke="#FFFFFF" stroke-miterlimit="10" d="M665.66,566.252l40.9,55.434l23.506-34.958L665.66,566.252z"/>
				<path fill="none" stroke="#FFFFFF" stroke-miterlimit="10" d="M730.066,586.727l-23.506,34.958l15.044,6.992L730.066,586.727z"
					/>
				<path fill="none" stroke="#FFFFFF" stroke-miterlimit="10" d="M730.066,586.727l-8.462,41.95l71.458-37.455L730.066,586.727z"/>
				<path fill="none" stroke="#FFFFFF" stroke-miterlimit="10" d="M793.062,591.222l-71.458,37.455l107.187-11.986L793.062,591.222z
					"/>
				<path fill="none" stroke="#FFFFFF" stroke-miterlimit="10" d="M915.292,596.715l-86.502,19.976l70.518,26.968L915.292,596.715z"
					/>
				<path fill="none" stroke="#FFFFFF" stroke-miterlimit="10" d="M915.292,596.715l-15.984,46.944l63.466-4.994L915.292,596.715z"
					/>
				<path fill="none" stroke="#FFFFFF" stroke-miterlimit="10" d="M915.292,596.715l47.482,41.95l-15.514-88.893L915.292,596.715z"
					/>
				<path fill="none" stroke="#FFFFFF" stroke-miterlimit="10" d="M947.26,549.771l15.514,88.893l90.733-67.419L947.26,549.771z"/>
				<path fill="none" stroke="#FFFFFF" stroke-miterlimit="10" d="M1053.507,571.246l-90.733,67.419l78.039,30.963L1053.507,571.246
					z"/>
				<path fill="none" stroke="#FFFFFF" stroke-miterlimit="10" d="M1053.507,571.246l-12.693,98.382l54.534-2.996L1053.507,571.246z
					"/>
				<path fill="none" stroke="#FFFFFF" stroke-miterlimit="10" d="M1053.507,571.246l41.84,95.386l-2.351-115.861L1053.507,571.246z
					"/>
				<path fill="none" stroke="#FFFFFF" stroke-miterlimit="10" d="M1092.997,550.77l2.351,115.861l77.569-104.375L1092.997,550.77z"
					/>
				<path fill="none" stroke="#FFFFFF" stroke-miterlimit="10" d="M1172.917,562.256l-77.569,104.375l55.004,7.491L1172.917,562.256
					z"/>
				<path fill="none" stroke="#FFFFFF" stroke-miterlimit="10" d="M1172.917,562.256l-22.566,111.866l80.39-9.988L1172.917,562.256z
					"/>
				<path fill="none" stroke="#FFFFFF" stroke-miterlimit="10" d="M1172.917,562.256l57.824,101.878l35.259-83.4L1172.917,562.256z"
					/>
				<path fill="none" stroke="#FFFFFF" stroke-miterlimit="10" d="M1266,580.734l-35.259,83.4l-9.402,76.408L1266,580.734z"/>
				<path fill="none" stroke="#FFFFFF" stroke-miterlimit="10" d="M-11.309,650.151l-12.693,48.442l70.988-46.944L-11.309,650.151z"
					/>
				<path fill="none" stroke="#FFFFFF" stroke-miterlimit="10" d="M46.985,651.649l-70.988,46.944l72.398,28.965L46.985,651.649z"/>
				<path fill="none" stroke="#FFFFFF" stroke-miterlimit="10" d="M46.985,651.649l1.41,75.909l38.55-29.964L46.985,651.649z"/>
				<path fill="none" stroke="#FFFFFF" stroke-miterlimit="10" d="M46.985,651.649l39.96,45.945l20.685-74.91L46.985,651.649z"/>
				<path fill="none" stroke="#FFFFFF" stroke-miterlimit="10" d="M107.631,622.684l-20.685,74.91l110.948-59.429L107.631,622.684z"
					/>
				<path fill="none" stroke="#FFFFFF" stroke-miterlimit="10" d="M197.893,638.165L86.945,697.594l116.589,22.972L197.893,638.165z
					"/>
				<path fill="none" stroke="#FFFFFF" stroke-miterlimit="10" d="M197.893,638.165l5.641,82.401l41.84-18.478L197.893,638.165z"/>
				<path fill="none" stroke="#FFFFFF" stroke-miterlimit="10" d="M197.893,638.165l47.482,63.923l7.522-67.419L197.893,638.165z"/>
				<path fill="none" stroke="#FFFFFF" stroke-miterlimit="10" d="M252.897,634.67l-7.522,67.419l88.852,38.953L252.897,634.67z"/>
				<path fill="none" stroke="#FFFFFF" stroke-miterlimit="10" d="M252.897,634.67l81.33,106.372L347.86,617.69L252.897,634.67z"/>
				<path fill="none" stroke="#FFFFFF" stroke-miterlimit="10" d="M347.861,617.69l-13.633,123.352l52.183-83.899L347.861,617.69z"
					/>
				<path fill="none" stroke="#FFFFFF" stroke-miterlimit="10" d="M386.41,657.143l-52.183,83.899l55.474,1.498L386.41,657.143z"/>
				<path fill="none" stroke="#FFFFFF" stroke-miterlimit="10" d="M386.41,657.143l3.291,85.398l66.287-12.984L386.41,657.143z"/>
				<path fill="none" stroke="#FFFFFF" stroke-miterlimit="10" d="M386.41,657.143l69.577,72.413l17.864-68.418L386.41,657.143z"/>
				<path fill="none" stroke="#FFFFFF" stroke-miterlimit="10" d="M473.852,661.138l-17.864,68.418l73.808,4.495L473.852,661.138z"
					/>
				<path fill="none" stroke="#FFFFFF" stroke-miterlimit="10" d="M473.852,661.138l55.944,72.913l-12.223-75.41L473.852,661.138z"
					/>
				<path fill="none" stroke="#FFFFFF" stroke-miterlimit="10" d="M517.573,658.641l12.223,75.41l96.844-43.448L517.573,658.641z"/>
				<path fill="none" stroke="#FFFFFF" stroke-miterlimit="10" d="M517.573,658.641l109.067,31.962l-15.514-45.945L517.573,658.641z
					"/>
				<path fill="none" stroke="#FFFFFF" stroke-miterlimit="10" d="M611.126,644.658l15.514,45.945l79.92-68.917L611.126,644.658z"/>
				<path fill="none" stroke="#FFFFFF" stroke-miterlimit="10" d="M706.56,621.685l-79.92,68.917l95.434,25.469L706.56,621.685z"/>
				<path fill="none" stroke="#FFFFFF" stroke-miterlimit="10" d="M706.56,621.685l15.514,94.387l-0.47-87.395L706.56,621.685z"/>
				<path fill="none" stroke="#FFFFFF" stroke-miterlimit="10" d="M721.604,628.677l0.47,87.395l106.717-99.381L721.604,628.677z"/>
				<path fill="none" stroke="#FFFFFF" stroke-miterlimit="10" d="M828.791,616.691l-106.717,99.381l88.852,29.465L828.791,616.691z
					"/>
				<path fill="none" stroke="#FFFFFF" stroke-miterlimit="10" d="M828.791,616.691l-17.864,128.846l96.844-43.947L828.791,616.691z
					"/>
				<path fill="none" stroke="#FFFFFF" stroke-miterlimit="10" d="M828.791,616.691l78.98,84.898l-8.462-57.931L828.791,616.691z"/>
				<path fill="none" stroke="#FFFFFF" stroke-miterlimit="10" d="M899.308,643.659l8.462,57.931l55.004-62.925L899.308,643.659z"/>
				<path fill="none" stroke="#FFFFFF" stroke-miterlimit="10" d="M962.774,638.665L907.77,701.59l70.988-10.987L962.774,638.665z"
					/>
				<path fill="none" stroke="#FFFFFF" stroke-miterlimit="10" d="M962.774,638.665l15.984,51.938l62.055-20.975L962.774,638.665z"
					/>
				<path fill="none" stroke="#FFFFFF" stroke-miterlimit="10" d="M1040.814,669.628l-62.055,20.975l80.39,28.965L1040.814,669.628z
					"/>
				<path fill="none" stroke="#FFFFFF" stroke-miterlimit="10" d="M1040.814,669.628l18.335,49.94l36.199-52.937L1040.814,669.628z"
					/>
				<path fill="none" stroke="#FFFFFF" stroke-miterlimit="10" d="M1095.347,666.631l-36.199,52.937l58.765,11.986L1095.347,666.631
					z"/>
				<path fill="none" stroke="#FFFFFF" stroke-miterlimit="10" d="M1095.347,666.631l22.566,64.922l32.438-57.431L1095.347,666.631z
					"/>
				<path fill="none" stroke="#FFFFFF" stroke-miterlimit="10" d="M1150.351,674.122l-32.438,57.431l49.833-11.986L1150.351,674.122
					z"/>
				<path fill="none" stroke="#FFFFFF" stroke-miterlimit="10" d="M1150.351,674.122l17.394,45.445l62.996-55.434L1150.351,674.122z
					"/>
				<path fill="none" stroke="#FFFFFF" stroke-miterlimit="10" d="M1230.741,664.134l-62.996,55.434l53.593,20.975L1230.741,664.134
					z"/>
				<path fill="none" stroke="#FFFFFF" stroke-miterlimit="10" d="M48.396,727.558l285.831,13.484l-130.693-20.475L48.396,727.558z"
					/>
				<path fill="none" stroke="#FFFFFF" stroke-miterlimit="10" d="M48.396,727.558l155.139-6.992l-116.59-22.972L48.396,727.558z"/>
				<path fill="none" stroke="#FFFFFF" stroke-miterlimit="10" d="M203.535,720.567l130.693,20.475l-88.852-38.953L203.535,720.567z
					"/>
				<path fill="none" stroke="#FFFFFF" stroke-miterlimit="10" d="M389.701,742.54l421.225,2.996l-133.984-1.498L389.701,742.54z"/>
				<path fill="none" stroke="#FFFFFF" stroke-miterlimit="10" d="M389.701,742.54l287.242,1.498l-147.147-9.988L389.701,742.54z"/>
				<path fill="none" stroke="#FFFFFF" stroke-miterlimit="10" d="M389.701,742.54l140.095-8.49l-73.808-4.495L389.701,742.54z"/>
				<path fill="none" stroke="#FFFFFF" stroke-miterlimit="10" d="M529.796,734.051l147.147,9.988l-50.303-53.436L529.796,734.051z"
					/>
				<path fill="none" stroke="#FFFFFF" stroke-miterlimit="10" d="M626.64,690.603l50.303,53.436l45.131-27.966L626.64,690.603z"/>
				<path fill="none" stroke="#FFFFFF" stroke-miterlimit="10" d="M676.943,744.039l133.984,1.498l-88.852-29.465L676.943,744.039z"
					/>
				<path fill="none" stroke="#FFFFFF" stroke-miterlimit="10" d="M810.926,745.537l410.413-4.994l-103.426-8.989L810.926,745.537z"
					/>
				<path fill="none" stroke="#FFFFFF" stroke-miterlimit="10" d="M810.926,745.537l306.987-13.983l-58.765-11.986L810.926,745.537z
					"/>
				<path fill="none" stroke="#FFFFFF" stroke-miterlimit="10" d="M810.926,745.537l248.222-25.969L907.77,701.59L810.926,745.537z"
					/>
				<path fill="none" stroke="#FFFFFF" stroke-miterlimit="10" d="M907.771,701.589l151.378,17.978l-80.39-28.965L907.771,701.589z"
					/>
				<path fill="none" stroke="#FFFFFF" stroke-miterlimit="10" d="M1117.913,731.554l103.426,8.989l-53.593-20.975L1117.913,731.554
					z"/>
			</g>
		</g>
	</g>
</g>
</svg>
