<?xml version="1.0" encoding="utf-8"?>
<!-- Generator: Adobe Illustrator 17.0.0, SVG Export Plug-In . SVG Version: 6.00 Build 0)  -->
<!DOCTYPE svg PUBLIC "-//W3C//DTD SVG 1.1//EN" "http://www.w3.org/Graphics/SVG/1.1/DTD/svg11.dtd">
<svg version="1.1" id="Layer_1" xmlns="http://www.w3.org/2000/svg" xmlns:xlink="http://www.w3.org/1999/xlink" x="0px" y="0px"
	 width="681px" height="795px" viewBox="0 0 681 795" enable-background="new 0 0 681 795" xml:space="preserve">
<g>
	<defs>
		<rect id="SVGID_1_" width="681" height="397"/>
	</defs>
	<clipPath id="SVGID_2_">
		<use xlink:href="#SVGID_1_"  overflow="visible"/>
	</clipPath>
	<g clip-path="url(#SVGID_2_)">
		<path fill="#00ADBA" d="M-22.425-32.915l-6.67,360.781l5.869-204.055L-22.425-32.915z"/>
		<path fill="#00ADBA" d="M-22.425-32.915l-0.8,156.726l6.136-71.703L-22.425-32.915z"/>
		<path fill="#00ADBA" d="M-22.425-32.915l5.336,85.023l3.201-41.094L-22.425-32.915z"/>
		<path fill="#00ADBA" d="M-22.425-32.915l8.537,43.929L15.726-5.708L-22.425-32.915z"/>
		<path fill="#00ADBA" d="M-22.425-32.915L15.726-5.708l61.629-5.101L-22.425-32.915z"/>
		<path fill="#00ADBA" d="M-22.425-32.915l99.78,22.106l30.414-10.77L-22.425-32.915z"/>
		<path fill="#00ADBA" d="M-22.425-32.915l130.194,11.336l28.013-2.834L-22.425-32.915z"/>
		<path fill="#00ADB7" d="M-22.425-32.915l158.207,8.502l304.943-4.535L-22.425-32.915z"/>
		<path fill="#00ADBA" d="M15.726-5.708l-29.614,16.721l46.422,20.406L15.726-5.708z"/>
		<path fill="#00ADBA" d="M15.726-5.708l16.808,37.127l44.821-42.228L15.726-5.708z"/>
		<path fill="#00ADBA" d="M77.355-10.809L32.534,31.419l43.487,10.77L77.355-10.809z"/>
		<path fill="#00ADBA" d="M77.355-10.809l-1.334,52.998l38.151-26.924L77.355-10.809z"/>
		<path fill="#00ADBA" d="M77.355-10.809l36.817,26.074l-6.403-36.843L77.355-10.809z"/>
		<path fill="#00ADBA" d="M107.769-21.579l6.403,36.843l21.61-39.677L107.769-21.579z"/>
		<path fill="#00ADBA" d="M135.782-24.413l-21.61,39.677l24.011,26.641L135.782-24.413z"/>
		<path fill="#00ADBA" d="M135.782-24.413l2.401,66.318l45.088-17.571L135.782-24.413z"/>
		<path fill="#00ADB9" d="M135.782-24.413l47.489,48.747l-4.269-44.779L135.782-24.413z"/>
		<path fill="#00ADB7" d="M135.782-24.413l43.22,3.968h73.101L135.782-24.413z"/>
		<path fill="#00ADB2" d="M135.782-24.413l116.321,3.968l94.978-3.401L135.782-24.413z"/>
		<path fill="#00ADAA" d="M135.782-24.413l211.299,0.567l93.644-5.101L135.782-24.413z"/>
		<path fill="#00ADB7" d="M179.002-20.445l4.269,44.779l34.95-37.41L179.002-20.445z"/>
		<path fill="#00ADB5" d="M179.002-20.445l39.218,7.369l33.883-7.369H179.002z"/>
		<path fill="#00ADB5" d="M218.221-13.076l-34.95,37.41l52.291-13.887L218.221-13.076z"/>
		<path fill="#00ADB3" d="M218.221-13.076l17.341,23.523l16.541-30.892L218.221-13.076z"/>
		<path fill="#00ADB1" d="M252.103-20.445l-16.541,30.892l20.009,14.454L252.103-20.445z"/>
		<path fill="#00ADAF" d="M252.103-20.445l3.468,45.346l33.883-6.518L252.103-20.445z"/>
		<path fill="#00ADAD" d="M252.103-20.445l37.351,38.827l10.138-32.876L252.103-20.445z"/>
		<path fill="#00ADAA" d="M252.103-20.445l47.489,5.952l47.489-9.353L252.103-20.445z"/>
		<path fill="#00ADAA" d="M299.592-14.493l-10.138,32.876l50.69,23.806L299.592-14.493z"/>
		<path fill="#00ADA8" d="M299.592-14.493l40.552,56.682l6.937-66.035L299.592-14.493z"/>
		<path fill="#00ADA6" d="M347.081-23.846l-6.937,66.035l38.952-2.551L347.081-23.846z"/>
		<path fill="#00ADA5" d="M347.081-23.846l32.015,63.484l11.472-64.618L347.081-23.846z"/>
		<path fill="#00ADA2" d="M347.081-23.846l43.487-1.134l50.157-3.968L347.081-23.846z"/>
		<path fill="#00ADA2" d="M390.568-24.98l-11.472,64.618l32.015-0.85L390.568-24.98z"/>
		<path fill="#00AD9E" d="M390.568-24.98l20.543,63.767l29.614-67.735L390.568-24.98z"/>
		<path fill="#00A89A" d="M440.725-28.947l-29.614,67.735l61.896-44.212L440.725-28.947z"/>
		<path fill="#00A697" d="M440.725-28.947l32.282,23.523l41.886-15.871L440.725-28.947z"/>
		<path fill="#00A696" d="M440.725-28.947l74.168,7.652l64.564,0.567L440.725-28.947z"/>
		<path fill="#00A693" d="M440.725-28.947l138.732,8.219l41.62-0.85L440.725-28.947z"/>
		<path fill="#00A698" d="M473.007-5.424l-61.896,44.212l65.364-11.336L473.007-5.424z"/>
		<path fill="#00A697" d="M473.007-5.424l3.468,32.876l42.42-10.77L473.007-5.424z"/>
		<path fill="#00A696" d="M473.007-5.424l45.888,22.106l-4.002-37.977L473.007-5.424z"/>
		<path fill="#00A695" d="M514.893-21.295l4.002,37.977l14.674-27.774L514.893-21.295z"/>
		<path fill="#00A693" d="M514.893-21.295l18.675,10.203l45.888-9.636L514.893-21.295z"/>
		<path fill="#00A694" d="M533.568-11.092l-14.674,27.774l38.418,10.486L533.568-11.092z"/>
		<path fill="#00A692" d="M533.568-11.092l23.745,38.26l22.144-47.896L533.568-11.092z"/>
		<path fill="#00A690" d="M579.457-20.728l-22.144,47.896l42.953,6.518L579.457-20.728z"/>
		<path fill="#00A68E" d="M579.457-20.728l20.81,54.415l20.81-55.265L579.457-20.728z"/>
		<path fill="#00A68D" d="M621.076-21.579l-20.81,55.265l34.95-3.118L621.076-21.579z"/>
		<path fill="#00A68A" d="M621.076-21.579l14.14,52.147l41.353-30.325L621.076-21.579z"/>
		<path fill="#00A689" d="M621.076-21.579l55.493,21.823l15.207-0.567L621.076-21.579z"/>
		<path fill="#00A689" d="M676.569,0.244l-41.353,30.325l34.149,2.267L676.569,0.244z"/>
		<path fill="#00A687" d="M676.569,0.244l-7.203,32.592l22.41-33.159L676.569,0.244z"/>
		<path fill="#00A686" d="M691.776-0.323l-22.41,33.159l35.216-18.422L691.776-0.323z"/>
		<path fill="#00ADBA" d="M-13.888,11.014l-3.201,41.094l49.623-20.689L-13.888,11.014z"/>
		<path fill="#00ADBA" d="M32.534,31.419L-17.09,52.108l54.692,26.924L32.534,31.419z"/>
		<path fill="#00ADBA" d="M32.534,31.419l5.069,47.613l38.418-36.843L32.534,31.419z"/>
		<path fill="#00ADBA" d="M76.021,42.189L37.603,79.032l42.153-6.518L76.021,42.189z"/>
		<path fill="#00ADBA" d="M76.021,42.189l3.735,30.325l36.284-6.518L76.021,42.189z"/>
		<path fill="#00ADBA" d="M76.021,42.189l40.019,23.806l-1.868-50.73L76.021,42.189z"/>
		<path fill="#00ADBA" d="M114.172,15.265l1.868,50.73l22.144-24.09L114.172,15.265z"/>
		<path fill="#00ADB9" d="M138.183,41.905l-22.144,24.09l41.619-7.652L138.183,41.905z"/>
		<path fill="#00ADB9" d="M138.183,41.905l19.476,16.438l25.612-34.009L138.183,41.905z"/>
		<path fill="#00ADB6" d="M183.271,24.334l-25.612,34.009l14.94,9.353L183.271,24.334z"/>
		<path fill="#00ADB3" d="M183.271,24.334l-10.672,43.362l38.685,11.62L183.271,24.334z"/>
		<path fill="#00ADB5" d="M183.271,24.334l28.013,54.982l24.278-68.869L183.271,24.334z"/>
		<path fill="#00ADB3" d="M235.562,10.447l-24.278,68.869l44.287-54.415L235.562,10.447z"/>
		<path fill="#00ADAD" d="M255.571,24.901l-44.287,54.415l44.554-2.551L255.571,24.901z"/>
		<path fill="#00ADAF" d="M255.571,24.901l0.267,51.864l33.616-58.383L255.571,24.901z"/>
		<path fill="#00ADAA" d="M289.454,18.382l-33.616,58.383l57.894-18.138L289.454,18.382z"/>
		<path fill="#00ADA9" d="M289.454,18.382l24.278,40.244l26.412-16.438L289.454,18.382z"/>
		<path fill="#00ADA4" d="M340.144,42.189l-26.412,16.438l24.278,15.304L340.144,42.189z"/>
		<path fill="#00ADA2" d="M340.144,42.189l-2.134,31.742l35.75-13.604L340.144,42.189z"/>
		<path fill="#00ADA5" d="M340.144,42.189l33.616,18.138l5.336-20.689L340.144,42.189z"/>
		<path fill="#00ADA2" d="M379.096,39.638l-5.336,20.689l37.351-21.539L379.096,39.638z"/>
		<path fill="#00AD9B" d="M411.111,38.788L373.76,60.327l53.358,19.555L411.111,38.788z"/>
		<path fill="#00A695" d="M411.111,38.788l16.007,41.094l30.414-5.385L411.111,38.788z"/>
		<path fill="#00A698" d="M411.111,38.788l46.422,35.71l18.942-47.046L411.111,38.788z"/>
		<path fill="#00A393" d="M476.475,27.451l-18.942,47.046l57.36-6.802L476.475,27.451z"/>
		<path fill="#00A696" d="M476.475,27.451l38.418,40.244l4.002-51.014L476.475,27.451z"/>
		<path fill="#00A593" d="M518.895,16.682l-4.002,51.014l28.013-4.818L518.895,16.682z"/>
		<path fill="#00A693" d="M518.895,16.682l24.011,46.196l14.407-35.71L518.895,16.682z"/>
		<path fill="#00A590" d="M557.313,27.168l-14.407,35.71l55.226-4.251L557.313,27.168z"/>
		<path fill="#00A68F" d="M557.313,27.168l40.819,31.459l2.134-24.94L557.313,27.168z"/>
		<path fill="#00A68D" d="M600.266,33.686l-2.134,24.94l37.084-28.058L600.266,33.686z"/>
		<path fill="#00A48A" d="M635.216,30.569l-37.084,28.058l39.485,7.652L635.216,30.569z"/>
		<path fill="#00A488" d="M635.216,30.569l2.401,35.71l28.813-4.818L635.216,30.569z"/>
		<path fill="#00A689" d="M635.216,30.569l31.215,30.892l2.935-28.624L635.216,30.569z"/>
		<path fill="#00A383" d="M669.365,32.836l-2.935,28.624l41.086,15.588L669.365,32.836z"/>
		<path fill="#00A686" d="M669.365,32.836l38.151,44.212l-2.935-62.634L669.365,32.836z"/>
		<path fill="#00ADBA" d="M-17.09,52.108l-6.136,71.703l60.828-44.779L-17.09,52.108z"/>
		<path fill="#00ADBA" d="M37.603,79.032l-60.828,44.779l58.961,2.834L37.603,79.032z"/>
		<path fill="#00ADBA" d="M37.603,79.032l-1.868,47.613l38.952-14.454L37.603,79.032z"/>
		<path fill="#00ADBA" d="M37.603,79.032l37.084,33.159l5.069-39.677L37.603,79.032z"/>
		<path fill="#00ADB7" d="M79.756,72.514l-5.069,39.677l34.95-7.085L79.756,72.514z"/>
		<path fill="#00ADB8" d="M79.756,72.514l29.881,32.592l6.403-39.111L79.756,72.514z"/>
		<path fill="#00ADB1" d="M116.039,65.995l-6.403,39.111l22.677,10.77L116.039,65.995z"/>
		<path fill="#00ADB2" d="M116.039,65.995l16.274,49.88l25.345-57.532L116.039,65.995z"/>
		<path fill="#00ADAB" d="M157.659,58.343l-25.345,57.532l44.821-14.454L157.659,58.343z"/>
		<path fill="#00ADAE" d="M157.659,58.343l19.476,43.078l-4.535-33.726L157.659,58.343z"/>
		<path fill="#00ADAB" d="M172.599,67.696l4.535,33.726l34.149-22.106L172.599,67.696z"/>
		<path fill="#00ADA7" d="M211.284,79.315l-34.149,22.106l61.095-3.118L211.284,79.315z"/>
		<path fill="#00ADA6" d="M211.284,79.315l26.946,18.988l17.608-21.539L211.284,79.315z"/>
		<path fill="#00ADA2" d="M255.838,76.765L238.23,98.304l29.881,8.219L255.838,76.765z"/>
		<path fill="#00AD9F" d="M255.838,76.765l12.272,29.758l32.282-4.251L255.838,76.765z"/>
		<path fill="#00ADA0" d="M255.838,76.765l44.554,25.507l13.34-43.645L255.838,76.765z"/>
		<path fill="#00AD9E" d="M313.732,58.627l-13.34,43.645l37.618-28.341L313.732,58.627z"/>
		<path fill="#00AD9A" d="M338.01,73.931l-37.618,28.341l53.358-8.219L338.01,73.931z"/>
		<path fill="#00AD9C" d="M338.01,73.931l15.741,20.122l20.009-33.726L338.01,73.931z"/>
		<path fill="#00AD97" d="M373.76,60.327l-20.009,33.726l32.549,28.908L373.76,60.327z"/>
		<path fill="#00AC94" d="M373.76,60.327l12.539,62.634l40.819-43.078L373.76,60.327z"/>
		<path fill="#009C8E" d="M427.118,79.882l-40.819,43.078l41.086-7.652L427.118,79.882z"/>
		<path fill="#009C8C" d="M427.118,79.882l0.267,35.426l30.147-40.811L427.118,79.882z"/>
		<path fill="#00958A" d="M457.533,74.497l-30.147,40.811l41.886-9.919L457.533,74.497z"/>
		<path fill="#009D8B" d="M457.533,74.497l11.739,30.892l45.621-37.694L457.533,74.497z"/>
		<path fill="#009788" d="M514.893,67.696l-45.621,37.694l44.021,1.417L514.893,67.696z"/>
		<path fill="#009686" d="M514.893,67.696l-1.601,39.111l22.944,6.235L514.893,67.696z"/>
		<path fill="#009D88" d="M514.893,67.696l21.343,45.346l6.67-50.164L514.893,67.696z"/>
		<path fill="#009683" d="M542.906,62.878l-6.67,50.164l51.224-1.134L542.906,62.878z"/>
		<path fill="#009D85" d="M542.906,62.878l44.554,49.03l10.672-53.281L542.906,62.878z"/>
		<path fill="#00957F" d="M598.132,58.627l-10.672,53.281l37.618,9.353L598.132,58.627z"/>
		<path fill="#009C80" d="M598.132,58.627l26.946,62.634l12.539-54.982L598.132,58.627z"/>
		<path fill="#00967C" d="M637.617,66.279l-12.539,54.982l31.748-24.94L637.617,66.279z"/>
		<path fill="#009E7F" d="M637.617,66.279l19.209,30.041l9.604-34.859L637.617,66.279z"/>
		<path fill="#009D7C" d="M666.431,61.461l-9.604,34.859l50.69-19.272L666.431,61.461z"/>
		<path fill="#009477" d="M707.517,77.048l-50.69,19.272l46.422,27.491L707.517,77.048z"/>
		<path fill="#008872" d="M707.517,77.048l-4.269,46.763l0.267,34.576L707.517,77.048z"/>
		<path fill="#005C64" d="M707.517,77.048l-4.002,81.339l10.672,132.636L707.517,77.048z"/>
		<path fill="#003C54" d="M707.517,77.048l6.67,213.975l4.269,38.544L707.517,77.048z"/>
		<path fill="#00ADB2" d="M-23.226,123.811l-5.869,204.055l7.47-166.362L-23.226,123.811z"/>
		<path fill="#00ADBA" d="M-23.226,123.811l1.601,37.694l54.159-24.657L-23.226,123.811z"/>
		<path fill="#00ADBA" d="M-23.226,123.811l55.759,13.037l3.201-10.203L-23.226,123.811z"/>
		<path fill="#00ADB4" d="M35.735,126.645l-3.201,10.203l36.817,26.357L35.735,126.645z"/>
		<path fill="#00ADB5" d="M35.735,126.645l33.616,36.56l5.336-51.014L35.735,126.645z"/>
		<path fill="#00ADAE" d="M74.687,112.191l-5.336,51.014l49.89-21.823L74.687,112.191z"/>
		<path fill="#00ADB1" d="M74.687,112.191l44.554,29.191l-9.604-36.277L74.687,112.191z"/>
		<path fill="#00ADAD" d="M109.636,105.106l9.604,36.277l13.073-25.507L109.636,105.106z"/>
		<path fill="#00ADA5" d="M132.314,115.875l-13.073,25.507l36.284,20.972L132.314,115.875z"/>
		<path fill="#00ADA2" d="M132.314,115.875l23.211,46.479l20.009-25.224L132.314,115.875z"/>
		<path fill="#00ADA7" d="M132.314,115.875l43.22,21.256l1.601-35.71L132.314,115.875z"/>
		<path fill="#00ADA2" d="M177.135,101.421l-1.601,35.71l57.627,9.919L177.135,101.421z"/>
		<path fill="#00ADA3" d="M177.135,101.421l56.026,45.629l5.069-48.747L177.135,101.421z"/>
		<path fill="#00AD9D" d="M238.23,98.304l-5.069,48.747l20.543-5.668L238.23,98.304z"/>
		<path fill="#00AD9E" d="M238.23,98.304l15.474,43.078l14.407-34.859L238.23,98.304z"/>
		<path fill="#00AD97" d="M268.111,106.523l-14.407,34.859l44.287,18.705L268.111,106.523z"/>
		<path fill="#00AD99" d="M268.111,106.523l29.881,53.565l2.401-57.816L268.111,106.523z"/>
		<path fill="#00A691" d="M300.392,102.272l-2.401,57.816l55.759-3.401L300.392,102.272z"/>
		<path fill="#00AD95" d="M300.392,102.272l53.358,54.415V94.053L300.392,102.272z"/>
		<path fill="#00A292" d="M353.751,94.053v62.634l32.549-33.726L353.751,94.053z"/>
		<path fill="#00908C" d="M386.299,122.961l-32.549,33.726l45.888-14.737L386.299,122.961z"/>
		<path fill="#00938C" d="M386.299,122.961l13.34,18.988l27.746-26.641L386.299,122.961z"/>
		<path fill="#008486" d="M427.385,115.309l-27.746,26.641l21.61,18.422L427.385,115.309z"/>
		<path fill="#007A82" d="M427.385,115.309l-6.136,45.062l37.351-8.219L427.385,115.309z"/>
		<path fill="#008685" d="M427.385,115.309l31.215,36.843l10.672-46.763L427.385,115.309z"/>
		<path fill="#007C80" d="M469.272,105.389L458.6,152.152l60.562,0.85L469.272,105.389z"/>
		<path fill="#008783" d="M469.272,105.389l49.89,47.613l-5.869-46.196L469.272,105.389z"/>
		<path fill="#008681" d="M513.292,106.806l5.869,46.196l17.075-39.961L513.292,106.806z"/>
		<path fill="#007D7E" d="M536.236,113.041l-17.075,39.961l25.879-13.604L536.236,113.041z"/>
		<path fill="#00887F" d="M536.236,113.041l8.804,26.357l42.42-27.491L536.236,113.041z"/>
		<path fill="#007C79" d="M587.46,111.908l-42.42,27.491l50.69,15.871L587.46,111.908z"/>
		<path fill="#008179" d="M587.46,111.908l8.271,43.362l29.347-34.009L587.46,111.908z"/>
		<path fill="#007273" d="M625.078,121.26l-29.347,34.009l14.94,13.32L625.078,121.26z"/>
		<path fill="#007672" d="M625.078,121.26l-14.407,47.33l50.69-28.624L625.078,121.26z"/>
		<path fill="#008877" d="M625.078,121.26l36.284,18.705l-4.535-43.645L625.078,121.26z"/>
		<path fill="#008875" d="M656.826,96.32l4.535,43.645l41.886-16.154L656.826,96.32z"/>
		<path fill="#00786E" d="M703.248,123.811l-41.886,16.154l42.153,18.422L703.248,123.811z"/>
		<path fill="#00ADA7" d="M-21.625,161.504l-7.47,166.362l11.472-115.915L-21.625,161.504z"/>
		<path fill="#00ADB0" d="M-21.625,161.504l4.002,50.447l50.157-4.535L-21.625,161.504z"/>
		<path fill="#00ADB2" d="M-21.625,161.504l54.159,45.912v-70.569L-21.625,161.504z"/>
		<path fill="#00ADAD" d="M32.534,136.848v70.569l36.817-44.212L32.534,136.848z"/>
		<path fill="#00ADA8" d="M69.351,163.205l-36.817,44.212l36.817-10.77V163.205z"/>
		<path fill="#00ADA5" d="M69.351,163.205v33.442l26.946,13.604L69.351,163.205z"/>
		<path fill="#00ADA4" d="M69.351,163.205l26.946,47.046l22.944-68.869L69.351,163.205z"/>
		<path fill="#00AD9D" d="M119.241,141.382l-22.944,68.869l50.69-12.47L119.241,141.382z"/>
		<path fill="#00AD9C" d="M119.241,141.382l27.746,56.399l8.537-35.426L119.241,141.382z"/>
		<path fill="#00AD96" d="M155.525,162.355l-8.537,35.426l50.957,6.802L155.525,162.355z"/>
		<path fill="#00AD98" d="M155.525,162.355l42.42,42.228l-22.41-67.452L155.525,162.355z"/>
		<path fill="#00AD97" d="M175.534,137.131l22.41,67.452l35.217-57.532L175.534,137.131z"/>
		<path fill="#00A793" d="M233.161,147.051l-35.217,57.532l35.483-8.502L233.161,147.051z"/>
		<path fill="#00A491" d="M233.161,147.051l0.267,49.03l20.276-6.802L233.161,147.051z"/>
		<path fill="#00AD93" d="M233.161,147.051l20.543,42.228v-47.896L233.161,147.051z"/>
		<path fill="#00A58F" d="M253.704,141.382v47.896l44.287-29.191L253.704,141.382z"/>
		<path fill="#00928B" d="M297.991,160.087l-44.287,29.191l51.491,0.567L297.991,160.087z"/>
		<path fill="#008E89" d="M297.991,160.087l7.203,29.758l48.556-33.159L297.991,160.087z"/>
		<path fill="#007F86" d="M353.751,156.686l-48.556,33.159l33.616,7.369L353.751,156.686z"/>
		<path fill="#007684" d="M353.751,156.686l-14.94,40.528l33.349-1.7L353.751,156.686z"/>
		<path fill="#007D85" d="M353.751,156.686l18.409,38.827l27.48-53.565L353.751,156.686z"/>
		<path fill="#007581" d="M399.639,141.949l-27.48,53.565l49.09-35.143L399.639,141.949z"/>
		<path fill="#00637D" d="M421.249,160.371l-49.09,35.143l65.097-3.684L421.249,160.371z"/>
		<path fill="#00657A" d="M421.249,160.371l16.008,31.459l21.343-39.677L421.249,160.371z"/>
		<path fill="#005877" d="M458.6,152.152l-21.343,39.677l12.272,8.786L458.6,152.152z"/>
		<path fill="#005375" d="M458.6,152.152l-9.071,48.463l59.495,9.636L458.6,152.152z"/>
		<path fill="#005F76" d="M458.6,152.152l50.424,58.099l10.138-57.249L458.6,152.152z"/>
		<path fill="#005171" d="M519.162,153.002l-10.138,57.249l37.884-2.267L519.162,153.002z"/>
		<path fill="#006374" d="M519.162,153.002l27.746,54.982l-1.868-68.585L519.162,153.002z"/>
		<path fill="#005970" d="M545.04,139.398l1.868,68.585l39.485-16.438L545.04,139.398z"/>
		<path fill="#006672" d="M545.04,139.398l41.353,52.147l9.338-36.277L545.04,139.398z"/>
		<path fill="#005F6E" d="M595.731,155.269l-9.338,36.277l24.278-22.956L595.731,155.269z"/>
		<path fill="#00546B" d="M610.671,168.59l-24.278,22.956l46.155,7.085L610.671,168.59z"/>
		<path fill="#00616B" d="M610.671,168.59l21.877,30.041l28.813-58.666L610.671,168.59z"/>
		<path fill="#005767" d="M661.362,139.965l-28.813,58.666l45.888,7.935L661.362,139.965z"/>
		<path fill="#005765" d="M661.362,139.965l17.075,66.601l13.34-6.235L661.362,139.965z"/>
		<path fill="#006367" d="M661.362,139.965l30.414,60.366l11.739-41.945L661.362,139.965z"/>
		<path fill="#004961" d="M703.515,158.387l-11.739,41.945l12.272,39.111L703.515,158.387z"/>
		<path fill="#003D56" d="M703.515,158.387l0.534,81.055l10.138,51.581L703.515,158.387z"/>
		<path fill="#00ADA0" d="M-17.623,211.951l-11.472,115.915l10.938-57.532L-17.623,211.951z"/>
		<path fill="#00ADA5" d="M-17.623,211.951l-0.534,58.383l5.336-47.046L-17.623,211.951z"/>
		<path fill="#00ADAB" d="M-17.623,211.951l4.802,11.336l45.355-15.871L-17.623,211.951z"/>
		<path fill="#00ADA6" d="M32.534,207.417l-45.355,15.871l32.015,18.138L32.534,207.417z"/>
		<path fill="#00ADA1" d="M32.534,207.417l-13.34,34.009l56.56-19.272L32.534,207.417z"/>
		<path fill="#00ADA4" d="M32.534,207.417l43.22,14.737l-6.403-25.507L32.534,207.417z"/>
		<path fill="#00ADA0" d="M69.351,196.647l6.403,25.507l20.543-11.903L69.351,196.647z"/>
		<path fill="#00AB98" d="M96.297,210.251l-20.543,11.903l36.017,22.673L96.297,210.251z"/>
		<path fill="#00A793" d="M96.297,210.251l15.474,34.576l30.147-17.855L96.297,210.251z"/>
		<path fill="#00AA96" d="M96.297,210.251l45.621,16.721l5.069-29.191L96.297,210.251z"/>
		<path fill="#00A18E" d="M146.987,197.781l-5.069,29.191l50.957,7.369L146.987,197.781z"/>
		<path fill="#009E8F" d="M146.987,197.781l45.888,36.56l5.069-29.758L146.987,197.781z"/>
		<path fill="#009186" d="M197.944,204.583l-5.069,29.758l27.746,20.406L197.944,204.583z"/>
		<path fill="#00928A" d="M197.944,204.583l22.677,50.164l12.806-58.666L197.944,204.583z"/>
		<path fill="#008481" d="M233.428,196.08l-12.806,58.666l54.159-2.267L233.428,196.08z"/>
		<path fill="#008888" d="M233.428,196.08l41.353,56.399l-21.077-63.2L233.428,196.08z"/>
		<path fill="#007A80" d="M253.704,189.279l21.077,63.2l35.75-20.972L253.704,189.279z"/>
		<path fill="#007E86" d="M253.704,189.279l56.827,42.228l-5.336-41.661L253.704,189.279z"/>
		<path fill="#007283" d="M305.195,189.845l5.336,41.661l28.28-34.293L305.195,189.845z"/>
		<path fill="#006A7D" d="M338.81,197.214l-28.28,34.293l23.211-1.417L338.81,197.214z"/>
		<path fill="#006780" d="M338.81,197.214l-5.069,32.876l38.418-34.576L338.81,197.214z"/>
		<path fill="#005A78" d="M372.159,195.514l-38.418,34.576l57.093,23.24L372.159,195.514z"/>
		<path fill="#005073" d="M372.159,195.514l18.675,57.816l29.347-15.304L372.159,195.514z"/>
		<path fill="#005178" d="M372.159,195.514l48.022,42.512l17.075-46.196L372.159,195.514z"/>
		<path fill="#004773" d="M437.257,191.829l-17.075,46.196l29.347-37.41L437.257,191.829z"/>
		<path fill="#003F6B" d="M449.529,200.615l-29.347,37.41l50.957,1.7L449.529,200.615z"/>
		<path fill="#00426D" d="M449.529,200.615l21.61,39.111l37.884-29.475L449.529,200.615z"/>
		<path fill="#003E68" d="M509.024,210.251l-37.884,29.475l32.815-7.369L509.024,210.251z"/>
		<path fill="#003D67" d="M509.024,210.251l-5.069,22.106l41.886,13.32L509.024,210.251z"/>
		<path fill="#004069" d="M509.024,210.251l36.817,35.426l1.067-37.694L509.024,210.251z"/>
		<path fill="#003D63" d="M546.908,207.984l-1.067,37.694l26.412-6.235L546.908,207.984z"/>
		<path fill="#004268" d="M546.908,207.984l25.345,31.459l14.14-47.896L546.908,207.984z"/>
		<path fill="#004467" d="M586.393,191.546l-14.14,47.896l60.295-40.811L586.393,191.546z"/>
		<path fill="#003E5F" d="M632.548,198.631l-60.295,40.811l66.698,3.968L632.548,198.631z"/>
		<path fill="#003F5E" d="M632.548,198.631l6.403,44.779l37.351-18.988L632.548,198.631z"/>
		<path fill="#004461" d="M632.548,198.631l43.754,25.79l2.134-17.855L632.548,198.631z"/>
		<path fill="#00435F" d="M678.436,206.567l-2.134,17.855l15.474-24.09L678.436,206.567z"/>
		<path fill="#00405B" d="M691.776,200.332l-15.474,24.09l27.746,15.021L691.776,200.332z"/>
		<path fill="#00ADA0" d="M-12.821,223.288l-5.336,47.046l37.351-28.908L-12.821,223.288z"/>
		<path fill="#00AD9B" d="M19.194,241.426l-37.351,28.908l57.093,23.806L19.194,241.426z"/>
		<path fill="#00AD96" d="M19.194,241.426l19.743,52.714l34.683-5.101L19.194,241.426z"/>
		<path fill="#00AB97" d="M19.194,241.426l54.425,47.613l2.134-66.885L19.194,241.426z"/>
		<path fill="#00A692" d="M75.754,222.154l-2.134,66.885l38.151-44.212L75.754,222.154z"/>
		<path fill="#00A48D" d="M111.771,244.827L73.62,289.039l40.819-14.737L111.771,244.827z"/>
		<path fill="#00A08B" d="M111.771,244.827l2.668,29.475l27.48-47.33L111.771,244.827z"/>
		<path fill="#009E88" d="M141.918,226.972l-27.48,47.33l18.142,12.753L141.918,226.972z"/>
		<path fill="#009A83" d="M141.918,226.972l-9.338,60.083l54.692-12.187L141.918,226.972z"/>
		<path fill="#009584" d="M141.918,226.972l45.355,47.896l5.603-40.528L141.918,226.972z"/>
		<path fill="#008E81" d="M192.875,234.341l-5.603,40.528l33.349-20.122L192.875,234.341z"/>
		<path fill="#008B7E" d="M220.622,254.746l-33.349,20.122l32.015,18.138L220.622,254.746z"/>
		<path fill="#00847B" d="M220.622,254.746l-1.334,38.26l42.42-5.385L220.622,254.746z"/>
		<path fill="#007D7A" d="M220.622,254.746l41.086,32.876l13.073-35.143L220.622,254.746z"/>
		<path fill="#007476" d="M274.78,252.479l-13.073,35.143l33.883,3.401L274.78,252.479z"/>
		<path fill="#006E75" d="M274.78,252.479l20.81,38.544l14.94-59.516L274.78,252.479z"/>
		<path fill="#006572" d="M310.531,231.507l-14.94,59.516l51.491-22.389L310.531,231.507z"/>
		<path fill="#006174" d="M310.531,231.507l36.55,37.127l-13.34-38.544L310.531,231.507z"/>
		<path fill="#005771" d="M333.741,230.09l13.34,38.544l43.754-15.304L333.741,230.09z"/>
		<path fill="#00516F" d="M390.835,253.329l-43.754,15.304l37.084-0.283L390.835,253.329z"/>
		<path fill="#00496A" d="M390.835,253.329l-6.67,15.021l37.618,8.502L390.835,253.329z"/>
		<path fill="#004469" d="M390.835,253.329l30.948,23.523l-1.601-38.827L390.835,253.329z"/>
		<path fill="#003C64" d="M420.182,238.025l1.601,38.827l45.088,0.567L420.182,238.025z"/>
		<path fill="#003863" d="M420.182,238.025l46.689,39.394l4.269-37.694L420.182,238.025z"/>
		<path fill="#003861" d="M471.139,239.726l-4.269,37.694l40.019-3.401L471.139,239.726z"/>
		<path fill="#003861" d="M471.139,239.726l35.75,34.293l-2.935-41.661L471.139,239.726z"/>
		<path fill="#003860" d="M503.954,232.357l2.935,41.661l38.952-28.341L503.954,232.357z"/>
		<path fill="#00385E" d="M545.841,245.677l-38.952,28.341l31.215,7.085L545.841,245.677z"/>
		<path fill="#00385B" d="M545.841,245.677l-7.737,35.426l36.284,12.47L545.841,245.677z"/>
		<path fill="#00385B" d="M545.841,245.677l28.547,47.896l-2.134-54.131L545.841,245.677z"/>
		<path fill="#003858" d="M572.253,239.442l2.134,54.131l42.687-10.486L572.253,239.442z"/>
		<path fill="#003858" d="M572.253,239.442l44.821,43.645l21.877-39.677L572.253,239.442z"/>
		<path fill="#003853" d="M638.951,243.41l-21.877,39.677l61.362-7.085L638.951,243.41z"/>
		<path fill="#003853" d="M638.951,243.41l39.485,32.592l-2.134-51.581L638.951,243.41z"/>
		<path fill="#003852" d="M676.302,224.422l2.134,51.581l25.612-36.56L676.302,224.422z"/>
		<path fill="#00384E" d="M704.048,239.442l-25.612,36.56l35.75,15.021L704.048,239.442z"/>
		<path fill="#00AA98" d="M-18.157,270.334l-10.938,57.532l54.159,6.235L-18.157,270.334z"/>
		<path fill="#00AB96" d="M-18.157,270.334l43.22,63.767l13.873-39.961L-18.157,270.334z"/>
		<path fill="#00A08F" d="M38.937,294.14l-13.873,39.961l41.353-15.871L38.937,294.14z"/>
		<path fill="#00A490" d="M38.937,294.14l27.48,24.09l7.203-29.191L38.937,294.14z"/>
		<path fill="#009D8A" d="M73.62,289.039l-7.203,29.191l42.42-6.235L73.62,289.039z"/>
		<path fill="#00A18A" d="M73.62,289.039l35.216,22.956l5.603-37.694L73.62,289.039z"/>
		<path fill="#009E87" d="M114.439,274.302l-5.603,37.694l23.744-24.94L114.439,274.302z"/>
		<path fill="#009682" d="M132.581,287.055l-23.744,24.94l40.819,1.134L132.581,287.055z"/>
		<path fill="#00967F" d="M132.581,287.055l17.075,26.074l37.618-38.26L132.581,287.055z"/>
		<path fill="#008C7B" d="M187.273,274.869l-37.618,38.26l23.744,22.106L187.273,274.869z"/>
		<path fill="#00867A" d="M187.273,274.869L173.4,335.235l42.687-20.406L187.273,274.869z"/>
		<path fill="#00887B" d="M187.273,274.869l28.814,39.961l3.201-21.823L187.273,274.869z"/>
		<path fill="#007F78" d="M219.288,293.007l-3.201,21.823l45.621-27.207L219.288,293.007z"/>
		<path fill="#007273" d="M261.708,287.622l-45.621,27.207l57.36,15.588L261.708,287.622z"/>
		<path fill="#006C71" d="M261.708,287.622l11.739,42.795l22.144-39.394L261.708,287.622z"/>
		<path fill="#00626D" d="M295.59,291.023l-22.144,39.394l24.011-1.7L295.59,291.023z"/>
		<path fill="#00596A" d="M295.59,291.023l1.868,37.694l37.618,10.77L295.59,291.023z"/>
		<path fill="#005C6D" d="M295.59,291.023l39.485,48.463l12.006-70.853L295.59,291.023z"/>
		<path fill="#004E69" d="M347.081,268.634l-12.006,70.853l42.687-18.138L347.081,268.634z"/>
		<path fill="#00526D" d="M347.081,268.634l30.681,52.714l6.403-52.998L347.081,268.634z"/>
		<path fill="#004968" d="M384.165,268.35l-6.403,52.998l44.021-44.495L384.165,268.35z"/>
		<path fill="#003C62" d="M421.783,276.852l-44.021,44.495l36.55,11.62L421.783,276.852z"/>
		<path fill="#00315D" d="M421.783,276.852l-7.47,56.115l35.75,2.551L421.783,276.852z"/>
		<path fill="#00335E" d="M421.783,276.852l28.28,58.666l16.808-58.099L421.783,276.852z"/>
		<path fill="#002858" d="M466.87,277.419l-16.808,58.099l20.276,14.454L466.87,277.419z"/>
		<path fill="#002857" d="M466.87,277.419l3.468,72.553l49.09-11.336L466.87,277.419z"/>
		<path fill="#00335B" d="M466.87,277.419l52.558,61.217l-12.539-64.618L466.87,277.419z"/>
		<path fill="#002E58" d="M506.889,274.018l12.539,64.618l18.142-26.641L506.889,274.018z"/>
		<path fill="#00365B" d="M506.889,274.018l30.681,37.977l0.534-30.892L506.889,274.018z"/>
		<path fill="#003458" d="M538.104,281.104l-0.534,30.892l36.817-18.422L538.104,281.104z"/>
		<path fill="#002D53" d="M574.388,293.574l-36.817,18.422l60.295,12.187L574.388,293.574z"/>
		<path fill="#003153" d="M574.388,293.574l23.478,30.608l19.209-41.094L574.388,293.574z"/>
		<path fill="#002E50" d="M617.074,283.087l-19.209,41.094l22.411-11.62L617.074,283.087z"/>
		<path fill="#002F4F" d="M617.074,283.087l3.202,29.475l45.355,6.518L617.074,283.087z"/>
		<path fill="#00344F" d="M617.074,283.087l48.556,35.993l12.806-43.078L617.074,283.087z"/>
		<path fill="#00334C" d="M678.436,276.002l-12.806,43.078l48.556-28.058L678.436,276.002z"/>
		<path fill="#002B47" d="M714.186,291.023l-48.556,28.058l52.825,10.486L714.186,291.023z"/>
		<path fill="#00A58E" d="M-29.095,327.866l15.474,68.585l7.203-27.491L-29.095,327.866z"/>
		<path fill="#00A390" d="M-29.095,327.866l22.677,41.094l31.481-34.859L-29.095,327.866z"/>
		<path fill="#00A08B" d="M25.063,334.101l-31.481,34.859l33.082,0.85L25.063,334.101z"/>
		<path fill="#009D88" d="M25.063,334.101l1.601,35.71l34.416-16.438L25.063,334.101z"/>
		<path fill="#009B8A" d="M25.063,334.101l36.017,19.272l5.336-35.143L25.063,334.101z"/>
		<path fill="#009683" d="M66.416,318.23l-5.336,35.143l51.224,8.786L66.416,318.23z"/>
		<path fill="#009383" d="M66.416,318.23l45.888,43.929l-3.468-50.164L66.416,318.23z"/>
		<path fill="#008E7B" d="M108.836,311.995l3.468,50.164l31.215-1.984L108.836,311.995z"/>
		<path fill="#008C7C" d="M108.836,311.995l34.683,48.18l6.136-47.046L108.836,311.995z"/>
		<path fill="#008877" d="M149.655,313.129l-6.136,47.046l29.881-24.94L149.655,313.129z"/>
		<path fill="#008473" d="M173.4,335.235l-29.881,24.94l53.892-9.636L173.4,335.235z"/>
		<path fill="#007D74" d="M173.4,335.235l24.011,15.304l18.675-35.71L173.4,335.235z"/>
		<path fill="#007A71" d="M216.086,314.829l-18.675,35.71l21.877,22.389L216.086,314.829z"/>
		<path fill="#00726F" d="M216.086,314.829l3.201,58.099l54.159-42.512L216.086,314.829z"/>
		<path fill="#006B69" d="M273.447,330.417l-54.159,42.512l49.623,2.267L273.447,330.417z"/>
		<path fill="#006266" d="M273.447,330.417l-4.535,44.779l24.812-1.417L273.447,330.417z"/>
		<path fill="#005E67" d="M273.447,330.417l20.276,43.362l3.735-45.062L273.447,330.417z"/>
		<path fill="#005765" d="M297.458,328.716l-3.735,45.062l41.353-34.293L297.458,328.716z"/>
		<path fill="#005161" d="M335.075,339.486l-41.353,34.293l53.092-7.935L335.075,339.486z"/>
		<path fill="#004763" d="M335.075,339.486l11.739,26.357l30.948-44.495L335.075,339.486z"/>
		<path fill="#003F60" d="M377.762,321.348l-30.948,44.495l54.159-13.037L377.762,321.348z"/>
		<path fill="#00385E" d="M377.762,321.348l23.211,31.459l13.34-19.839L377.762,321.348z"/>
		<path fill="#00345A" d="M414.312,332.968l-13.34,19.839l8.537,3.968L414.312,332.968z"/>
		<path fill="#002E58" d="M414.312,332.968l-4.802,23.806l40.552-21.256L414.312,332.968z"/>
		<path fill="#002854" d="M450.063,335.518l-40.552,21.256l60.828-6.802L450.063,335.518z"/>
		<path fill="#002750" d="M519.428,338.636l-49.09,11.336l40.019,15.304L519.428,338.636z"/>
		<path fill="#00274E" d="M519.428,338.636l-9.071,26.641l36.017-2.834L519.428,338.636z"/>
		<path fill="#002751" d="M519.428,338.636l26.946,23.806l-8.804-50.447L519.428,338.636z"/>
		<path fill="#002650" d="M537.57,311.995l8.804,50.447l51.491-38.26L537.57,311.995z"/>
		<path fill="#00264A" d="M597.865,324.182l-51.491,38.26l44.287,17.571L597.865,324.182z"/>
		<path fill="#002646" d="M597.865,324.182l-7.203,55.832l30.948-1.7L597.865,324.182z"/>
		<path fill="#00264A" d="M597.865,324.182l23.744,54.131l-1.334-65.751L597.865,324.182z"/>
		<path fill="#002648" d="M620.276,312.562l1.334,65.751l44.021-59.233L620.276,312.562z"/>
		<path fill="#002643" d="M665.63,319.081l-44.021,59.233l31.215,4.251L665.63,319.081z"/>
		<path fill="#002640" d="M665.63,319.081l-12.806,63.484l45.621-5.668L665.63,319.081z"/>
		<path fill="#002642" d="M665.63,319.081l32.815,57.816l20.009-47.33L665.63,319.081z"/>
		<path fill="#00263B" d="M718.455,329.567l-20.009,47.33l-5.336,43.362L718.455,329.567z"/>
		<path fill="#00A289" d="M-6.418,368.961l-7.203,27.491l40.286-26.641L-6.418,368.961z"/>
		<path fill="#00A084" d="M26.664,369.811l-40.286,26.641l41.086,16.438L26.664,369.811z"/>
		<path fill="#009D81" d="M26.664,369.811l0.8,43.078l21.877-17.005L26.664,369.811z"/>
		<path fill="#009B83" d="M26.664,369.811l22.677,26.074l11.739-42.512L26.664,369.811z"/>
		<path fill="#00977F" d="M61.08,353.373l-11.739,42.512l62.963-33.726L61.08,353.373z"/>
		<path fill="#009478" d="M112.304,362.159l-62.963,33.726l66.164,13.037L112.304,362.159z"/>
		<path fill="#008E72" d="M112.304,362.159l3.201,46.763l23.744-10.486L112.304,362.159z"/>
		<path fill="#008C74" d="M112.304,362.159l26.946,36.277l4.269-38.26L112.304,362.159z"/>
		<path fill="#00876B" d="M143.519,360.175l-4.269,38.26l50.424,22.106L143.519,360.175z"/>
		<path fill="#00826D" d="M143.519,360.175l46.155,60.366l7.737-70.002L143.519,360.175z"/>
		<path fill="#007C6A" d="M197.411,350.539l-7.737,70.002l29.614-47.613L197.411,350.539z"/>
		<path fill="#007A65" d="M219.288,372.928l-29.614,47.613l31.481,0.85L219.288,372.928z"/>
		<path fill="#007363" d="M219.288,372.928l1.868,48.463l37.618-7.369L219.288,372.928z"/>
		<path fill="#006D64" d="M219.288,372.928l39.485,41.094l10.138-38.827L219.288,372.928z"/>
		<path fill="#00635D" d="M268.911,375.196l-10.138,38.827l41.886,2.551L268.911,375.196z"/>
		<path fill="#005E5F" d="M268.911,375.196l31.748,41.378l-6.937-42.795L268.911,375.196z"/>
		<path fill="#00545B" d="M293.723,373.779l6.937,42.795l54.959-24.657L293.723,373.779z"/>
		<path fill="#004F5D" d="M293.723,373.779l61.896,18.138l-8.804-26.074L293.723,373.779z"/>
		<path fill="#00425C" d="M346.814,365.843l8.804,26.074l45.355-39.111L346.814,365.843z"/>
		<path fill="#003B57" d="M400.973,352.806l-45.355,39.111l54.159,14.454L400.973,352.806z"/>
		<path fill="#003455" d="M400.973,352.806l8.804,53.565l-0.267-49.597L400.973,352.806z"/>
		<path fill="#002C52" d="M409.51,356.774l0.267,49.597l60.562-56.399L409.51,356.774z"/>
		<path fill="#00274B" d="M470.339,349.972l-60.562,56.399l50.424,16.721L470.339,349.972z"/>
		<path fill="#00274A" d="M470.339,349.972l-10.138,73.12l54.959-24.94L470.339,349.972z"/>
		<path fill="#00274D" d="M470.339,349.972l44.821,48.18l-4.802-32.876L470.339,349.972z"/>
		<path fill="#00274A" d="M510.358,365.276l4.802,32.876l31.215-35.71L510.358,365.276z"/>
		<path fill="#002747" d="M546.374,362.442l-31.215,35.71l40.286-6.235L546.374,362.442z"/>
		<path fill="#002646" d="M546.374,362.442l9.071,29.475l35.216-11.903L546.374,362.442z"/>
		<path fill="#002642" d="M590.662,380.014l-35.216,11.903l45.621,16.438L590.662,380.014z"/>
		<path fill="#002640" d="M590.662,380.014l10.405,28.341l20.543-30.041L590.662,380.014z"/>
		<path fill="#00263D" d="M621.61,378.313l-20.543,30.041l33.349,6.802L621.61,378.313z"/>
		<path fill="#00263D" d="M621.61,378.313l12.806,36.843l18.409-32.592L621.61,378.313z"/>
		<path fill="#00263A" d="M652.824,382.564l-18.409,32.592l28.28-6.802L652.824,382.564z"/>
		<path fill="#00263A" d="M652.824,382.564l9.871,25.79l35.75-31.459L652.824,382.564z"/>
		<path fill="#002637" d="M698.446,376.896l-35.75,31.459l30.414,11.903L698.446,376.896z"/>
		<path fill="#00906F" d="M27.465,412.889l162.209,7.652l-74.168-11.62L27.465,412.889z"/>
		<path fill="#00987A" d="M27.465,412.889l88.041-3.968l-66.164-13.037L27.465,412.889z"/>
		<path fill="#008969" d="M115.506,408.922l74.168,11.62l-50.424-22.106L115.506,408.922z"/>
		<path fill="#004652" d="M221.155,421.392l239.045,1.7l-76.036-0.85L221.155,421.392z"/>
		<path fill="#005957" d="M221.155,421.392l163.01,0.85l-83.506-5.668L221.155,421.392z"/>
		<path fill="#00695D" d="M221.155,421.392l79.504-4.818l-41.886-2.551L221.155,421.392z"/>
		<path fill="#004956" d="M300.659,416.574l83.506,5.668l-28.547-30.325L300.659,416.574z"/>
		<path fill="#003D52" d="M355.618,391.917l28.547,30.325l25.612-15.871L355.618,391.917z"/>
		<path fill="#00314B" d="M384.165,422.242l76.036,0.85l-50.424-16.721L384.165,422.242z"/>
		<path fill="#00263B" d="M460.201,423.092l232.909-2.834l-58.694-5.101L460.201,423.092z"/>
		<path fill="#00263F" d="M460.201,423.092l174.215-7.935l-33.349-6.802L460.201,423.092z"/>
		<path fill="#002743" d="M460.201,423.092l140.866-14.737l-85.907-10.203L460.201,423.092z"/>
		<path fill="#002642" d="M515.16,398.152l85.907,10.203l-45.621-16.438L515.16,398.152z"/>
		<path fill="#002636" d="M634.416,415.157l58.694,5.101l-30.414-11.903L634.416,415.157z"/>
	</g>
</g>
<g>
	<defs>
		<rect id="SVGID_3_" y="397" width="681" height="398"/>
	</defs>
	<clipPath id="SVGID_4_">
		<use xlink:href="#SVGID_3_"  overflow="visible"/>
	</clipPath>
	<g clip-path="url(#SVGID_4_)">
		<g>
			<path fill="#00ADBA" d="M-22.425,827.415l-6.67-360.781l5.869,204.055L-22.425,827.415z"/>
			<path fill="#00ADBA" d="M-22.425,827.415l-0.8-156.726l6.136,71.703L-22.425,827.415z"/>
			<path fill="#00ADBA" d="M-22.425,827.415l5.336-85.023l3.201,41.094L-22.425,827.415z"/>
			<path fill="#00ADBA" d="M-22.425,827.415l8.537-43.929l29.614,16.721L-22.425,827.415z"/>
			<path fill="#00ADBA" d="M-22.425,827.415l38.151-27.207l61.629,5.101L-22.425,827.415z"/>
			<path fill="#00ADBA" d="M-22.425,827.415l99.78-22.106l30.414,10.77L-22.425,827.415z"/>
			<path fill="#00ADBA" d="M-22.425,827.415l130.194-11.336l28.013,2.834L-22.425,827.415z"/>
			<path fill="#00ADB7" d="M-22.425,827.415l158.207-8.502l304.943,4.535L-22.425,827.415z"/>
			<path fill="#00ADBA" d="M15.726,800.208l-29.614-16.721l46.422-20.406L15.726,800.208z"/>
			<path fill="#00ADBA" d="M15.726,800.208l16.808-37.127l44.821,42.228L15.726,800.208z"/>
			<path fill="#00ADBA" d="M77.355,805.309l-44.821-42.228l43.487-10.77L77.355,805.309z"/>
			<path fill="#00ADBA" d="M77.355,805.309l-1.334-52.998l38.151,26.924L77.355,805.309z"/>
			<path fill="#00ADBA" d="M77.355,805.309l36.817-26.074l-6.403,36.843L77.355,805.309z"/>
			<path fill="#00ADBA" d="M107.769,816.079l6.403-36.843l21.61,39.677L107.769,816.079z"/>
			<path fill="#00ADBA" d="M135.782,818.913l-21.61-39.677l24.011-26.641L135.782,818.913z"/>
			<path fill="#00ADBA" d="M135.782,818.913l2.401-66.318l45.088,17.571L135.782,818.913z"/>
			<path fill="#00ADB9" d="M135.782,818.913l47.489-48.747l-4.269,44.779L135.782,818.913z"/>
			<path fill="#00ADB7" d="M135.782,818.913l43.22-3.968h73.101L135.782,818.913z"/>
			<path fill="#00ADB2" d="M135.782,818.913l116.321-3.968l94.978,3.401L135.782,818.913z"/>
			<path fill="#00ADAA" d="M135.782,818.913l211.299-0.567l93.644,5.101L135.782,818.913z"/>
			<path fill="#00ADB7" d="M179.002,814.945l4.269-44.779l34.95,37.41L179.002,814.945z"/>
			<path fill="#00ADB5" d="M179.002,814.945l39.218-7.369l33.883,7.369H179.002z"/>
			<path fill="#00ADB5" d="M218.221,807.576l-34.95-37.41l52.291,13.887L218.221,807.576z"/>
			<path fill="#00ADB3" d="M218.221,807.576l17.341-23.523l16.541,30.892L218.221,807.576z"/>
			<path fill="#00ADB1" d="M252.103,814.945l-16.541-30.892l20.009-14.454L252.103,814.945z"/>
			<path fill="#00ADAF" d="M252.103,814.945l3.468-45.346l33.883,6.518L252.103,814.945z"/>
			<path fill="#00ADAD" d="M252.103,814.945l37.351-38.827l10.138,32.876L252.103,814.945z"/>
			<path fill="#00ADAA" d="M252.103,814.945l47.489-5.952l47.489,9.353L252.103,814.945z"/>
			<path fill="#00ADAA" d="M299.592,808.993l-10.138-32.876l50.69-23.806L299.592,808.993z"/>
			<path fill="#00ADA8" d="M299.592,808.993l40.552-56.682l6.937,66.035L299.592,808.993z"/>
			<path fill="#00ADA6" d="M347.081,818.346l-6.937-66.035l38.952,2.551L347.081,818.346z"/>
			<path fill="#00ADA5" d="M347.081,818.346l32.015-63.484l11.472,64.617L347.081,818.346z"/>
			<path fill="#00ADA2" d="M347.081,818.346l43.487,1.134l50.157,3.968L347.081,818.346z"/>
			<path fill="#00ADA2" d="M390.568,819.479l-11.472-64.617l32.015,0.85L390.568,819.479z"/>
			<path fill="#00AD9E" d="M390.568,819.479l20.543-63.767l29.614,67.735L390.568,819.479z"/>
			<path fill="#00A89A" d="M440.725,823.447l-29.614-67.735l61.896,44.212L440.725,823.447z"/>
			<path fill="#00A697" d="M440.725,823.447l32.282-23.523l41.886,15.871L440.725,823.447z"/>
			<path fill="#00A696" d="M440.725,823.447l74.168-7.652l64.564-0.567L440.725,823.447z"/>
			<path fill="#00A693" d="M440.725,823.447l138.732-8.219l41.62,0.85L440.725,823.447z"/>
			<path fill="#00A698" d="M473.007,799.924l-61.896-44.212l65.364,11.336L473.007,799.924z"/>
			<path fill="#00A697" d="M473.007,799.924l3.468-32.876l42.42,10.77L473.007,799.924z"/>
			<path fill="#00A696" d="M473.007,799.924l45.888-22.106l-4.002,37.977L473.007,799.924z"/>
			<path fill="#00A695" d="M514.893,815.795l4.002-37.977l14.674,27.774L514.893,815.795z"/>
			<path fill="#00A693" d="M514.893,815.795l18.675-10.203l45.888,9.636L514.893,815.795z"/>
			<path fill="#00A694" d="M533.568,805.592l-14.674-27.774l38.418-10.486L533.568,805.592z"/>
			<path fill="#00A692" d="M533.568,805.592l23.745-38.26l22.144,47.896L533.568,805.592z"/>
			<path fill="#00A690" d="M579.457,815.228l-22.144-47.896l42.953-6.518L579.457,815.228z"/>
			<path fill="#00A68E" d="M579.457,815.228l20.81-54.415l20.81,55.265L579.457,815.228z"/>
			<path fill="#00A68D" d="M621.076,816.079l-20.81-55.265l34.95,3.117L621.076,816.079z"/>
			<path fill="#00A68A" d="M621.076,816.079l14.14-52.148l41.353,30.325L621.076,816.079z"/>
			<path fill="#00A689" d="M621.076,816.079l55.493-21.823l15.207,0.567L621.076,816.079z"/>
			<path fill="#00A689" d="M676.569,794.256l-41.353-30.325l34.149-2.267L676.569,794.256z"/>
			<path fill="#00A687" d="M676.569,794.256l-7.203-32.592l22.41,33.159L676.569,794.256z"/>
			<path fill="#00A686" d="M691.776,794.823l-22.41-33.159l35.216,18.422L691.776,794.823z"/>
			<path fill="#00ADBA" d="M-13.888,783.486l-3.201-41.094l49.623,20.689L-13.888,783.486z"/>
			<path fill="#00ADBA" d="M32.534,763.081l-49.623-20.689l54.692-26.924L32.534,763.081z"/>
			<path fill="#00ADBA" d="M32.534,763.081l5.069-47.613l38.418,36.843L32.534,763.081z"/>
			<path fill="#00ADBA" d="M76.021,752.311l-38.418-36.843l42.153,6.518L76.021,752.311z"/>
			<path fill="#00ADBA" d="M76.021,752.311l3.735-30.325l36.284,6.518L76.021,752.311z"/>
			<path fill="#00ADBA" d="M76.021,752.311l40.019-23.806l-1.868,50.73L76.021,752.311z"/>
			<path fill="#00ADBA" d="M114.172,779.235l1.868-50.73l22.144,24.09L114.172,779.235z"/>
			<path fill="#00ADB9" d="M138.183,752.595l-22.144-24.09l41.619,7.652L138.183,752.595z"/>
			<path fill="#00ADB9" d="M138.183,752.595l19.476-16.438l25.612,34.009L138.183,752.595z"/>
			<path fill="#00ADB6" d="M183.271,770.166l-25.612-34.009l14.94-9.353L183.271,770.166z"/>
			<path fill="#00ADB3" d="M183.271,770.166l-10.672-43.362l38.685-11.62L183.271,770.166z"/>
			<path fill="#00ADB5" d="M183.271,770.166l28.013-54.982l24.278,68.869L183.271,770.166z"/>
			<path fill="#00ADB3" d="M235.562,784.053l-24.278-68.869l44.287,54.415L235.562,784.053z"/>
			<path fill="#00ADAD" d="M255.571,769.599l-44.287-54.415l44.554,2.551L255.571,769.599z"/>
			<path fill="#00ADAF" d="M255.571,769.599l0.267-51.864l33.616,58.383L255.571,769.599z"/>
			<path fill="#00ADAA" d="M289.454,776.118l-33.616-58.383l57.894,18.138L289.454,776.118z"/>
			<path fill="#00ADA9" d="M289.454,776.118l24.278-40.244l26.412,16.438L289.454,776.118z"/>
			<path fill="#00ADA4" d="M340.144,752.311l-26.412-16.438l24.278-15.304L340.144,752.311z"/>
			<path fill="#00ADA2" d="M340.144,752.311l-2.134-31.742l35.75,13.604L340.144,752.311z"/>
			<path fill="#00ADA5" d="M340.144,752.311l33.616-18.138l5.336,20.689L340.144,752.311z"/>
			<path fill="#00ADA2" d="M379.096,754.862l-5.336-20.689l37.351,21.539L379.096,754.862z"/>
			<path fill="#00AD9B" d="M411.111,755.712l-37.351-21.539l53.358-19.555L411.111,755.712z"/>
			<path fill="#00A695" d="M411.111,755.712l16.007-41.094l30.414,5.385L411.111,755.712z"/>
			<path fill="#00A698" d="M411.111,755.712l46.422-35.71l18.942,47.046L411.111,755.712z"/>
			<path fill="#00A393" d="M476.475,767.049l-18.942-47.046l57.36,6.802L476.475,767.049z"/>
			<path fill="#00A696" d="M476.475,767.049l38.418-40.244l4.002,51.014L476.475,767.049z"/>
			<path fill="#00A593" d="M518.895,777.818l-4.002-51.014l28.013,4.818L518.895,777.818z"/>
			<path fill="#00A693" d="M518.895,777.818l24.011-46.196l14.407,35.71L518.895,777.818z"/>
			<path fill="#00A590" d="M557.313,767.332l-14.407-35.71l55.226,4.251L557.313,767.332z"/>
			<path fill="#00A68F" d="M557.313,767.332l40.819-31.459l2.134,24.94L557.313,767.332z"/>
			<path fill="#00A68D" d="M600.266,760.814l-2.134-24.94l37.084,28.058L600.266,760.814z"/>
			<path fill="#00A48A" d="M635.216,763.931l-37.084-28.058l39.485-7.652L635.216,763.931z"/>
			<path fill="#00A488" d="M635.216,763.931l2.401-35.71l28.813,4.818L635.216,763.931z"/>
			<path fill="#00A689" d="M635.216,763.931l31.215-30.892l2.935,28.624L635.216,763.931z"/>
			<path fill="#00A383" d="M669.365,761.664l-2.935-28.624l41.086-15.588L669.365,761.664z"/>
			<path fill="#00A686" d="M669.365,761.664l38.151-44.212l-2.935,62.634L669.365,761.664z"/>
			<path fill="#00ADBA" d="M-17.09,742.392l-6.136-71.703l60.828,44.779L-17.09,742.392z"/>
			<path fill="#00ADBA" d="M37.603,715.468l-60.828-44.779l58.961-2.834L37.603,715.468z"/>
			<path fill="#00ADBA" d="M37.603,715.468l-1.868-47.613l38.952,14.454L37.603,715.468z"/>
			<path fill="#00ADBA" d="M37.603,715.468l37.084-33.159l5.069,39.677L37.603,715.468z"/>
			<path fill="#00ADB7" d="M79.756,721.986l-5.069-39.677l34.95,7.085L79.756,721.986z"/>
			<path fill="#00ADB8" d="M79.756,721.986l29.881-32.592l6.403,39.111L79.756,721.986z"/>
			<path fill="#00ADB1" d="M116.039,728.505l-6.403-39.111l22.677-10.77L116.039,728.505z"/>
			<path fill="#00ADB2" d="M116.039,728.505l16.274-49.88l25.345,57.532L116.039,728.505z"/>
			<path fill="#00ADAB" d="M157.659,736.157l-25.345-57.532l44.821,14.454L157.659,736.157z"/>
			<path fill="#00ADAE" d="M157.659,736.157l19.476-43.078l-4.535,33.726L157.659,736.157z"/>
			<path fill="#00ADAB" d="M172.599,726.804l4.535-33.726l34.149,22.106L172.599,726.804z"/>
			<path fill="#00ADA7" d="M211.284,715.185l-34.149-22.106l61.095,3.117L211.284,715.185z"/>
			<path fill="#00ADA6" d="M211.284,715.185l26.946-18.988l17.608,21.539L211.284,715.185z"/>
			<path fill="#00ADA2" d="M255.838,717.735l-17.608-21.539l29.881-8.219L255.838,717.735z"/>
			<path fill="#00AD9F" d="M255.838,717.735l12.272-29.758l32.282,4.251L255.838,717.735z"/>
			<path fill="#00ADA0" d="M255.838,717.735l44.554-25.507l13.34,43.645L255.838,717.735z"/>
			<path fill="#00AD9E" d="M313.732,735.873l-13.34-43.645l37.618,28.341L313.732,735.873z"/>
			<path fill="#00AD9A" d="M338.01,720.569l-37.618-28.341l53.358,8.219L338.01,720.569z"/>
			<path fill="#00AD9C" d="M338.01,720.569l15.741-20.122l20.009,33.726L338.01,720.569z"/>
			<path fill="#00AD97" d="M373.76,734.173l-20.009-33.726l32.549-28.908L373.76,734.173z"/>
			<path fill="#00AC94" d="M373.76,734.173l12.539-62.634l40.819,43.078L373.76,734.173z"/>
			<path fill="#009C8E" d="M427.118,714.618l-40.819-43.078l41.086,7.652L427.118,714.618z"/>
			<path fill="#009C8C" d="M427.118,714.618l0.267-35.426l30.147,40.811L427.118,714.618z"/>
			<path fill="#00958A" d="M457.533,720.003l-30.147-40.811l41.886,9.919L457.533,720.003z"/>
			<path fill="#009D8B" d="M457.533,720.003l11.739-30.892l45.621,37.694L457.533,720.003z"/>
			<path fill="#009788" d="M514.893,726.804l-45.621-37.694l44.021-1.417L514.893,726.804z"/>
			<path fill="#009686" d="M514.893,726.804l-1.601-39.111l22.944-6.235L514.893,726.804z"/>
			<path fill="#009D88" d="M514.893,726.804l21.343-45.346l6.67,50.164L514.893,726.804z"/>
			<path fill="#009683" d="M542.906,731.622l-6.67-50.164l51.224,1.134L542.906,731.622z"/>
			<path fill="#009D85" d="M542.906,731.622l44.554-49.03l10.672,53.281L542.906,731.622z"/>
			<path fill="#00957F" d="M598.132,735.873l-10.672-53.281l37.618-9.353L598.132,735.873z"/>
			<path fill="#009C80" d="M598.132,735.873l26.946-62.634l12.539,54.982L598.132,735.873z"/>
			<path fill="#00967C" d="M637.617,728.221l-12.539-54.982l31.748,24.94L637.617,728.221z"/>
			<path fill="#009E7F" d="M637.617,728.221l19.209-30.042l9.604,34.859L637.617,728.221z"/>
			<path fill="#009D7C" d="M666.431,733.039l-9.604-34.859l50.69,19.272L666.431,733.039z"/>
			<path fill="#009477" d="M707.517,717.452l-50.69-19.272l46.422-27.491L707.517,717.452z"/>
			<path fill="#008872" d="M707.517,717.452l-4.269-46.763l0.267-34.576L707.517,717.452z"/>
			<path fill="#005C64" d="M707.517,717.452l-4.002-81.339l10.672-132.636L707.517,717.452z"/>
			<path fill="#003C54" d="M707.517,717.452l6.67-213.975l4.269-38.544L707.517,717.452z"/>
			<path fill="#00ADB2" d="M-23.226,670.689l-5.869-204.055l7.47,166.362L-23.226,670.689z"/>
			<path fill="#00ADBA" d="M-23.226,670.689l1.601-37.694l54.159,24.657L-23.226,670.689z"/>
			<path fill="#00ADBA" d="M-23.226,670.689l55.759-13.037l3.201,10.203L-23.226,670.689z"/>
			<path fill="#00ADB4" d="M35.735,667.855l-3.201-10.203l36.817-26.357L35.735,667.855z"/>
			<path fill="#00ADB5" d="M35.735,667.855l33.616-36.56l5.336,51.014L35.735,667.855z"/>
			<path fill="#00ADAE" d="M74.687,682.309l-5.336-51.014l49.89,21.823L74.687,682.309z"/>
			<path fill="#00ADB1" d="M74.687,682.309l44.554-29.191l-9.604,36.277L74.687,682.309z"/>
			<path fill="#00ADAD" d="M109.636,689.394l9.604-36.277l13.073,25.507L109.636,689.394z"/>
			<path fill="#00ADA5" d="M132.314,678.625l-13.073-25.507l36.284-20.972L132.314,678.625z"/>
			<path fill="#00ADA2" d="M132.314,678.625l23.211-46.479l20.009,25.224L132.314,678.625z"/>
			<path fill="#00ADA7" d="M132.314,678.625l43.22-21.256l1.601,35.71L132.314,678.625z"/>
			<path fill="#00ADA2" d="M177.135,693.079l-1.601-35.71l57.627-9.919L177.135,693.079z"/>
			<path fill="#00ADA3" d="M177.135,693.079l56.026-45.629l5.069,48.747L177.135,693.079z"/>
			<path fill="#00AD9D" d="M238.23,696.196l-5.069-48.747l20.543,5.668L238.23,696.196z"/>
			<path fill="#00AD9E" d="M238.23,696.196l15.474-43.078l14.407,34.859L238.23,696.196z"/>
			<path fill="#00AD97" d="M268.111,687.977l-14.407-34.859l44.287-18.705L268.111,687.977z"/>
			<path fill="#00AD99" d="M268.111,687.977l29.881-53.565l2.401,57.816L268.111,687.977z"/>
			<path fill="#00A691" d="M300.392,692.228l-2.401-57.816l55.759,3.401L300.392,692.228z"/>
			<path fill="#00AD95" d="M300.392,692.228l53.358-54.415v62.634L300.392,692.228z"/>
			<path fill="#00A292" d="M353.751,700.447v-62.634l32.549,33.726L353.751,700.447z"/>
			<path fill="#00908C" d="M386.299,671.539l-32.549-33.726l45.888,14.737L386.299,671.539z"/>
			<path fill="#00938C" d="M386.299,671.539l13.34-18.989l27.746,26.641L386.299,671.539z"/>
			<path fill="#008486" d="M427.385,679.191l-27.746-26.641l21.61-18.422L427.385,679.191z"/>
			<path fill="#007A82" d="M427.385,679.191l-6.136-45.062l37.351,8.219L427.385,679.191z"/>
			<path fill="#008685" d="M427.385,679.191l31.215-36.843l10.672,46.763L427.385,679.191z"/>
			<path fill="#007C80" d="M469.272,689.111L458.6,642.348l60.562-0.85L469.272,689.111z"/>
			<path fill="#008783" d="M469.272,689.111l49.89-47.613l-5.869,46.196L469.272,689.111z"/>
			<path fill="#008681" d="M513.292,687.694l5.869-46.196l17.075,39.961L513.292,687.694z"/>
			<path fill="#007D7E" d="M536.236,681.459l-17.075-39.961l25.879,13.604L536.236,681.459z"/>
			<path fill="#00887F" d="M536.236,681.459l8.804-26.357l42.42,27.491L536.236,681.459z"/>
			<path fill="#007C79" d="M587.46,682.592l-42.42-27.491l50.69-15.871L587.46,682.592z"/>
			<path fill="#008179" d="M587.46,682.592l8.271-43.362l29.347,34.009L587.46,682.592z"/>
			<path fill="#007273" d="M625.078,673.24l-29.347-34.009l14.94-13.32L625.078,673.24z"/>
			<path fill="#007672" d="M625.078,673.24l-14.407-47.33l50.69,28.624L625.078,673.24z"/>
			<path fill="#008877" d="M625.078,673.24l36.284-18.705l-4.535,43.645L625.078,673.24z"/>
			<path fill="#008875" d="M656.826,698.18l4.535-43.645l41.886,16.154L656.826,698.18z"/>
			<path fill="#00786E" d="M703.248,670.689l-41.886-16.154l42.153-18.422L703.248,670.689z"/>
			<path fill="#00ADA7" d="M-21.625,632.996l-7.47-166.362l11.472,115.915L-21.625,632.996z"/>
			<path fill="#00ADB0" d="M-21.625,632.996l4.002-50.447l50.157,4.535L-21.625,632.996z"/>
			<path fill="#00ADB2" d="M-21.625,632.996l54.159-45.912v70.569L-21.625,632.996z"/>
			<path fill="#00ADAD" d="M32.534,657.652v-70.569l36.817,44.212L32.534,657.652z"/>
			<path fill="#00ADA8" d="M69.351,631.295l-36.817-44.212l36.817,10.77V631.295z"/>
			<path fill="#00ADA5" d="M69.351,631.295v-33.442l26.946-13.604L69.351,631.295z"/>
			<path fill="#00ADA4" d="M69.351,631.295l26.946-47.046l22.944,68.869L69.351,631.295z"/>
			<path fill="#00AD9D" d="M119.241,653.118l-22.944-68.869l50.69,12.47L119.241,653.118z"/>
			<path fill="#00AD9C" d="M119.241,653.118l27.746-56.399l8.537,35.426L119.241,653.118z"/>
			<path fill="#00AD96" d="M155.525,632.145l-8.537-35.426l50.957-6.802L155.525,632.145z"/>
			<path fill="#00AD98" d="M155.525,632.145l42.42-42.228l-22.41,67.452L155.525,632.145z"/>
			<path fill="#00AD97" d="M175.534,657.369l22.41-67.452l35.217,57.532L175.534,657.369z"/>
			<path fill="#00A793" d="M233.161,647.449l-35.217-57.532l35.483,8.502L233.161,647.449z"/>
			<path fill="#00A491" d="M233.161,647.449l0.267-49.03l20.276,6.802L233.161,647.449z"/>
			<path fill="#00AD93" d="M233.161,647.449l20.543-42.228v47.896L233.161,647.449z"/>
			<path fill="#00A58F" d="M253.704,653.118v-47.896l44.287,29.191L253.704,653.118z"/>
			<path fill="#00928B" d="M297.991,634.413l-44.287-29.191l51.491-0.567L297.991,634.413z"/>
			<path fill="#008E89" d="M297.991,634.413l7.203-29.758l48.556,33.159L297.991,634.413z"/>
			<path fill="#007F86" d="M353.751,637.814l-48.556-33.159l33.616-7.369L353.751,637.814z"/>
			<path fill="#007684" d="M353.751,637.814l-14.94-40.528l33.349,1.7L353.751,637.814z"/>
			<path fill="#007D85" d="M353.751,637.814l18.409-38.827l27.48,53.565L353.751,637.814z"/>
			<path fill="#007581" d="M399.639,652.551l-27.48-53.565l49.09,35.143L399.639,652.551z"/>
			<path fill="#00637D" d="M421.249,634.129l-49.09-35.143l65.097,3.684L421.249,634.129z"/>
			<path fill="#00657A" d="M421.249,634.129l16.008-31.459l21.343,39.677L421.249,634.129z"/>
			<path fill="#005877" d="M458.6,642.348l-21.343-39.677l12.272-8.786L458.6,642.348z"/>
			<path fill="#005375" d="M458.6,642.348l-9.071-48.463l59.495-9.636L458.6,642.348z"/>
			<path fill="#005F76" d="M458.6,642.348l50.424-58.099l10.138,57.249L458.6,642.348z"/>
			<path fill="#005171" d="M519.162,641.498l-10.138-57.249l37.884,2.267L519.162,641.498z"/>
			<path fill="#006374" d="M519.162,641.498l27.746-54.982l-1.868,68.585L519.162,641.498z"/>
			<path fill="#005970" d="M545.04,655.102l1.868-68.585l39.485,16.438L545.04,655.102z"/>
			<path fill="#006672" d="M545.04,655.102l41.353-52.147l9.338,36.276L545.04,655.102z"/>
			<path fill="#005F6E" d="M595.731,639.231l-9.338-36.276l24.278,22.956L595.731,639.231z"/>
			<path fill="#00546B" d="M610.671,625.91l-24.278-22.956l46.155-7.085L610.671,625.91z"/>
			<path fill="#00616B" d="M610.671,625.91l21.877-30.041l28.813,58.666L610.671,625.91z"/>
			<path fill="#005767" d="M661.362,654.535l-28.813-58.666l45.888-7.935L661.362,654.535z"/>
			<path fill="#005765" d="M661.362,654.535l17.075-66.601l13.34,6.235L661.362,654.535z"/>
			<path fill="#006367" d="M661.362,654.535l30.414-60.366l11.739,41.945L661.362,654.535z"/>
			<path fill="#004961" d="M703.515,636.113l-11.739-41.945l12.272-39.111L703.515,636.113z"/>
			<path fill="#003D56" d="M703.515,636.113l0.534-81.055l10.138-51.581L703.515,636.113z"/>
			<path fill="#00ADA0" d="M-17.623,582.549l-11.472-115.915l10.938,57.532L-17.623,582.549z"/>
			<path fill="#00ADA5" d="M-17.623,582.549l-0.534-58.383l5.336,47.046L-17.623,582.549z"/>
			<path fill="#00ADAB" d="M-17.623,582.549l4.802-11.336l45.355,15.871L-17.623,582.549z"/>
			<path fill="#00ADA6" d="M32.534,587.083l-45.355-15.871l32.015-18.138L32.534,587.083z"/>
			<path fill="#00ADA1" d="M32.534,587.083l-13.34-34.009l56.56,19.272L32.534,587.083z"/>
			<path fill="#00ADA4" d="M32.534,587.083l43.22-14.737l-6.403,25.507L32.534,587.083z"/>
			<path fill="#00ADA0" d="M69.351,597.853l6.403-25.507l20.543,11.903L69.351,597.853z"/>
			<path fill="#00AB98" d="M96.297,584.249l-20.543-11.903l36.017-22.673L96.297,584.249z"/>
			<path fill="#00A793" d="M96.297,584.249l15.474-34.576l30.147,17.855L96.297,584.249z"/>
			<path fill="#00AA96" d="M96.297,584.249l45.621-16.721l5.069,29.191L96.297,584.249z"/>
			<path fill="#00A18E" d="M146.987,596.719l-5.069-29.191l50.957-7.369L146.987,596.719z"/>
			<path fill="#009E8F" d="M146.987,596.719l45.888-36.56l5.069,29.758L146.987,596.719z"/>
			<path fill="#009186" d="M197.944,589.917l-5.069-29.758l27.746-20.406L197.944,589.917z"/>
			<path fill="#00928A" d="M197.944,589.917l22.677-50.164l12.806,58.666L197.944,589.917z"/>
			<path fill="#008481" d="M233.428,598.419l-12.806-58.666l54.159,2.267L233.428,598.419z"/>
			<path fill="#008888" d="M233.428,598.419l41.353-56.399l-21.077,63.201L233.428,598.419z"/>
			<path fill="#007A80" d="M253.704,605.221l21.077-63.201l35.75,20.972L253.704,605.221z"/>
			<path fill="#007E86" d="M253.704,605.221l56.827-42.228l-5.336,41.661L253.704,605.221z"/>
			<path fill="#007283" d="M305.195,604.655l5.336-41.661l28.28,34.293L305.195,604.655z"/>
			<path fill="#006A7D" d="M338.81,597.286l-28.28-34.293l23.211,1.417L338.81,597.286z"/>
			<path fill="#006780" d="M338.81,597.286l-5.069-32.876l38.418,34.576L338.81,597.286z"/>
			<path fill="#005A78" d="M372.159,598.986l-38.418-34.576l57.093-23.24L372.159,598.986z"/>
			<path fill="#005073" d="M372.159,598.986l18.675-57.816l29.347,15.304L372.159,598.986z"/>
			<path fill="#005178" d="M372.159,598.986l48.022-42.512l17.075,46.196L372.159,598.986z"/>
			<path fill="#004773" d="M437.257,602.671l-17.075-46.196l29.347,37.41L437.257,602.671z"/>
			<path fill="#003F6B" d="M449.529,593.885l-29.347-37.41l50.957-1.7L449.529,593.885z"/>
			<path fill="#00426D" d="M449.529,593.885l21.61-39.111l37.884,29.475L449.529,593.885z"/>
			<path fill="#003E68" d="M509.024,584.249l-37.884-29.475l32.815,7.369L509.024,584.249z"/>
			<path fill="#003D67" d="M509.024,584.249l-5.069-22.106l41.886-13.32L509.024,584.249z"/>
			<path fill="#004069" d="M509.024,584.249l36.817-35.426l1.067,37.694L509.024,584.249z"/>
			<path fill="#003D63" d="M546.908,586.516l-1.067-37.694l26.412,6.235L546.908,586.516z"/>
			<path fill="#004268" d="M546.908,586.516l25.345-31.459l14.14,47.896L546.908,586.516z"/>
			<path fill="#004467" d="M586.393,602.954l-14.14-47.896l60.295,40.811L586.393,602.954z"/>
			<path fill="#003E5F" d="M632.548,595.869l-60.295-40.811l66.698-3.968L632.548,595.869z"/>
			<path fill="#003F5E" d="M632.548,595.869l6.403-44.779l37.351,18.989L632.548,595.869z"/>
			<path fill="#004461" d="M632.548,595.869l43.754-25.79l2.134,17.855L632.548,595.869z"/>
			<path fill="#00435F" d="M678.436,587.933l-2.134-17.855l15.474,24.09L678.436,587.933z"/>
			<path fill="#00405B" d="M691.776,594.168l-15.474-24.09l27.746-15.021L691.776,594.168z"/>
			<path fill="#00ADA0" d="M-12.821,571.212l-5.336-47.046l37.351,28.908L-12.821,571.212z"/>
			<path fill="#00AD9B" d="M19.194,553.074l-37.351-28.908l57.093-23.806L19.194,553.074z"/>
			<path fill="#00AD96" d="M19.194,553.074l19.743-52.714l34.683,5.101L19.194,553.074z"/>
			<path fill="#00AB97" d="M19.194,553.074l54.425-47.613l2.134,66.885L19.194,553.074z"/>
			<path fill="#00A692" d="M75.754,572.346l-2.134-66.885l38.151,44.212L75.754,572.346z"/>
			<path fill="#00A48D" d="M111.771,549.673L73.62,505.461l40.819,14.737L111.771,549.673z"/>
			<path fill="#00A08B" d="M111.771,549.673l2.668-29.475l27.48,47.329L111.771,549.673z"/>
			<path fill="#009E88" d="M141.918,567.528l-27.48-47.329l18.142-12.753L141.918,567.528z"/>
			<path fill="#009A83" d="M141.918,567.528l-9.338-60.083l54.692,12.187L141.918,567.528z"/>
			<path fill="#009584" d="M141.918,567.528l45.355-47.896l5.603,40.528L141.918,567.528z"/>
			<path fill="#008E81" d="M192.875,560.159l-5.603-40.528l33.349,20.122L192.875,560.159z"/>
			<path fill="#008B7E" d="M220.622,539.754l-33.349-20.122l32.015-18.138L220.622,539.754z"/>
			<path fill="#00847B" d="M220.622,539.754l-1.334-38.26l42.42,5.385L220.622,539.754z"/>
			<path fill="#007D7A" d="M220.622,539.754l41.086-32.876l13.073,35.143L220.622,539.754z"/>
			<path fill="#007476" d="M274.78,542.021l-13.073-35.143l33.883-3.401L274.78,542.021z"/>
			<path fill="#006E75" d="M274.78,542.021l20.81-38.544l14.94,59.516L274.78,542.021z"/>
			<path fill="#006572" d="M310.531,562.993l-14.94-59.516l51.491,22.389L310.531,562.993z"/>
			<path fill="#006174" d="M310.531,562.993l36.55-37.127l-13.34,38.544L310.531,562.993z"/>
			<path fill="#005771" d="M333.741,564.41l13.34-38.544l43.754,15.304L333.741,564.41z"/>
			<path fill="#00516F" d="M390.835,541.171l-43.754-15.304l37.084,0.283L390.835,541.171z"/>
			<path fill="#00496A" d="M390.835,541.171l-6.67-15.021l37.618-8.502L390.835,541.171z"/>
			<path fill="#004469" d="M390.835,541.171l30.948-23.523l-1.601,38.827L390.835,541.171z"/>
			<path fill="#003C64" d="M420.182,556.475l1.601-38.827l45.088-0.567L420.182,556.475z"/>
			<path fill="#003863" d="M420.182,556.475l46.689-39.394l4.269,37.694L420.182,556.475z"/>
			<path fill="#003861" d="M471.139,554.774l-4.269-37.694l40.019,3.401L471.139,554.774z"/>
			<path fill="#003861" d="M471.139,554.774l35.75-34.293l-2.935,41.661L471.139,554.774z"/>
			<path fill="#003860" d="M503.954,562.143l2.935-41.661l38.952,28.341L503.954,562.143z"/>
			<path fill="#00385E" d="M545.841,548.823l-38.952-28.341l31.215-7.085L545.841,548.823z"/>
			<path fill="#00385B" d="M545.841,548.823l-7.737-35.426l36.284-12.47L545.841,548.823z"/>
			<path fill="#00385B" d="M545.841,548.823l28.547-47.896l-2.134,54.131L545.841,548.823z"/>
			<path fill="#003858" d="M572.253,555.058l2.134-54.131l42.687,10.486L572.253,555.058z"/>
			<path fill="#003858" d="M572.253,555.058l44.821-43.645l21.877,39.677L572.253,555.058z"/>
			<path fill="#003853" d="M638.951,551.09l-21.877-39.677l61.362,7.085L638.951,551.09z"/>
			<path fill="#003853" d="M638.951,551.09l39.485-32.592l-2.134,51.581L638.951,551.09z"/>
			<path fill="#003852" d="M676.302,570.078l2.134-51.581l25.612,36.56L676.302,570.078z"/>
			<path fill="#00384E" d="M704.048,555.058l-25.612-36.56l35.75-15.021L704.048,555.058z"/>
			<path fill="#00AA98" d="M-18.157,524.166l-10.938-57.532l54.159-6.235L-18.157,524.166z"/>
			<path fill="#00AB96" d="M-18.157,524.166l43.22-63.767l13.873,39.961L-18.157,524.166z"/>
			<path fill="#00A08F" d="M38.937,500.36l-13.873-39.961l41.353,15.871L38.937,500.36z"/>
			<path fill="#00A490" d="M38.937,500.36l27.48-24.09l7.203,29.191L38.937,500.36z"/>
			<path fill="#009D8A" d="M73.62,505.461l-7.203-29.191l42.42,6.235L73.62,505.461z"/>
			<path fill="#00A18A" d="M73.62,505.461l35.216-22.956l5.603,37.694L73.62,505.461z"/>
			<path fill="#009E87" d="M114.439,520.198l-5.603-37.694l23.744,24.94L114.439,520.198z"/>
			<path fill="#009682" d="M132.581,507.445l-23.744-24.94l40.819-1.134L132.581,507.445z"/>
			<path fill="#00967F" d="M132.581,507.445l17.075-26.074l37.618,38.26L132.581,507.445z"/>
			<path fill="#008C7B" d="M187.273,519.631l-37.618-38.26l23.744-22.106L187.273,519.631z"/>
			<path fill="#00867A" d="M187.273,519.631L173.4,459.265l42.687,20.406L187.273,519.631z"/>
			<path fill="#00887B" d="M187.273,519.631l28.814-39.961l3.201,21.823L187.273,519.631z"/>
			<path fill="#007F78" d="M219.288,501.493l-3.201-21.823l45.621,27.207L219.288,501.493z"/>
			<path fill="#007273" d="M261.708,506.878l-45.621-27.207l57.36-15.588L261.708,506.878z"/>
			<path fill="#006C71" d="M261.708,506.878l11.739-42.795l22.144,39.394L261.708,506.878z"/>
			<path fill="#00626D" d="M295.59,503.477l-22.144-39.394l24.011,1.7L295.59,503.477z"/>
			<path fill="#00596A" d="M295.59,503.477l1.868-37.694l37.618-10.77L295.59,503.477z"/>
			<path fill="#005C6D" d="M295.59,503.477l39.485-48.463l12.006,70.853L295.59,503.477z"/>
			<path fill="#004E69" d="M347.081,525.866l-12.006-70.853l42.687,18.138L347.081,525.866z"/>
			<path fill="#00526D" d="M347.081,525.866l30.681-52.714l6.403,52.998L347.081,525.866z"/>
			<path fill="#004968" d="M384.165,526.15l-6.403-52.998l44.021,44.495L384.165,526.15z"/>
			<path fill="#003C62" d="M421.783,517.648l-44.021-44.495l36.55-11.62L421.783,517.648z"/>
			<path fill="#00315D" d="M421.783,517.648l-7.47-56.115l35.75-2.551L421.783,517.648z"/>
			<path fill="#00335E" d="M421.783,517.648l28.28-58.666l16.808,58.099L421.783,517.648z"/>
			<path fill="#002858" d="M466.87,517.081l-16.808-58.099l20.276-14.454L466.87,517.081z"/>
			<path fill="#002857" d="M466.87,517.081l3.468-72.553l49.09,11.336L466.87,517.081z"/>
			<path fill="#00335B" d="M466.87,517.081l52.558-61.217l-12.539,64.618L466.87,517.081z"/>
			<path fill="#002E58" d="M506.889,520.482l12.539-64.618l18.142,26.641L506.889,520.482z"/>
			<path fill="#00365B" d="M506.889,520.482l30.681-37.977l0.534,30.892L506.889,520.482z"/>
			<path fill="#003458" d="M538.104,513.396l-0.534-30.892l36.817,18.422L538.104,513.396z"/>
			<path fill="#002D53" d="M574.388,500.926l-36.817-18.422l60.295-12.187L574.388,500.926z"/>
			<path fill="#003153" d="M574.388,500.926l23.478-30.608l19.209,41.094L574.388,500.926z"/>
			<path fill="#002E50" d="M617.074,511.413l-19.209-41.094l22.411,11.62L617.074,511.413z"/>
			<path fill="#002F4F" d="M617.074,511.413l3.202-29.475l45.355-6.518L617.074,511.413z"/>
			<path fill="#00344F" d="M617.074,511.413l48.556-35.993l12.806,43.078L617.074,511.413z"/>
			<path fill="#00334C" d="M678.436,518.498l-12.806-43.078l48.556,28.058L678.436,518.498z"/>
			<path fill="#002B47" d="M714.186,503.477l-48.556-28.058l52.825-10.486L714.186,503.477z"/>
			<path fill="#00A58E" d="M-29.095,466.634l15.474-68.585l7.203,27.491L-29.095,466.634z"/>
			<path fill="#00A390" d="M-29.095,466.634l22.677-41.094l31.481,34.859L-29.095,466.634z"/>
			<path fill="#00A08B" d="M25.063,460.399l-31.481-34.859l33.082-0.85L25.063,460.399z"/>
			<path fill="#009D88" d="M25.063,460.399l1.601-35.71l34.416,16.438L25.063,460.399z"/>
			<path fill="#009B8A" d="M25.063,460.399l36.017-19.272l5.336,35.143L25.063,460.399z"/>
			<path fill="#009683" d="M66.416,476.27l-5.336-35.143l51.224-8.786L66.416,476.27z"/>
			<path fill="#009383" d="M66.416,476.27l45.888-43.929l-3.468,50.164L66.416,476.27z"/>
			<path fill="#008E7B" d="M108.836,482.505l3.468-50.164l31.215,1.984L108.836,482.505z"/>
			<path fill="#008C7C" d="M108.836,482.505l34.683-48.18l6.136,47.046L108.836,482.505z"/>
			<path fill="#008877" d="M149.655,481.371l-6.136-47.046l29.881,24.94L149.655,481.371z"/>
			<path fill="#008473" d="M173.4,459.265l-29.881-24.94l53.892,9.636L173.4,459.265z"/>
			<path fill="#007D74" d="M173.4,459.265l24.011-15.304l18.675,35.71L173.4,459.265z"/>
			<path fill="#007A71" d="M216.086,479.671l-18.675-35.71l21.877-22.389L216.086,479.671z"/>
			<path fill="#00726F" d="M216.086,479.671l3.201-58.099l54.159,42.512L216.086,479.671z"/>
			<path fill="#006B69" d="M273.447,464.083l-54.159-42.512l49.623-2.267L273.447,464.083z"/>
			<path fill="#006266" d="M273.447,464.083l-4.535-44.779l24.812,1.417L273.447,464.083z"/>
			<path fill="#005E67" d="M273.447,464.083l20.276-43.362l3.735,45.062L273.447,464.083z"/>
			<path fill="#005765" d="M297.458,465.784l-3.735-45.062l41.353,34.293L297.458,465.784z"/>
			<path fill="#005161" d="M335.075,455.014l-41.353-34.293l53.092,7.935L335.075,455.014z"/>
			<path fill="#004763" d="M335.075,455.014l11.739-26.357l30.948,44.495L335.075,455.014z"/>
			<path fill="#003F60" d="M377.762,473.152l-30.948-44.495l54.159,13.037L377.762,473.152z"/>
			<path fill="#00385E" d="M377.762,473.152l23.211-31.459l13.34,19.839L377.762,473.152z"/>
			<path fill="#00345A" d="M414.312,461.532l-13.34-19.839l8.537-3.968L414.312,461.532z"/>
			<path fill="#002E58" d="M414.312,461.532l-4.802-23.806l40.552,21.256L414.312,461.532z"/>
			<path fill="#002854" d="M450.063,458.982l-40.552-21.256l60.828,6.802L450.063,458.982z"/>
			<path fill="#002750" d="M519.428,455.864l-49.09-11.336l40.019-15.304L519.428,455.864z"/>
			<path fill="#00274E" d="M519.428,455.864l-9.071-26.641l36.017,2.834L519.428,455.864z"/>
			<path fill="#002751" d="M519.428,455.864l26.946-23.806l-8.804,50.447L519.428,455.864z"/>
			<path fill="#002650" d="M537.57,482.505l8.804-50.447l51.491,38.26L537.57,482.505z"/>
			<path fill="#00264A" d="M597.865,470.318l-51.491-38.26l44.287-17.571L597.865,470.318z"/>
			<path fill="#002646" d="M597.865,470.318l-7.203-55.832l30.948,1.7L597.865,470.318z"/>
			<path fill="#00264A" d="M597.865,470.318l23.744-54.131l-1.334,65.751L597.865,470.318z"/>
			<path fill="#002648" d="M620.276,481.938l1.334-65.751l44.021,59.233L620.276,481.938z"/>
			<path fill="#002643" d="M665.63,475.419l-44.021-59.233l31.215-4.251L665.63,475.419z"/>
			<path fill="#002640" d="M665.63,475.419l-12.806-63.484l45.621,5.668L665.63,475.419z"/>
			<path fill="#002642" d="M665.63,475.419l32.815-57.816l20.009,47.33L665.63,475.419z"/>
			<path fill="#00263B" d="M718.455,464.933l-20.009-47.33l-5.336-43.362L718.455,464.933z"/>
			<path fill="#00A289" d="M-6.418,425.539l-7.203-27.491l40.286,26.641L-6.418,425.539z"/>
			<path fill="#00A084" d="M26.664,424.689l-40.286-26.641l41.086-16.438L26.664,424.689z"/>
			<path fill="#009D81" d="M26.664,424.689l0.8-43.078l21.877,17.005L26.664,424.689z"/>
			<path fill="#009B83" d="M26.664,424.689l22.677-26.074l11.739,42.512L26.664,424.689z"/>
			<path fill="#00977F" d="M61.08,441.127l-11.739-42.512l62.963,33.726L61.08,441.127z"/>
			<path fill="#009478" d="M112.304,432.341l-62.963-33.726l66.164-13.037L112.304,432.341z"/>
			<path fill="#008E72" d="M112.304,432.341l3.201-46.763l23.744,10.486L112.304,432.341z"/>
			<path fill="#008C74" d="M112.304,432.341l26.946-36.277l4.269,38.26L112.304,432.341z"/>
			<path fill="#00876B" d="M143.519,434.325l-4.269-38.26l50.424-22.106L143.519,434.325z"/>
			<path fill="#00826D" d="M143.519,434.325l46.155-60.366l7.737,70.002L143.519,434.325z"/>
			<path fill="#007C6A" d="M197.411,443.961l-7.737-70.002l29.614,47.613L197.411,443.961z"/>
			<path fill="#007A65" d="M219.288,421.572l-29.614-47.613l31.481-0.85L219.288,421.572z"/>
			<path fill="#007363" d="M219.288,421.572l1.868-48.463l37.618,7.369L219.288,421.572z"/>
			<path fill="#006D64" d="M219.288,421.572l39.485-41.094l10.138,38.827L219.288,421.572z"/>
			<path fill="#00635D" d="M268.911,419.304l-10.138-38.827l41.886-2.551L268.911,419.304z"/>
			<path fill="#005E5F" d="M268.911,419.304l31.748-41.378l-6.937,42.795L268.911,419.304z"/>
			<path fill="#00545B" d="M293.723,420.721l6.937-42.795l54.959,24.657L293.723,420.721z"/>
			<path fill="#004F5D" d="M293.723,420.721l61.896-18.138l-8.804,26.074L293.723,420.721z"/>
			<path fill="#00425C" d="M346.814,428.657l8.804-26.074l45.355,39.111L346.814,428.657z"/>
			<path fill="#003B57" d="M400.973,441.694l-45.355-39.111l54.159-14.454L400.973,441.694z"/>
			<path fill="#003455" d="M400.973,441.694l8.804-53.565l-0.267,49.597L400.973,441.694z"/>
			<path fill="#002C52" d="M409.51,437.726l0.267-49.597l60.562,56.399L409.51,437.726z"/>
			<path fill="#00274B" d="M470.339,444.528l-60.562-56.399l50.424-16.721L470.339,444.528z"/>
			<path fill="#00274A" d="M470.339,444.528l-10.138-73.12l54.959,24.94L470.339,444.528z"/>
			<path fill="#00274D" d="M470.339,444.528l44.821-48.18l-4.802,32.876L470.339,444.528z"/>
			<path fill="#00274A" d="M510.358,429.224l4.802-32.876l31.215,35.71L510.358,429.224z"/>
			<path fill="#002747" d="M546.374,432.058l-31.215-35.71l40.286,6.235L546.374,432.058z"/>
			<path fill="#002646" d="M546.374,432.058l9.071-29.475l35.216,11.903L546.374,432.058z"/>
			<path fill="#002642" d="M590.662,414.486l-35.216-11.903l45.621-16.438L590.662,414.486z"/>
			<path fill="#002640" d="M590.662,414.486l10.405-28.341l20.543,30.041L590.662,414.486z"/>
			<path fill="#00263D" d="M621.61,416.187l-20.543-30.041l33.349-6.802L621.61,416.187z"/>
			<path fill="#00263D" d="M621.61,416.187l12.806-36.843l18.409,32.592L621.61,416.187z"/>
			<path fill="#00263A" d="M652.824,411.936l-18.409-32.592l28.28,6.802L652.824,411.936z"/>
			<path fill="#00263A" d="M652.824,411.936l9.871-25.79l35.75,31.459L652.824,411.936z"/>
			<path fill="#002637" d="M698.446,417.604l-35.75-31.459l30.414-11.903L698.446,417.604z"/>
			<path fill="#00906F" d="M27.465,381.611l162.209-7.652l-74.168,11.62L27.465,381.611z"/>
			<path fill="#00987A" d="M27.465,381.611l88.041,3.968l-66.164,13.037L27.465,381.611z"/>
			<path fill="#008969" d="M115.506,385.578l74.168-11.62l-50.424,22.106L115.506,385.578z"/>
			<path fill="#004652" d="M221.155,373.108l239.045-1.7l-76.036,0.85L221.155,373.108z"/>
			<path fill="#005957" d="M221.155,373.108l163.01-0.85l-83.506,5.668L221.155,373.108z"/>
			<path fill="#00695D" d="M221.155,373.108l79.504,4.818l-41.886,2.551L221.155,373.108z"/>
			<path fill="#004956" d="M300.659,377.926l83.506-5.668l-28.547,30.325L300.659,377.926z"/>
			<path fill="#003D52" d="M355.618,402.583l28.547-30.325l25.612,15.871L355.618,402.583z"/>
			<path fill="#00314B" d="M384.165,372.258l76.036-0.85l-50.424,16.721L384.165,372.258z"/>
			<path fill="#00263B" d="M460.201,371.408l232.909,2.834l-58.694,5.101L460.201,371.408z"/>
			<path fill="#00263F" d="M460.201,371.408l174.215,7.935l-33.349,6.802L460.201,371.408z"/>
			<path fill="#002743" d="M460.201,371.408l140.866,14.737l-85.907,10.203L460.201,371.408z"/>
			<path fill="#002642" d="M515.16,396.348l85.907-10.203l-45.621,16.438L515.16,396.348z"/>
			<path fill="#002636" d="M634.416,379.343l58.694-5.101l-30.414,11.903L634.416,379.343z"/>
		</g>
	</g>
</g>
</svg>
