<?xml version="1.0" encoding="utf-8"?>
<!-- Generator: Adobe Illustrator 17.0.0, SVG Export Plug-In . SVG Version: 6.00 Build 0)  -->
<!DOCTYPE svg PUBLIC "-//W3C//DTD SVG 1.1//EN" "http://www.w3.org/Graphics/SVG/1.1/DTD/svg11.dtd">
<svg version="1.1" id="Layer_1" xmlns="http://www.w3.org/2000/svg" xmlns:xlink="http://www.w3.org/1999/xlink" x="0px" y="0px"
	 width="314px" height="314px" viewBox="0 0 314 314" enable-background="new 0 0 314 314" xml:space="preserve">
<circle fill="#FFFFFF" cx="157" cy="157" r="157"/>
<g>
	<polygon fill="#5CC6B2" points="142,89.258 159,100.489 159,122.95 142,111.719 	"/>
	<polygon fill="#2B8776" points="140,114.647 123,125.878 123,148.339 140,137.108 	"/>
	<polygon fill="#2B8776" points="140,89.258 123,100.489 123,122.95 140,111.719 	"/>
	<polygon fill="#5CC6B2" points="199,122.95 181,111.719 181,89.258 199,100.489 	"/>
	<polygon fill="#5CC6B2" points="199,148.339 181,137.108 181,114.647 199,125.878 	"/>
	<polygon fill="#2B8776" points="179,89.258 161,100.489 161,122.95 179,111.719 	"/>
</g>
<g>
	<path d="M59.067,166.087c5.427,0.078,10.433,4.246,10.433,8.163c0-3.917,4.738-8.163,10.5-8.163c5.695,0,11,3.685,11,9.849v25.93
		c-0.268,0.201-0.732,0.201-1,0v-25.863c0.25-6.253-4.774-8.978-10.067-8.978c-5.025,0-9.85,3.058-9.989,8.975v25.866
		c-0.268,0.201-0.67,0.201-0.938,0v-25.863C69.5,170,64.293,167.025,59,167.025c-5.025,0-10.333,2.891-10,8.975v25.866
		c-0.268,0.201-0.732,0.334-1,0.134c0,0,0-22,0-26C48,170,53,166,59.067,166.087z"/>
	<path d="M132.922,201.866c0,0-0.067,0.134-0.469,0.134c-0.402,0-0.469-0.134-0.469-0.134v-34.975c0,0,0.067-0.134,0.469-0.134
		c0.402,0,0.469,0.134,0.469,0.134V201.866z"/>
	<path d="M166.958,201.866c-0.268,0.201-0.67,0.201-0.938,0V175c-0.02-3-5.258-7.975-11.02-7.975c-5.025,0-11,4.975-11,7.975v26.866
		c-0.268,0.201-0.732,0.201-1,0V176c0-5,7-9.82,12.134-9.913C160,166,167,170,166.958,175.937V201.866z"/>
	<path d="M185.583,166.087c4.556,0,8.174,1.407,8.174,1.407c0.067,0.268-0.134,0.804-0.402,0.938c0,0-3.484-1.407-7.705-1.407
		c-6.7,0-10.452,2.613-10.452,8.442c0,6.03,6.7,7.303,9.447,8.107c5.092,1.474,10.854,3.082,10.854,9.782
		c0,5.762-3.819,9.313-11.39,9.313c-6.097,0-9.849-2.01-9.849-2.01c-0.067-0.201,0.134-0.737,0.402-0.871
		c1.34,0.67,4.489,1.943,9.313,1.943c6.097,0,10.586-2.412,10.586-8.375c0-6.231-5.226-7.437-10.184-8.844
		c-4.891-1.34-10.117-3.149-10.117-9.045C174.26,169.438,178.012,166.087,185.583,166.087z"/>
	<path d="M217.273,202.134c-1.072,0.335-2.345,0.536-4.422,0.536c-7.103,0-8.844-4.355-8.844-11.859v-23.115h-5.427
		c0,0-0.134-0.201-0.134-0.469c0-0.469,0.134-0.469,0.134-0.469h5.427v-7.035c0.201-0.335,0.783-0.402,1.118-0.402v7.437h11.21
		c0,0,0.134,0.134,0.134,0.469c0,0.335-0.134,0.469-0.134,0.469h-11.21V194c0.055,3,1.361,7.732,7.727,7.732
		c2.546,0,4.288-0.402,4.288-0.402C217.273,201.531,217.34,201.866,217.273,202.134z"/>
	<path d="M232.817,166.087c7.371,0,10.788,3.216,10.788,11.323V191c-0.268,0.134-0.603,4.033-0.871,3.9v-1.945
		c-1.34,5.896-6.968,9.715-12.931,9.715c-6.834,0-10.385-3.618-10.385-9.849c0-5.963,4.154-10.117,12.194-10.117
		c4.02,0,8.442,0.402,11.055,0.737v-6.03c0-7.102-2.479-10.385-9.983-10.385c-5.561,0-10.184,1.809-10.184,1.809
		c-0.268-0.134-0.402-0.603-0.402-0.938C222.097,167.896,227.323,166.087,232.817,166.087z M231.879,183.508
		c-7.37,0-11.524,3.484-11.524,9.313c0,5.561,3.149,8.911,9.112,8.911c7.303,0,13.2-4.958,13.2-13.735v-3.752
		C240.12,183.843,235.832,183.508,231.879,183.508z"/>
	<path d="M111.4,166.087c7.371,0,10.788,3.216,10.788,11.323V191c-0.268,0.134-0.603,4.033-0.871,3.9v-1.945
		c-1.34,5.896-6.968,9.715-12.931,9.715c-6.834,0-10.385-3.618-10.385-9.849c0-5.963,4.154-10.117,12.194-10.117
		c4.02,0,8.442,0.402,11.055,0.737v-6.03c0-7.102-2.479-10.385-9.983-10.385c-5.561,0-10.184,1.809-10.184,1.809
		c-0.268-0.134-0.402-0.603-0.402-0.938C100.68,167.896,105.906,166.087,111.4,166.087z M110.462,183.508
		c-7.37,0-11.524,3.484-11.524,9.313c0,5.561,3.149,8.911,9.112,8.911c7.303,0,13.2-4.958,13.2-13.735v-3.752
		C118.703,183.843,114.415,183.508,110.462,183.508z"/>
	<path d="M261.158,211.447c-1.943,5.226-3.417,7.303-6.767,7.303c-1.675,0-2.881-0.335-2.881-0.335
		c-0.134-0.335-0.134-0.603,0.067-0.938c0,0,0.938,0.335,2.747,0.335c3.082,0,4.154-2.077,6.03-7.035l3.283-8.71h-0.067
		l-15.276-35.176c0,0,0.134-0.134,0.536-0.134c0.335,0,0.536,0.134,0.536,0.134l14.74,33.97h0.067l12.73-33.97
		c0,0,0.134-0.134,0.536-0.134c0.335,0,0.536,0.134,0.536,0.134L261.158,211.447z"/>
</g>
</svg>
